<svg width="31" height="31" viewBox="0 0 31 31" fill="none" xmlns="http://www.w3.org/2000/svg">
<path d="M13.892 15.68C13.892 16.1072 14.0617 16.5169 14.3638 16.819C14.6658 17.1211 15.0756 17.2908 15.5028 17.2908C15.93 17.2908 16.3397 17.1211 16.6418 16.819C16.9439 16.5169 17.1136 16.1072 17.1136 15.68C17.1136 15.2528 16.9439 14.843 16.6418 14.541C16.3397 14.2389 15.93 14.0692 15.5028 14.0692C15.0756 14.0692 14.6658 14.2389 14.3638 14.541C14.0617 14.843 13.892 15.2528 13.892 15.68Z" stroke="#5C7F87" stroke-width="1.5" stroke-linecap="round" stroke-linejoin="round"/>
<path d="M15.5027 7.62593C13.9098 7.62593 12.3526 8.09829 11.0281 8.98328C9.70365 9.86827 8.67134 11.1261 8.06175 12.5978C7.45216 14.0695 7.29266 15.6889 7.60343 17.2512C7.9142 18.8136 8.68127 20.2487 9.80765 21.375C10.934 22.5014 12.3691 23.2685 13.9314 23.5792C15.4938 23.89 17.1132 23.7305 18.5849 23.1209C20.0565 22.5113 21.3144 21.479 22.1994 20.1546C23.0844 18.8301 23.5567 17.2729 23.5567 15.68" stroke="#5C7F87" stroke-width="1.5" stroke-linecap="round" stroke-linejoin="round"/>
<path d="M17.1136 1.2713C14.1272 0.936272 11.1106 1.53754 8.48092 2.99192C5.85125 4.4463 3.73852 6.68193 2.43498 9.38954C1.13144 12.0972 0.701515 15.1429 1.20468 18.1056C1.70784 21.0682 3.11922 23.8013 5.24358 25.9267C7.36795 28.0522 10.1003 29.4649 13.0627 29.9696C16.0251 30.4742 19.0711 30.0458 21.7793 28.7437C24.4876 27.4415 26.7243 25.3299 28.18 22.7009C29.6357 20.072 30.2385 17.0557 29.905 14.0692" stroke="#5C7F87" stroke-width="1.5" stroke-linecap="round" stroke-linejoin="round"/>
<path d="M20.3351 6.01513V10.8476H25.1676L30 6.01513H25.1676V1.18271L20.3351 6.01513Z" stroke="#5C7F87" stroke-width="1.5" stroke-linecap="round" stroke-linejoin="round"/>
<path d="M20.3352 10.8475L15.5027 15.68" stroke="#5C7F87" stroke-width="1.5" stroke-linecap="round" stroke-linejoin="round"/>
</svg>
