<svg width="31" height="30" viewBox="0 0 31 30" fill="none" xmlns="http://www.w3.org/2000/svg">
<path d="M1 11.2358C1 10.3812 1.33948 9.5616 1.94377 8.95732C2.54805 8.35303 3.36764 8.01355 4.22222 8.01355H26.7778C27.6324 8.01355 28.4519 8.35303 29.0562 8.95732C29.6605 9.5616 30 10.3812 30 11.2358V25.7358C30 26.5904 29.6605 27.4099 29.0562 28.0142C28.4519 28.6185 27.6324 28.958 26.7778 28.958H4.22222C3.36764 28.958 2.54805 28.6185 1.94377 28.0142C1.33948 27.4099 1 26.5904 1 25.7358V11.2358Z" stroke="#5C7F87" stroke-width="1.5" stroke-linecap="round" stroke-linejoin="round"/>
<path d="M9.05554 8.01354V4.79131C9.05554 3.93673 9.39503 3.11714 9.99931 2.51286C10.6036 1.90857 11.4232 1.56909 12.2778 1.56909H18.7222C19.5768 1.56909 20.3964 1.90857 21.0007 2.51286C21.6049 3.11714 21.9444 3.93673 21.9444 4.79131V8.01354" stroke="#5C7F87" stroke-width="1.5" stroke-linecap="round" stroke-linejoin="round"/>
<path d="M15.5 16.0691V16.0842" stroke="#5C7F87" stroke-width="1.5" stroke-linecap="round" stroke-linejoin="round"/>
<path d="M1 17.6802C5.49755 19.9465 10.4637 21.1271 15.5 21.1271C20.5363 21.1271 25.5025 19.9465 30 17.6802" stroke="#5C7F87" stroke-width="1.5" stroke-linecap="round" stroke-linejoin="round"/>
</svg>
