<svg width="28" height="32" viewBox="0 0 28 32" fill="none" xmlns="http://www.w3.org/2000/svg">
<path d="M1 5.34687C1 4.37441 1.29851 3.44178 1.82986 2.75415C2.36122 2.06651 3.08189 1.68021 3.83333 1.68021H23.6667C24.4181 1.68021 25.1388 2.06651 25.6701 2.75415C26.2015 3.44178 26.5 4.37441 26.5 5.34687V27.3469C26.5 28.3193 26.2015 29.252 25.6701 29.9396C25.1388 30.6272 24.4181 31.0135 23.6667 31.0135H3.83333C3.08189 31.0135 2.36122 30.6272 1.82986 29.9396C1.29851 29.252 1 28.3193 1 27.3469V5.34687Z" stroke="#5C7F87" stroke-width="1.5" stroke-linecap="round" stroke-linejoin="round"/>
<path d="M6.66669 9.01352H20.8334" stroke="#5C7F87" stroke-width="1.5" stroke-linecap="round" stroke-linejoin="round"/>
<path d="M6.66669 16.3469H20.8334" stroke="#5C7F87" stroke-width="1.5" stroke-linecap="round" stroke-linejoin="round"/>
<path d="M6.66669 23.6802H20.8334" stroke="#5C7F87" stroke-width="1.5" stroke-linecap="round" stroke-linejoin="round"/>
</svg>
