<svg width="98" height="112" viewBox="0 0 98 112" fill="none" xmlns="http://www.w3.org/2000/svg">
<path d="M7.46852 96.5956C6.25281 97.0298 5.50022 96.8561 5.03709 95.9877C4.57396 95.1483 4.86342 94.3378 5.9344 93.6431C9.40788 91.3854 12.8813 89.1276 16.3548 86.8988C19.0178 85.191 21.1887 83.0201 22.665 80.2124C23.2439 79.1124 23.9965 78.1572 24.9517 77.231C22.7229 75.7547 20.6677 74.1917 18.7863 72.3681C18.6126 72.1944 18.4389 72.1944 18.2073 72.2523C14.8786 73.1496 11.7814 72.3102 8.80002 70.9208C7.75798 70.4287 6.68699 69.9656 5.76073 69.2709C5.00814 68.7499 4.6608 68.9525 4.25556 69.5604C3.87927 70.0814 3.47403 70.6024 3.09773 71.1234C2.40304 72.0497 1.44783 72.2813 0.666303 71.7313C-0.115228 71.1813 -0.231011 70.2261 0.434738 69.242C1.15838 68.1999 1.93991 67.2158 2.80828 66.2895C3.0109 66.058 3.30035 65.8843 3.24246 65.479C3.0109 62.5555 4.37134 60.2109 5.84757 57.8664C6.22386 57.2585 6.65804 56.5927 7.20801 56.2165C8.45267 55.377 8.33689 54.3639 8.07638 53.0614C5.87651 42.5252 7.67114 32.7416 13.576 23.7395C14.0102 23.0737 14.0681 22.7264 13.3445 22.2633C12.6787 21.8291 12.0998 21.2791 11.5788 20.7002C10.1315 19.1082 10.913 16.6478 13.0261 16.2715C14.647 15.9821 15.5733 15.1137 16.1233 13.6375C16.6732 12.1612 17.1942 10.6561 17.9468 9.26668C19.973 5.64848 23.2439 4.2012 27.1515 3.94069C29.2356 3.79596 31.3486 3.8828 33.4038 4.31698C33.9827 4.43276 34.1853 4.25909 34.3011 3.76701C34.5037 2.95654 34.7063 2.17501 34.9379 1.36453C35.2274 0.380378 36.0089 -0.140643 36.8483 0.0330308C37.7746 0.23565 38.2666 1.07507 38.064 2.11711C37.8325 3.36178 37.5141 4.57749 37.022 5.73532C36.7615 6.34317 36.8194 6.83525 37.1667 7.32732C37.5141 7.84834 37.9482 7.44311 38.3535 7.38522C49.3528 5.5327 59.3969 7.8194 68.3701 14.5058C69.5858 15.4031 69.7016 15.8373 69.1516 17.2557C68.3701 18.1819 67.5885 18.2977 66.5465 17.5162C65.0413 16.3873 63.4783 15.3742 61.8284 14.4769C58.5286 12.6823 55.0551 11.4665 51.3501 10.8297C51.0027 10.7719 50.6264 10.6561 50.3659 11.0324C49.2949 13.0296 48.3397 15.1137 47.2687 17.1109C46.9503 17.7188 47.0661 18.153 47.645 18.4714C47.7897 18.5582 47.9345 18.674 48.1082 18.7608C50.308 19.8318 51.3501 21.5686 51.2922 24.0579C51.2632 25.1868 51.5237 26.3446 51.4658 27.5024C51.379 29.0655 50.7422 30.2812 49.3239 31.0338C45.9083 32.8284 42.4927 34.623 39.0192 36.3019C37.9482 36.8229 36.8483 36.765 35.7484 36.4177C34.0406 35.8677 32.3039 35.3177 30.625 34.7099C29.7566 34.3915 29.2356 34.5941 28.7725 35.4046C27.9041 36.9387 26.9779 38.4439 26.0516 39.949C25.6174 40.6437 25.5306 41.3095 25.8779 42.091C26.4858 43.5093 27.0936 44.9566 27.6436 46.4039C27.8752 46.9539 28.2225 47.388 28.7146 47.7354C29.6987 48.4011 30.7118 49.0379 31.696 49.7326C32.2749 50.1379 32.738 50.1089 33.2301 49.5879C33.6643 49.1248 34.1564 48.6617 34.6195 48.1985C35.7773 47.0118 37.1378 46.7512 38.7008 47.1565C39.5113 47.3591 40.3218 47.5907 41.0744 47.8512C41.8848 48.1406 42.4638 47.938 42.8979 47.1854C43.8531 45.5934 44.8952 44.0882 45.8793 42.5252C46.6609 41.2516 47.5003 40.0069 49.1502 39.7175C50.4527 39.4859 51.7553 39.4859 53.0289 39.6885C54.1578 39.8622 55.1419 40.4411 55.7787 41.4542C56.8497 43.133 57.8628 44.8408 58.8759 46.5486C59.6864 47.9091 59.6864 49.2695 58.9628 50.6589C58.1233 52.2509 57.3418 53.9008 56.5313 55.4928C55.8077 56.9111 54.7077 57.8664 53.1157 58.2426C50.9159 58.7637 48.6871 59.3426 46.4872 59.8925C45.2425 60.2109 44.2005 61.5135 44.1137 62.7582C44.0847 63.1923 44.3452 63.4239 44.6347 63.6555C46.8056 65.2185 48.9765 66.7527 51.1764 68.2868C51.6395 68.6052 52.1026 68.5762 52.6237 68.3736C54.3025 67.7079 55.8656 66.8105 57.5444 66.1159C58.0365 65.9132 58.3838 65.5369 58.6444 65.1317C59.2233 64.2633 59.8311 63.395 60.3521 62.4977C61.3073 60.8767 63.3914 59.661 65.6492 60.6162C67.0096 61.1951 68.4569 61.5714 69.8463 62.0345C71.091 62.4977 72.3935 62.845 73.6382 63.3081C74.2171 63.5397 74.6513 63.4529 74.9986 62.9029C76.6775 60.2109 77.8353 57.3164 78.7037 54.306C78.9063 53.6114 78.5879 53.2351 78.0379 52.9167C76.5906 52.0193 75.2302 51.0352 74.2171 49.6169C73.3198 48.3722 73.5803 47.2144 74.8828 46.4618C75.9249 46.2013 76.7064 46.6065 77.3432 47.417C78.3853 48.7195 79.7168 49.5879 81.2509 50.3984C81.3088 50.0221 81.1061 49.8195 80.9614 49.5879C79.051 46.0565 77.98 42.3226 77.9511 38.2991C77.9511 37.4018 78.1537 36.6203 79.1089 36.3019C79.9194 36.0414 80.7009 36.1861 81.2798 36.8808C81.743 37.4308 81.8298 38.1255 81.8298 38.8201C81.8298 40.6437 82.264 42.4094 82.785 44.1172C83.3639 46.0276 84.2902 47.7933 85.419 49.4432C85.7085 49.8774 85.969 50.1379 86.3453 49.4721C87.4452 47.4749 88.4004 45.3908 88.6031 43.0751C88.8057 41.049 87.9663 39.3412 86.6058 37.8939C85.9111 37.1413 85.2164 36.4466 84.4638 35.7519C82.8139 34.2467 81.5114 32.5679 81.743 30.0207C80.7588 30.397 80.1509 31.0048 79.4852 31.4969C77.0538 33.7547 75.7512 36.5624 75.346 39.8332C75.2881 40.2964 75.2012 40.7595 75.1434 41.2226C74.9986 42.3805 74.3908 43.0462 73.204 43.1909C71.8435 42.9304 71.2067 42.1199 71.3804 40.7884C71.4673 39.949 71.4962 39.0807 71.6988 38.2412C71.9014 36.8808 72.3356 35.6072 72.8566 34.3336C73.6382 32.7416 74.5355 31.2364 75.7223 29.9049C76.1564 29.4128 76.0986 28.9786 75.8091 28.4576C74.7092 26.4893 73.4645 24.6657 72.0462 22.929C71.583 22.379 71.2646 21.8001 71.3225 21.0765C71.3515 20.5265 71.5251 20.0923 72.133 19.9476C73.0593 19.3398 73.8408 19.6292 74.5065 20.4107C76.1275 22.3501 77.6037 24.4052 78.7616 26.663C79.08 27.2998 79.3694 27.3577 79.9483 26.9814C80.5272 26.6051 81.164 26.3156 81.8008 26.113C83.827 25.4183 85.7664 27.0972 85.3033 29.2102C84.9849 30.7154 85.3612 31.8732 86.4611 32.9152C87.7057 34.0731 88.9794 35.173 90.0214 36.5334C92.4528 39.6885 92.5686 43.162 91.3818 46.7802C90.7161 48.8353 89.7898 50.8036 88.5741 52.5983C88.2847 53.0324 88.3136 53.2351 88.7188 53.5245C89.4135 54.0455 90.1082 54.5666 90.774 55.1165C91.5845 55.7823 91.7581 56.6506 91.2371 57.4032C90.7161 58.1558 89.7319 58.3295 88.8636 57.7216C87.8794 56.998 86.8953 56.2454 85.998 55.4349C85.5348 55.0007 85.0717 54.7692 84.4638 54.9139C84.3191 54.9428 84.1744 54.885 84.0296 54.9139C83.4218 55.0297 82.7271 54.3639 82.2929 54.856C81.9166 55.2902 81.9456 56.0138 81.743 56.5927C80.6141 60.0952 79.0221 63.4239 76.938 66.4632C76.5906 66.9842 76.5038 67.2447 77.1406 67.621C78.1247 68.2289 78.7616 69.1551 79.1668 70.2261C79.3115 70.6314 79.4852 70.7761 79.9194 70.7182C84.2902 70.3709 86.7505 72.6286 86.7795 76.9705C86.7795 77.0283 86.8084 77.1152 86.8374 77.2599C87.561 76.9415 88.2847 76.6231 89.0083 76.3336C92.0765 75.0311 95.2606 76.1021 96.6789 78.9098C98.1262 81.7465 97.0552 85.0463 94.1027 86.6672C86.1427 91.038 78.1537 95.322 70.2515 99.7796C67.3859 101.401 64.4624 101.893 61.2205 101.603C54.3893 101.024 47.5292 100.648 40.6981 100.185C39.2508 100.098 37.8035 100.04 36.3852 99.9243C35.8931 99.8954 35.4879 99.9822 35.1116 100.301C30.4803 103.89 25.82 107.45 21.1598 111.01C20.8124 111.01 20.4362 111.01 20.0888 111.01C18.8731 110.142 18.6994 109.679 19.2494 108.376C19.452 107.826 19.8572 107.508 20.2914 107.19C24.5464 103.89 28.8593 100.677 33.0854 97.3771C34.0695 96.5956 35.0537 96.3061 36.3562 96.393C40.2349 96.6535 44.1137 96.8561 47.9924 97.1455C52.6526 97.4929 57.3418 97.6955 62.002 98.1586C64.144 98.3613 66.1702 98.0139 68.1385 96.914C76.0117 92.5142 83.9428 88.2013 91.8739 83.9174C92.1055 83.8016 92.3081 83.6858 92.5397 83.5411C93.5817 82.8464 93.958 81.7754 93.5238 80.7334C93.1475 79.7492 92.1923 79.2861 90.9766 79.4308C87.2716 80.936 83.6534 82.6438 79.9773 84.2358C79.8325 84.2937 79.7168 84.3805 79.601 84.4095C78.1537 84.7279 77.5169 85.712 77.4301 87.1014C76.2143 90.4302 73.5803 92.2827 70.0489 92.3116C69.3253 92.3116 68.6016 92.3116 67.9069 92.3116C63.5072 92.3116 59.1075 92.2827 54.7077 92.3406C53.3473 92.3406 51.9869 92.5432 50.6264 92.8326C50.1922 92.9195 49.787 93.0063 49.3528 93.0642C48.166 93.2379 47.2398 92.7169 46.9793 91.7038C46.7188 90.6907 47.3556 89.6486 48.5134 89.3302C50.6264 88.7803 52.7684 88.4908 54.9393 88.4619C59.918 88.4329 64.8966 88.4619 69.8752 88.4619C71.1199 88.4619 72.2488 88.1435 73.0593 87.1593C73.9566 86.0883 74.2171 84.8147 73.6671 83.5122C73.0882 82.1517 71.9883 81.457 70.5699 81.3123C69.7595 81.2254 68.92 81.2833 68.0806 81.2833C65.7939 81.2833 63.5362 81.1676 61.2784 81.3123C56.0392 81.6307 51.1185 80.3281 46.2846 78.5046C44.4321 77.8099 42.5506 77.202 40.6402 76.6231C39.3087 76.2468 38.0061 76.2468 36.7036 76.6231C34.5616 77.231 32.3907 77.8678 30.2777 78.5335C28.4251 79.1124 26.9489 80.1834 26.0227 81.9491C23.9096 85.9436 20.6677 88.7803 16.8758 91.0959C14.4155 92.6011 12.0419 94.222 9.6105 95.7851C8.85791 96.0167 8.25005 96.4508 7.46852 96.5956Z" fill="#000A21"/>
<path d="M7.46853 96.5957C10.9999 94.28 14.5023 91.9644 18.0626 89.7066C21.2466 87.6804 23.7649 85.1043 25.5595 81.7755C26.6305 79.7783 28.2515 78.5336 30.4224 77.9258C32.3618 77.4047 34.3011 76.8258 36.2115 76.218C37.9772 75.668 39.656 75.7548 41.3928 76.3337C45.3583 77.6363 49.237 79.1415 53.2894 80.1835C54.9393 80.5887 56.6182 80.7624 58.326 80.7624C62.1757 80.7624 66.0544 80.7624 69.9042 80.7624C72.4225 80.7624 74.1592 82.3544 74.1592 84.6701C74.1592 86.9568 72.4225 88.5488 69.8753 88.5488C64.8966 88.5488 59.918 88.5488 54.9393 88.5777C52.7973 88.5777 50.7133 88.8961 48.6292 89.3882C47.5003 89.6487 46.8924 90.4303 47.0951 91.3565C47.2977 92.3117 48.1661 92.8038 49.2949 92.5433C52.3053 91.8486 55.3735 91.7617 58.4417 91.7907C61.5679 91.8196 64.7229 91.8196 67.8491 91.8486C67.8491 92.3117 67.4728 92.4275 67.1833 92.6301C64.2888 94.6274 61.1047 95.3221 57.6313 94.8879C54.8525 94.5405 52.0448 94.4826 49.237 94.28C46.4872 94.0774 43.7084 93.9037 40.9586 93.73C38.2956 93.5564 35.6326 93.3538 32.9986 93.209C32.1591 93.1511 31.4644 93.4406 30.7987 93.9327C26.37 97.3482 21.9124 100.735 17.4837 104.122C17.0785 104.44 16.7022 104.903 16.0943 104.816C13.5471 102.298 11.0288 99.8086 8.48162 97.2904C8.22111 97.0299 7.9606 96.6246 7.46853 96.5957Z" fill="#FECDBF"/>
<path d="M16.1232 104.845C21.1019 101.053 26.1095 97.2613 31.0881 93.4115C32.1591 92.5721 33.3459 92.8615 34.3879 93.0063C35.8062 93.2089 37.2535 93.151 38.6719 93.2957C41.4506 93.6141 44.2584 93.6141 47.0371 93.7878C50.6843 94.0483 54.3314 94.2799 57.9496 94.6562C61.6547 95.0324 64.8966 93.9904 67.878 91.8484C68.949 91.8195 70.0489 91.8774 71.1199 91.7326C74.1302 91.3274 76.0406 89.5617 77.1695 86.8408C78.4431 85.5672 80.1799 85.0173 81.685 84.12C84.6954 82.3543 87.8215 80.8202 90.8318 79.0255C92.0765 78.6782 93.1475 79.1413 93.6975 80.2412C94.2185 81.2833 93.9869 82.5279 93.0896 83.2805C92.8001 83.541 92.4239 83.7147 92.0765 83.9173C83.9428 88.375 75.7801 92.8326 67.6464 97.3192C66.286 98.0717 64.8676 98.448 63.3046 98.3612C57.3997 97.9559 51.4948 97.5797 45.5899 97.1744C42.2032 96.9429 38.8166 96.7113 35.4299 96.4797C34.9089 96.4508 34.4169 96.5666 34.0116 96.885C29.0619 100.677 24.1122 104.469 19.1625 108.261C18.6704 107.219 17.6573 106.64 16.9337 105.8C16.7021 105.482 16.4127 105.163 16.1232 104.845Z" fill="#FCAF9F"/>
<path d="M72.133 19.8608C71.2646 20.7871 71.2357 21.5107 72.0751 22.4948C73.6382 24.3474 74.9697 26.3736 76.1275 28.4866C76.4459 29.0655 76.5038 29.4418 75.9828 29.9628C74.7381 31.1785 73.9276 32.7416 73.1171 34.2468C72.4803 34.2468 72.5672 33.6678 72.4514 33.3205C71.0331 29.355 69.0937 25.6789 66.4596 22.3791C62.4362 17.3136 57.3997 13.5796 51.379 11.1771C50.9737 11.0034 50.5396 11.0324 50.1343 10.8298C50.2791 10.1061 50.8001 10.4245 51.1474 10.4824C56.7339 11.4087 61.8283 13.6085 66.3439 17.0531C67.2991 17.7767 68.1674 17.9793 69.1516 17.2557C70.3094 17.9504 71.062 19.1082 72.133 19.8608Z" fill="#8CC537"/>
<path d="M50.1343 10.8298C50.4238 10.6561 50.6843 10.5982 51.0606 10.7429C55.0551 12.3349 58.6733 14.5058 61.9731 17.3136C66.1123 20.8449 69.1516 25.0999 71.4094 29.9917C72.0462 31.3811 72.5672 32.8284 73.1461 34.2467C72.7698 35.5493 72.3646 36.8519 71.9883 38.1255C71.2067 40.6148 70.3094 43.1041 70.3673 45.7671C70.3963 48.2275 71.1199 50.4563 72.7409 52.3088C73.6671 53.3508 73.8408 54.335 73.3487 55.6376C72.6251 57.548 72.0462 59.5163 71.0331 61.3109C70.8015 61.7451 70.6278 62.3819 69.8752 62.1214C68.428 61.6582 66.9807 61.2241 65.5624 60.7609C63.4493 60.0952 61.7126 60.5004 60.7284 62.4398C59.3391 65.2185 57.0523 66.6079 54.3604 67.8815C52.421 68.8078 51.0895 68.7789 49.4686 67.3895C47.9055 66.029 46.082 64.9291 44.3452 63.7713C43.7374 63.366 43.6505 62.9608 43.8821 62.2371C44.4321 60.4715 45.4452 59.5452 47.3266 59.2558C49.3528 58.9374 51.3211 58.2716 53.3184 57.8085C54.592 57.4901 55.4893 56.7664 56.0971 55.6086C56.9655 53.9008 57.8339 52.193 58.7022 50.5142C59.4259 49.1537 59.3969 47.8222 58.5865 46.4907C57.6313 44.9277 56.6761 43.3646 55.7208 41.7726C54.9104 40.4701 53.7525 39.8333 52.2184 39.8333C51.7264 39.8333 51.2053 39.8622 50.7133 39.8333C48.7739 39.6885 47.4135 40.5279 46.4293 42.1778C45.3873 43.9146 44.2005 45.5355 43.1874 47.3012C42.6085 48.2854 42.0006 48.488 40.9875 48.0538C40.235 47.7354 39.3955 47.5617 38.614 47.3302C37.1667 46.9249 35.9221 47.2433 34.8221 48.2854C34.6774 48.4011 34.5616 48.5459 34.4458 48.6617C32.5644 50.5431 32.6512 50.3984 30.3934 49.1537C28.3673 48.0249 27.441 46.2592 26.4858 44.2619C25.328 41.8305 25.299 39.8622 27.0358 37.7781C27.7594 36.9097 28.2804 35.8388 28.8304 34.8257C29.2067 34.131 29.6119 33.9573 30.3934 34.2178C32.1591 34.8546 33.9538 35.3756 35.7194 36.0124C37.0509 36.4756 38.2956 36.4177 39.5692 35.7519C42.6953 34.102 45.8504 32.51 48.9765 30.8891C50.6264 30.0496 51.4369 28.7181 51.2922 26.8656C51.2053 25.5052 51.1474 24.1158 51.0317 22.7553C50.9159 21.2791 50.1922 20.2081 48.9186 19.4266C46.603 17.9793 46.603 17.9793 47.8187 15.49C48.5423 13.9848 49.3528 12.4218 50.1343 10.8298Z" fill="#98D43B"/>
<path d="M31.2907 65.2185C32.3038 64.0896 32.3328 62.8739 31.667 61.5424C30.104 58.3005 27.7883 55.7823 24.5754 54.1324C23.2439 53.4666 22.7518 53.5534 21.7966 54.7113C20.4361 54.7402 19.1625 54.5086 17.9468 53.9008C17.6574 52.5403 17.2232 52.193 15.8917 52.2219C14.3576 52.2509 12.9103 52.6851 11.4341 53.1772C10.4499 49.4432 10.2473 45.6513 10.5657 41.8884C10.9999 36.5624 12.6208 31.5837 15.3996 27.0103C15.5154 26.8367 15.6312 26.663 15.7759 26.4893C16.4127 26.4314 16.8469 26.8656 17.339 27.1261C22.2597 30.0207 29.9882 29.0944 33.838 25.1578C35.6036 23.3632 36.472 21.1344 36.8483 18.7029C37.022 17.603 37.2246 16.5031 37.3693 15.4031C37.543 14.0427 37.8903 12.7112 37.8035 11.3218C37.7746 10.8587 38.093 10.8008 38.4114 10.7429C40.9586 10.2219 43.5347 9.99031 46.1398 10.0193C46.7477 10.0193 46.8056 10.2219 46.5451 10.7429C45.6767 12.4796 44.8373 14.2453 43.9979 15.982C42.9558 18.153 43.4479 20.0923 45.5609 21.2501C47.124 22.1185 47.8766 23.1316 47.9345 25.0131C47.9924 27.734 48.166 27.734 45.7057 28.9786C43.2163 30.2522 40.6981 31.5258 38.2087 32.8573C37.6588 33.1468 37.1667 33.2047 36.5878 33.0021C34.7642 32.3653 32.9117 31.7574 31.0592 31.1785C28.9172 30.4838 27.3541 31.0917 26.1674 33.0021C24.9806 34.9704 23.8228 36.9676 22.636 38.9359C21.9124 40.1227 21.8255 41.3673 22.3465 42.6699C23.1281 44.5514 23.8807 46.4618 24.6622 48.3722C24.7201 48.5169 24.749 48.6616 24.8359 48.7485C26.8042 51.122 29.2935 52.8009 32.2459 53.6692C33.3748 54.0166 34.6195 53.4087 35.3142 52.4246C36.6457 50.5431 38.1508 50.4563 40.206 51.2378C42.8979 52.2509 44.2584 51.643 45.8504 49.1827C46.9793 47.417 48.1081 45.6513 49.237 43.9146C49.9607 42.7857 52.4789 42.8146 53.1736 43.9435C53.9841 45.275 54.7656 46.6065 55.6051 47.909C55.9235 48.4301 55.9813 48.8353 55.6919 49.3853C54.8814 50.8615 54.1288 52.3956 53.3762 53.9008C53.1157 54.4508 52.7394 54.7113 52.1605 54.856C49.6423 55.4639 47.124 56.1296 44.6057 56.7375C43.2453 57.0559 42.319 57.8953 41.7401 59.1399C41.3928 59.9215 41.0454 60.732 40.727 61.5135C40.0323 63.3081 40.4376 64.987 42.0006 66.1158C44.5478 67.9684 47.124 69.734 49.7001 71.5287C50.858 72.3391 52.1316 72.426 53.4052 71.8471C55.4893 70.9208 57.5155 69.9367 59.5706 68.9815C60.3232 68.6341 60.8731 68.1131 61.3363 67.4184C61.9441 66.4921 62.5809 65.5659 63.1309 64.5817C63.5361 63.8581 63.9703 63.6265 64.7808 63.9449C65.9386 64.408 67.1544 64.7843 68.3411 65.2185C68.6306 65.7106 68.2253 66.029 67.9938 66.3763C64.9834 70.6024 61.2205 73.989 56.7918 76.652C56.2129 76.9994 55.6051 77.3467 54.8814 77.1441C53.5499 77.0573 52.3053 76.5652 51.0316 76.16C48.0503 75.1758 45.0978 74.1917 42.1453 73.1786C39.8876 72.397 37.6298 72.397 35.3721 73.0917C33.1433 73.7864 30.8855 74.4232 28.6567 75.089C28.2804 75.2048 27.9909 75.2337 27.6436 75.0021C26.3121 74.1627 24.9517 73.3522 23.7649 72.2812C23.7649 72.2523 23.7359 72.1944 23.7359 72.1655C24.6622 69.8209 27.8462 67.9394 30.3066 68.2289C31.7539 68.4025 32.1012 67.9394 31.5802 66.6079C31.4065 66.1737 30.9723 65.7685 31.2907 65.2185Z" fill="#64B8FB"/>
<path d="M19.3362 21.6845C17.6284 21.3371 16.2101 20.4398 14.9365 19.3688C14.9365 18.9925 15.2259 19.0504 15.3996 18.9636C17.0785 18.2399 18.2363 16.9953 18.931 15.3454C19.3652 14.2744 19.7704 13.2034 20.1756 12.1324C21.2756 9.3247 23.2728 7.6748 26.2542 7.26956C27.9331 7.038 29.6119 6.95116 31.2907 7.32746C31.8118 8.0511 31.6091 8.80368 31.2907 9.52732C29.3514 12.4219 26.6884 14.4191 23.6491 15.9822C23.3596 16.1269 23.0702 16.2427 22.7807 16.4164C21.7966 16.9374 21.4782 17.7768 21.8834 18.6452C22.2887 19.4846 23.157 19.7741 24.1991 19.3399C25.7911 18.6741 27.2384 17.7189 28.6856 16.8216C28.9172 17.5163 28.4251 17.9215 28.0199 18.2689C25.7911 20.2951 23.186 21.4529 20.1756 21.6555C19.8862 21.7134 19.6257 21.8582 19.3362 21.6845Z" fill="#A2E340"/>
<path d="M69.8174 62.1793C70.2515 62.1793 70.4252 61.8609 70.5989 61.5425C71.7857 59.4005 72.5093 57.0559 73.3198 54.7403C73.6092 53.8719 73.175 53.3509 72.7119 52.8588C70.0779 49.8774 69.6147 46.4039 70.3384 42.6699C70.6568 41.1069 71.062 39.5149 71.9593 38.1544C71.8725 38.9649 71.7857 39.8043 71.6988 40.6148C71.5541 42.0621 71.9304 42.5831 73.3198 42.9304C73.5803 43.1331 73.725 43.4225 73.7829 43.7409C73.9566 44.754 74.3618 45.7092 74.8539 46.6065C73.6671 47.5328 73.5513 48.3433 74.4776 49.5011C75.5775 50.8615 76.909 51.9325 78.4431 52.8009C79.0221 53.1482 79.2247 53.4088 79.0221 54.1324C78.1247 57.2875 76.8222 60.2978 75.1433 63.1055C74.796 63.6555 74.5065 63.8292 73.8697 63.5976C72.5382 63.1055 71.1778 62.6424 69.8174 62.1793Z" fill="#8CC537"/>
<path d="M74.8539 46.6066C73.8119 46.0855 73.8987 44.9567 73.5513 44.0883C73.4066 43.741 73.3777 43.3357 73.3198 42.9594C74.3908 42.7568 74.8539 42.0911 74.9118 41.0201C75.1144 37.7782 76.0407 34.8257 78.2116 32.3364C78.5589 31.9311 78.9063 31.497 79.3984 31.2365C79.8904 31.2943 79.8325 31.6706 79.7746 31.9601C79.3405 34.131 80.4983 35.5783 82.0035 36.8808C83.5955 38.2702 85.0427 39.7465 85.9111 41.6858C87.04 44.1462 86.6637 46.6066 85.9401 49.038C85.8532 49.3564 85.6796 49.6459 85.2743 49.588C83.0744 46.6355 81.9456 43.2489 81.5693 39.6017C81.5114 39.0518 81.5114 38.5307 81.4535 37.9808C81.3088 36.794 80.643 36.2151 79.6299 36.3309C78.6747 36.4467 78.2116 37.1124 78.2405 38.2992C78.2984 40.5859 78.7037 42.7857 79.3694 44.9856C80.0062 47.0118 80.9325 48.9222 82.2061 50.9774C81.0772 50.6011 80.2957 50.1379 79.572 49.6459C78.6747 49.038 77.8063 48.3723 77.1695 47.5039C76.5327 46.7513 75.8091 46.4039 74.8539 46.6066Z" fill="#A2E340"/>
<path d="M17.9468 53.9008C19.2783 54.0165 20.523 54.306 21.7966 54.7112C21.594 55.8112 22.0281 56.5348 23.0412 57.0269C24.4017 57.6926 25.6174 58.561 26.5437 59.7478C26.4858 60.4135 25.9648 60.2977 25.5885 60.2688C23.7938 60.1241 22.5202 60.9924 21.3335 62.2081C20.0309 63.5396 18.8441 64.9869 17.1942 65.9711C14.4155 67.621 11.5788 67.4184 8.68422 66.3474C8.45266 66.2605 8.19215 66.1737 8.27899 65.8263C11.5209 63.366 15.2259 62.295 19.2204 61.9766C19.4809 61.9476 19.7125 61.9766 19.973 61.9476C20.9861 61.8608 21.6229 61.195 21.594 60.2688C21.565 59.3425 20.8993 58.7057 19.8862 58.7057C17.2232 58.7347 14.647 59.2268 12.1577 60.0951C10.392 60.703 8.71317 61.5713 7.09222 62.5844C7.61324 59.632 11.0288 56.3611 14.2707 55.6664C14.7917 55.5507 15.3417 55.4638 15.8627 55.4638C17.0206 55.4349 17.7442 55.0007 17.9468 53.9008Z" fill="#98D43B"/>
<path d="M37.3404 15.3741C37.3983 18.5582 36.8483 21.5685 34.9379 24.2315C33.0275 26.8945 30.3066 28.197 27.2384 28.776C24.228 29.3259 21.2466 29.2101 18.381 27.9365C17.4548 27.5313 16.6153 26.9813 15.7759 26.4314C16.8758 24.4631 16.8758 24.492 18.9889 25.013C23.2728 26.0261 27.3831 25.4762 31.2329 23.3921C34.0406 21.858 35.8931 19.4844 36.9351 16.4741C37.0509 16.1267 37.1957 15.7504 37.3404 15.3741Z" fill="#31A6FA"/>
<path d="M85.2454 49.588C86.1137 48.6907 86.0848 47.475 86.2585 46.375C86.6926 43.5094 85.7085 41.049 83.7691 38.9071C82.7271 37.7492 81.3956 36.9677 80.4693 35.6941C79.601 34.4784 79.0799 33.2916 79.572 31.7864C79.6299 31.5838 79.601 31.3523 79.4273 31.2075C80.122 30.5128 80.9325 29.9918 82.0035 29.5287C81.6561 32.6259 83.4507 34.5073 85.448 36.273C87.04 37.7203 88.4873 39.2544 88.8346 41.5122C89.0083 42.6121 88.8636 43.6831 88.6031 44.7251C88.111 46.7803 87.1558 48.6328 86.0848 50.4564C85.6217 50.2827 85.419 49.9643 85.2454 49.588Z" fill="#98D43B"/>
<path d="M8.30795 65.8264C11.8683 67.5052 15.8627 67.3316 18.6994 64.437C19.6546 63.4818 20.6388 62.4977 21.594 61.5424C22.636 60.5004 23.8228 59.8636 25.328 59.9794C25.7332 60.0083 26.1963 60.1531 26.5147 59.7189C27.3252 60.4136 27.7883 61.3398 28.4541 62.4108C25.2411 62.1503 23.3018 64.0028 21.4782 66.0869C19.5967 68.2868 17.3679 69.7341 14.2997 69.2709C11.9261 68.9236 9.78417 67.9684 7.81587 66.6948C7.03434 66.2027 8.10533 66.1158 8.30795 65.8264Z" fill="#8CC537"/>
<path d="M54.8525 77.1441C56.2708 76.9125 57.2839 75.9573 58.4417 75.2337C62.1757 72.8312 65.215 69.7051 67.8201 66.1448C68.0227 65.8553 68.3122 65.5948 68.3122 65.2185C69.7016 65.6527 71.1199 66.0869 72.5093 66.55C72.5093 67.0421 72.1619 67.2736 71.9014 67.5631C68.4569 71.5865 64.3177 74.6258 59.5127 76.8836C57.9786 77.6362 56.4445 77.5493 54.8525 77.1441Z" fill="#31A6FA"/>
<path d="M19.3362 21.6843C21.3914 21.279 23.5044 20.9606 25.3569 19.8607C26.6595 19.0792 28.0489 18.3555 28.7146 16.8214C30.8855 15.1426 32.8538 13.29 34.4169 10.9165C34.88 14.5637 32.9986 18.8187 29.7566 20.4975C26.4279 22.2342 22.9834 22.8421 19.3362 21.6843Z" fill="#8CC537"/>
<path d="M74.275 78.7072C76.0406 77.2021 77.6905 75.7258 79.3694 74.3364C80.5272 73.4102 81.9166 73.526 82.8429 74.568C83.7402 75.5522 83.6244 76.8547 82.756 78.0125C81.3087 79.9229 79.1378 80.5308 77.1406 81.4571C76.7932 81.6307 76.6485 81.4571 76.4748 81.1676C75.9828 80.2124 75.2012 79.4598 74.275 78.7072Z" fill="#FCAF9F"/>
<path d="M65.244 77.5204C67.4728 76.0732 69.3832 74.6838 71.1199 73.0628C72.0751 72.1655 73.0014 71.2682 73.8408 70.284C74.3618 69.6762 74.7381 69.7341 75.2881 70.1683C76.4459 71.0656 76.5327 72.4839 75.4328 73.4391C74.9986 73.8154 74.5644 74.1917 74.1303 74.568C72.9435 75.5521 71.9014 76.9705 70.541 77.4336C69.0069 77.9257 67.2412 77.5204 65.244 77.5204Z" fill="#F79E8D"/>
<path d="M31.2908 65.2185C31.5223 65.8264 31.7828 66.4053 31.9854 67.0131C32.3617 68.1131 31.7539 68.8657 30.6829 68.6051C28.6856 68.1131 27.1226 68.7788 25.7621 70.1971C25.0964 70.8918 24.4306 71.5865 23.7359 72.2812C23.0991 71.7602 22.1439 71.355 21.9124 70.6892C21.6229 69.8787 22.8386 69.5893 23.3018 68.9814C23.9096 68.1999 24.6622 67.5052 25.3569 66.7816C26.2832 65.8553 27.3252 65.3922 28.6567 65.7685C29.6119 66.0579 30.4803 65.8264 31.2908 65.2185Z" fill="#31A6FA"/>
<path d="M90.8318 79.0545C90.745 79.6913 90.1372 79.7781 89.7319 80.0097C85.5637 82.3253 81.3666 84.5831 77.1695 86.8408C77.1695 85.4225 77.7774 84.612 79.1957 84.0331C82.785 82.5858 86.2874 80.9359 89.8477 79.3729C90.1661 79.2571 90.4556 79.0255 90.8318 79.0545Z" fill="#FDCCBE"/>
<path d="M31.2907 9.55619C31.2907 8.83255 31.2907 8.07996 31.2907 7.35632C31.5513 7.35632 31.7828 7.35632 32.0433 7.35632C32.5354 7.35632 32.7091 7.53 32.4196 7.99313C32.0433 8.54309 31.7828 9.12201 31.2907 9.55619Z" fill="#88BF35"/>
</svg>
