<svg width="45" height="45" viewBox="0 0 45 45" fill="none" xmlns="http://www.w3.org/2000/svg">
<circle cx="22.5" cy="22.5" r="22.5" fill="#F0FAFC"/>
<path d="M28.8462 11C29.1288 11 29.4015 11.099 29.6127 11.278C29.8239 11.457 29.9589 11.7037 29.9919 11.9713L30 12.1V16.5C30 16.7694 29.8962 17.0295 29.7084 17.2308C29.5206 17.4321 29.2618 17.5608 28.9812 17.5923L28.8462 17.6H25.3846V18.7H28.8462C29.0104 18.7001 29.1728 18.7336 29.3223 18.7982C29.4719 18.8629 29.6053 18.9573 29.7135 19.0751C29.8218 19.1928 29.9024 19.3313 29.95 19.4812C29.9976 19.631 30.0111 19.7889 29.9896 19.9441L29.9665 20.0673L28.8127 24.4673C28.7554 24.6846 28.6299 24.88 28.453 25.0274C28.2761 25.1748 28.0562 25.2672 27.8227 25.2923L27.6923 25.3H25.3846V31.9C25.3846 32.1694 25.2808 32.4295 25.093 32.6308C24.9052 32.8321 24.6464 32.9608 24.3658 32.9923L24.2308 33H19.6154C19.3328 33 19.06 32.901 18.8488 32.722C18.6376 32.543 18.5027 32.2963 18.4696 32.0287L18.4615 31.9V25.3H16.1538C15.8712 25.3 15.5985 25.201 15.3873 25.022C15.1761 24.843 15.0411 24.5963 15.0081 24.3287L15 24.2V19.8C15 19.5306 15.1038 19.2705 15.2916 19.0692C15.4794 18.8679 15.7382 18.7392 16.0188 18.7077L16.1538 18.7H18.4615V17.6C18.4615 15.8924 19.1557 14.2512 20.3982 13.0213C21.6408 11.7914 23.3351 11.0684 25.125 11.0044L25.3846 11H28.8462Z" fill="#000A21"/>
</svg>
