<svg width="24" height="24" viewBox="0 0 24 24" fill="none" xmlns="http://www.w3.org/2000/svg">
<circle cx="11.6663" cy="11.6363" r="11.6363" fill="#96BCC5"/>
<path d="M14.9483 5.68896C15.0945 5.68898 15.2355 5.74014 15.3448 5.83273C15.454 5.92532 15.5238 6.05291 15.5409 6.19129L15.545 6.25785V8.53338C15.545 8.67272 15.4914 8.80721 15.3942 8.91133C15.2971 9.01546 15.1633 9.08198 15.0181 9.09828L14.9483 9.10227H13.1581V9.67115H14.9483C15.0333 9.67118 15.1172 9.6885 15.1946 9.72195C15.2719 9.7554 15.3409 9.80422 15.3969 9.86513C15.4529 9.92603 15.4946 9.99764 15.5192 10.0751C15.5438 10.1526 15.5508 10.2343 15.5397 10.3146L15.5277 10.3783L14.931 12.6538C14.9014 12.7662 14.8365 12.8672 14.745 12.9435C14.6535 13.0197 14.5398 13.0675 14.419 13.0805L14.3516 13.0845H13.1581V16.4978C13.1581 16.6371 13.1044 16.7716 13.0073 16.8757C12.9102 16.9798 12.7764 17.0463 12.6312 17.0627L12.5614 17.0666H10.1745C10.0283 17.0666 9.88723 17.0155 9.77801 16.9229C9.66878 16.8303 9.59901 16.7027 9.58191 16.5643L9.57773 16.4978V13.0845H8.38427C8.23811 13.0844 8.09704 13.0333 7.98781 12.9407C7.87859 12.8481 7.80881 12.7205 7.79171 12.5821L7.78754 12.5156V10.24C7.78755 10.1007 7.84121 9.96621 7.93834 9.86208C8.03546 9.75796 8.16929 9.69143 8.31445 9.67513L8.38427 9.67115H9.57773V9.10227C9.57769 8.21914 9.9367 7.37038 10.5793 6.7343C11.2219 6.09823 12.0981 5.72436 13.0238 5.69124L13.1581 5.68896H14.9483Z" fill="#000A21"/>
</svg>
