<svg width="21" height="20" viewBox="0 0 21 20" fill="none" xmlns="http://www.w3.org/2000/svg">
<path d="M1.375 6.95853C1.375 6.68963 1.48182 6.43174 1.67196 6.2416C1.8621 6.05146 2.11999 5.94464 2.38889 5.94464H18.6111C18.88 5.94464 19.1379 6.05146 19.328 6.2416C19.5182 6.43174 19.625 6.68963 19.625 6.95853V8.98631C19.625 9.25521 19.5182 9.51309 19.328 9.70324C19.1379 9.89338 18.88 10.0002 18.6111 10.0002H2.38889C2.11999 10.0002 1.8621 9.89338 1.67196 9.70324C1.48182 9.51309 1.375 9.25521 1.375 8.98631V6.95853Z" stroke="#000A21" stroke-width="1.5" stroke-linecap="round" stroke-linejoin="round"/>
<path d="M10.5 5.94464V19.1252" stroke="#000A21" stroke-width="1.5" stroke-linecap="round" stroke-linejoin="round"/>
<path d="M17.5973 10.0002V17.0974C17.5973 17.6352 17.3836 18.151 17.0034 18.5313C16.6231 18.9115 16.1073 19.1252 15.5695 19.1252H5.43061C4.89281 19.1252 4.37704 18.9115 3.99675 18.5313C3.61647 18.151 3.40283 17.6352 3.40283 17.0974V10.0002" stroke="#000A21" stroke-width="1.5" stroke-linecap="round" stroke-linejoin="round"/>
<path d="M5.93755 5.94464C5.2653 5.94464 4.62059 5.67759 4.14524 5.20224C3.66988 4.72689 3.40283 4.08217 3.40283 3.40992C3.40283 2.73767 3.66988 2.09295 4.14524 1.6176C4.62059 1.14225 5.2653 0.875199 5.93755 0.875199C6.91564 0.858158 7.87411 1.33273 8.68797 2.23701C9.50183 3.1413 10.1333 4.43334 10.5001 5.94464C10.8668 4.43334 11.4983 3.1413 12.3121 2.23701C13.126 1.33273 14.0845 0.858158 15.0626 0.875199C15.7348 0.875199 16.3795 1.14225 16.8549 1.6176C17.3302 2.09295 17.5973 2.73767 17.5973 3.40992C17.5973 4.08217 17.3302 4.72689 16.8549 5.20224C16.3795 5.67759 15.7348 5.94464 15.0626 5.94464" stroke="#000A21" stroke-width="1.5" stroke-linecap="round" stroke-linejoin="round"/>
</svg>
