<svg width="29" height="30" viewBox="0 0 29 30" fill="none" xmlns="http://www.w3.org/2000/svg">
<path d="M13.5847 0.62796C14.1949 0.62796 14.8051 0.62796 15.4077 0.62796C15.8501 0.681353 16.2925 0.65847 16.7349 0.711863C17.6578 0.826277 18.5426 1.07036 19.4122 1.39072C19.5113 1.42885 19.5952 1.48988 19.641 1.59666C19.6868 1.74158 19.6791 1.89414 19.6791 2.04669C19.6791 10.8413 19.6791 19.6435 19.6791 28.4381C19.6791 28.5906 19.6868 28.7432 19.641 28.8881C19.5724 29.0559 19.4045 29.094 19.252 29.1474C18.0316 29.5593 16.7959 29.8339 15.4916 29.8568C14.0805 29.8797 12.6694 29.9102 11.2736 29.5898C10.7244 29.4678 10.1904 29.3076 9.66415 29.1169C9.54211 29.0711 9.41244 29.0254 9.35142 28.8881C9.29802 28.7432 9.30565 28.5906 9.30565 28.4381C9.30565 19.6282 9.30565 10.826 9.30565 2.01618C9.30565 1.87125 9.29802 1.73396 9.34379 1.58903C9.40481 1.4136 9.57262 1.37546 9.72517 1.32207C10.9303 0.902553 12.1584 0.620333 13.4474 0.643215C13.4932 0.65847 13.5466 0.65847 13.5847 0.62796Z" fill="#EFEFEF"/>
<path d="M19.5876 28.9339C19.5876 28.8423 19.58 28.7432 19.58 28.6516C19.58 19.7121 19.58 10.7726 19.58 1.83311C19.58 1.74158 19.5876 1.64242 19.5876 1.55089C19.702 1.45936 19.8088 1.54327 19.9079 1.5814C21.6165 2.26789 23.1497 3.22896 24.4997 4.48751C25.7812 5.68503 26.8338 7.058 27.6194 8.62927C28.344 10.0709 28.8398 11.5964 29.0381 13.2058C29.0763 13.488 29.0534 13.7703 29.1068 14.0525C29.1068 14.1059 29.1068 14.1669 29.1068 14.2203C29.0686 14.2508 29.0763 14.2966 29.0763 14.3347C29.0763 14.3728 29.0686 14.4186 29.1068 14.4491C29.1068 14.5254 29.1068 14.6017 29.1068 14.6779C29.061 14.7923 29.061 14.9068 29.1068 15.0212C29.1068 15.1737 29.1068 15.3263 29.1068 15.4788C29.061 15.6314 29.061 15.7839 29.1068 15.9365C29.1068 15.9899 29.1068 16.0509 29.1068 16.1043C29.061 16.1577 29.061 16.2187 29.1068 16.2721C29.1068 16.3484 29.1068 16.4246 29.1068 16.5009C29.0381 17.195 28.9695 17.8968 28.8093 18.5756C28.2754 20.8258 27.2838 22.8471 25.7964 24.6243C24.4845 26.1879 22.9285 27.4541 21.0978 28.3694C20.7012 28.5677 20.2969 28.766 19.8774 28.9186C19.7859 28.9491 19.6867 29.0178 19.5876 28.9339Z" fill="#D70027"/>
<path d="M9.40474 28.9339C3.6917 26.821 -0.129712 21.3215 -0.114456 15.2119C-0.0992013 9.10982 3.72221 3.61797 9.40474 1.5509C9.40474 1.65769 9.41237 1.75685 9.41237 1.86363C9.41237 10.7803 9.41237 19.7045 9.41237 28.6211C9.41237 28.7203 9.41237 28.8271 9.40474 28.9339Z" fill="#0052B3"/>
</svg>
