<svg width="106" height="87" viewBox="0 0 106 87" fill="none" xmlns="http://www.w3.org/2000/svg">
<path d="M67.8361 67.8048C68.44 68.9575 68.3851 69.3967 67.4519 70.3299C63.6094 74.1724 59.7669 78.0149 55.9244 81.8574C54.0855 83.6963 51.9996 83.6963 50.1607 81.8574C42.7776 74.4743 35.3945 67.1186 28.0388 59.7081C27.5174 59.1866 26.9959 58.967 26.2548 58.967C23.2357 58.967 20.2715 58.5005 17.3073 57.8966C16.2918 57.7045 15.7429 57.1281 15.688 56.0852C15.7977 54.9599 16.2918 54.5207 17.5269 54.5756C18.9266 54.658 20.299 55.0697 21.6713 55.2343C22.4123 55.3167 23.1534 55.399 23.9219 55.4539C24.114 55.1794 23.867 55.0148 23.7572 54.8226C21.5889 50.8978 20.8479 46.7534 21.5615 42.3345C21.7262 41.319 21.534 41.0994 20.4911 41.1269C18.5698 41.2092 16.9505 41.8679 16.0448 43.7068C15.9624 43.899 15.8526 44.0636 15.7154 44.2283C15.1665 44.9694 14.2882 45.1889 13.5471 44.8321C12.7238 44.4204 12.3121 43.5696 12.6414 42.6913C13.0257 41.5935 13.5471 40.5231 14.4529 39.7546C15.1665 39.1782 15.5233 38.4646 15.7154 37.6137C16.7309 33.2223 17.8288 28.8309 18.8992 24.4395C19.009 24.0003 19.1188 23.5886 19.2285 23.1495C19.4481 22.3261 19.8873 21.6948 20.7655 21.5301C21.6438 21.3929 22.2477 21.832 22.7417 22.5457C23.5651 23.7533 23.8121 23.8082 25.2119 23.369C26.0902 23.0671 26.9684 22.8201 27.8467 22.4908C29.4112 21.8595 29.9875 20.7616 29.6033 19.1423C29.3563 18.0444 29.1093 16.9466 28.7525 15.8762C28.2584 14.3666 27.5174 13.7902 25.9529 13.8451C23.8395 13.9 21.7536 14.2843 19.6402 14.5587C19.0364 14.6411 18.5973 15.0253 18.1581 15.437C16.4839 17.1113 15.2488 19.0874 14.151 21.1459C10.6104 27.8154 8.03041 34.8691 5.72492 42.0601C5.17599 43.7617 4.65451 45.4634 4.10558 47.1376C3.80367 48.0434 4.02324 48.6197 4.81918 49.1138C6.79532 50.4038 8.88125 51.5016 11.0495 52.4348C11.5984 52.6818 12.0925 52.9837 12.3669 53.5327C12.5591 53.9718 12.8061 54.4109 12.3121 54.8226C11.5161 55.893 11.077 56.0577 9.89677 55.5637C7.17958 54.4384 4.59961 53.0386 2.18433 51.3369C0.784562 50.3489 0.153294 48.9491 0.592437 47.4396C3.41942 37.7784 6.57575 28.2271 11.324 19.2795C12.3669 17.3583 13.602 15.5468 15.0018 13.8451C16.5937 11.9239 18.6247 11.0731 21.0675 10.9358C22.6319 10.8535 24.1964 10.5516 25.7608 10.4143C28.6427 10.1673 31.0854 11.869 31.9088 14.6411C32.3205 16.0134 32.6773 17.4132 32.9792 18.8129C33.6105 21.6125 32.1284 24.412 29.4661 25.455C28.1486 25.9765 26.7763 26.4156 25.404 26.8273C24.2512 27.1841 23.0985 27.0743 21.9183 26.4705C21.3145 28.8309 20.7655 31.1089 20.2166 33.3595C19.8873 34.677 19.5854 36.0218 19.2285 37.3393C19.1188 37.8059 19.2011 37.9431 19.6951 37.8882C20.5734 37.7784 21.4792 37.8333 22.3574 38.0529C22.9064 38.1901 23.1808 38.0529 23.4553 37.5039C26.3921 31.5755 31.1677 28.0075 37.7 27.0469C43.1069 26.2509 48.0198 27.6507 52.2466 31.1638C52.8778 31.6853 53.1798 31.7128 53.8385 31.1913C63.2251 23.4239 77.2503 26.4705 82.6298 37.3942C82.9042 37.9705 83.1787 38.2176 83.8374 38.0529C84.6608 37.8333 85.5391 37.8059 86.3899 37.9156C86.8291 37.9705 87.0212 37.9156 86.8839 37.3942C86.0331 33.9908 85.1823 30.56 84.3863 27.1566C84.2765 26.6352 84.0844 26.6352 83.6453 26.7998C82.6023 27.239 81.5319 27.2115 80.434 26.8273C79.3087 26.443 78.156 26.1137 77.0307 25.702C74.039 24.6316 72.4471 21.7772 73.1607 18.7032C73.4627 17.3308 73.8195 15.986 74.2037 14.6411C74.9997 12.0062 77.4698 10.2771 80.2145 10.4967C82.3827 10.6888 84.551 11.0182 86.7467 11.2377C88.3112 11.4024 89.4639 12.2532 90.5343 13.3237C92.4281 15.2449 93.8004 17.523 95.0904 19.8559C95.557 20.7342 95.2277 21.4203 94.5415 22.0242C93.7181 22.628 92.9771 22.4908 92.2909 21.6125C91.8517 21.0361 91.5498 20.3774 91.193 19.7736C90.4794 18.6483 89.7109 17.5504 88.915 16.48C87.7348 14.8332 86.0606 14.3666 84.1668 14.3117C82.7944 14.2294 81.4496 13.8726 80.0772 13.9C78.5677 13.9275 77.8266 14.449 77.3326 15.9036C76.9483 17.1113 76.6464 18.3464 76.3994 19.5814C76.1524 20.8165 76.7013 21.8595 77.909 22.4084C79.0617 22.9299 80.2968 23.2593 81.5044 23.6435C82.1083 23.8356 82.5749 23.6161 82.9591 23.1495C83.1238 22.9573 83.2336 22.7652 83.3708 22.5731C83.81 21.8869 84.4412 21.5027 85.2646 21.6125C86.1154 21.7497 86.5546 22.3261 86.7742 23.122C87.2682 24.9609 87.7348 26.8273 88.1739 28.6936C88.8875 31.8774 89.7933 35.0063 90.452 38.1627C90.5618 38.6841 90.7813 39.1507 91.193 39.4801C92.1537 40.2211 92.73 41.2092 93.1966 42.2796C93.7181 43.4324 93.4985 44.3381 92.5379 44.8596C91.6322 45.3536 90.6441 45.0517 90.0677 43.9539C89.2169 42.3071 87.8995 41.4562 86.088 41.2367C85.7861 41.2092 85.4842 41.1818 85.1548 41.2092C84.551 41.2367 84.2765 41.5111 84.3863 42.1424C84.6059 43.4049 84.6882 44.64 84.6608 45.93C84.6333 48.5649 84.0295 51.0899 82.9317 53.4778C82.6023 54.109 82.2455 54.7403 81.9161 55.4539C82.9591 55.5362 83.9197 55.3716 84.8804 55.2343C90.6167 54.3286 96.0236 52.5171 100.909 49.2785C102.172 48.4551 102.199 48.4276 101.76 46.9455C99.8935 40.6054 97.7802 34.3751 95.2002 28.282C95.0081 27.8154 94.7885 27.3213 94.816 26.7998C94.8434 26.0862 94.9806 25.4275 95.8864 25.3177C97.341 25.1805 97.6155 25.3452 98.2193 26.7175C101.129 33.5517 103.407 40.6054 105.548 47.6866C105.548 48.1532 105.548 48.6472 105.548 49.1138C105.053 50.3763 104.12 51.1997 102.995 51.9133C96.9293 55.893 90.2324 58.0613 83.0415 58.7749C82.3553 58.8298 81.6691 59.0219 81.0104 58.9396C79.2813 58.72 78.0737 59.4336 76.9483 60.6962C75.6584 62.1783 74.1488 63.4957 72.7765 64.9229C72.0354 65.6914 71.2395 65.8835 70.3063 65.2523C69.4829 64.5661 69.3731 63.9623 69.9495 63.1389C70.224 62.7272 70.5808 62.4253 70.9101 62.0685C73.1333 59.7355 75.576 57.6496 77.6071 55.152C82.3004 49.3882 82.1632 41.1818 77.3326 35.5278C75.3839 33.2498 73.0235 31.6579 70.1691 30.807C64.2956 29.1053 59.1905 30.5875 54.7442 34.6221C54.607 34.7319 54.4972 34.8691 54.3874 34.9789C53.317 35.9669 52.6308 35.9669 51.5604 34.9514C49.8313 33.3046 47.9375 31.9049 45.6869 31.1089C40.8838 29.3798 36.2179 29.7915 31.9637 32.591C26.941 35.8846 24.608 40.6877 24.9649 46.6436C25.1844 50.5959 26.941 53.9169 29.7131 56.7164C35.916 62.9468 42.1463 69.1497 48.3492 75.3526C49.5568 76.6151 50.8194 77.8227 52.027 79.0578C52.9053 79.9361 53.0425 79.9361 53.9208 79.0578C57.5437 75.4623 61.1392 71.8394 64.7347 68.2439C65.0915 67.8871 65.4209 67.448 65.9149 67.2833C66.7108 67.1186 67.4244 66.9265 67.8361 67.8048Z" fill="#000A21"/>
<path d="M12.3121 54.8227C12.5316 53.7248 12.0102 53.0936 11.0221 52.6819C8.6068 51.6938 6.32874 50.4587 4.18792 48.9766C3.72134 48.6747 3.47432 48.3728 3.66644 47.7415C6.35619 38.794 9.29296 29.9288 13.602 21.5851C14.7548 19.3345 16.0448 17.1662 17.8562 15.3548C18.5698 14.6412 19.3658 14.2569 20.3813 14.1746C22.1928 14.0373 23.9768 13.7354 25.7883 13.5433C27.5174 13.3786 28.5603 14.1471 29.0269 15.8214C29.3288 16.9741 29.6582 18.1268 29.9327 19.2796C30.2895 20.7892 29.6307 22.1066 28.1761 22.6555C27.0233 23.0947 25.8431 23.4515 24.6904 23.8357C23.7572 24.1651 23.0711 23.8357 22.6594 22.9849C22.3026 22.2164 21.8085 21.64 20.8753 21.7772C19.9147 21.887 19.6403 22.6281 19.4481 23.424C18.2679 28.3369 17.0603 33.2498 15.8801 38.1627C15.7154 38.8489 15.441 39.3704 14.8646 39.837C13.9863 40.5231 13.4099 41.4563 12.9982 42.4993C12.614 43.4599 12.861 44.3107 13.6569 44.695C14.4803 45.0792 15.2763 44.7499 15.7703 43.8167C16.9505 41.5661 19.0639 40.5231 21.4243 40.9623C21.9183 41.0446 22.1104 41.2093 22.0006 41.7582C21.04 46.6437 21.8634 51.1998 24.4434 55.454C24.4983 55.5363 24.5257 55.6461 24.5806 55.8382C22.4123 55.701 20.299 55.3991 18.213 54.9325C16.7309 54.6031 16.2643 54.8501 15.688 56.1127C14.6725 55.4265 13.4099 55.3991 12.3121 54.8227Z" fill="#FECDBF"/>
<path d="M67.8362 67.8048C66.7109 67.1461 66.2443 67.201 65.3111 68.1341C61.5509 71.8943 57.7633 75.6819 54.0032 79.442C53.0426 80.4027 53.0151 80.4027 52.0545 79.4146C50.8194 78.1521 49.5569 76.8895 48.3218 75.627C48.4316 75.0781 48.8982 74.7762 49.255 74.4468C56.0891 67.6127 62.9507 60.7785 69.7574 53.9169C72.5021 51.1448 73.9567 47.7414 74.3684 43.8715C74.835 39.3428 73.5176 35.3906 70.8553 31.7951C70.6083 31.4657 70.1966 31.1638 70.3064 30.6423C74.9722 31.9872 78.2109 35.0063 80.1322 39.3703C82.7121 45.2164 81.4221 51.8859 76.8935 56.5243C74.835 58.6377 72.7491 60.6962 70.6632 62.7546C69.73 63.6878 69.6751 64.127 70.3887 65.2523C69.5653 66.1305 68.687 66.9539 67.8362 67.8048Z" fill="#DF1058"/>
<path d="M64.5974 11.5671C64.5974 12.2807 64.5974 12.9944 64.5974 13.7354C64.57 16.1232 63.1977 17.5505 60.8098 17.6602C59.1081 17.7151 59.1081 17.7151 59.0532 19.4443C58.9984 21.6674 57.626 23.0672 55.4029 23.1495C53.8659 23.2044 52.3289 23.2044 50.7919 23.1495C48.4589 23.0946 47.0866 21.6674 47.0317 19.307C47.0317 19.1698 47.0043 19.0326 47.0317 18.8953C47.2238 17.8798 46.867 17.523 45.7966 17.6053C43.2167 17.8249 41.2954 16.1781 41.4875 13.2963C41.5699 11.9788 41.4875 10.634 41.515 9.28909C41.5424 7.01103 42.9971 5.58382 45.2477 5.55637C47.0043 5.52893 47.0043 5.52893 47.0317 3.82725C47.0866 1.43941 48.4864 0.0396448 50.9017 0.0121984C52.3838 0.0121984 53.8384 -0.015248 55.3205 0.0121984C57.5711 0.0396448 59.0258 1.46686 59.0807 3.71746C59.1356 5.52893 59.1356 5.52893 60.8922 5.55637C63.0879 5.58382 64.57 7.01103 64.6249 9.1793C64.6249 9.97525 64.5974 10.7712 64.5974 11.5671Z" fill="#000A21"/>
<path d="M74.7801 75.1331C74.7801 74.4195 74.7801 73.7059 74.7801 72.9648C74.8075 70.6319 76.1799 69.2047 78.5128 69.0949C80.2694 69.0125 80.2694 69.0125 80.3243 67.256C80.3792 65.0877 81.7515 63.6605 83.9197 63.5782C85.4567 63.5233 86.9937 63.5233 88.5307 63.5782C90.946 63.633 92.3183 65.0603 92.3458 67.4481C92.3458 67.6402 92.3732 67.8598 92.3458 68.0519C92.1811 68.9302 92.5928 69.1772 93.4162 69.0949C93.8828 69.04 94.3768 69.0949 94.8434 69.1772C96.5725 69.4517 97.8076 70.7691 97.8625 72.5257C97.9174 74.1725 97.89 75.8193 97.8625 77.4386C97.8351 79.6892 96.353 81.1164 94.1024 81.1164C92.3732 81.1439 92.3732 81.1439 92.3458 82.873C92.2909 85.2059 90.8637 86.6331 88.5307 86.6331C87.0212 86.6606 85.5116 86.6606 84.0021 86.6331C81.8064 86.6057 80.3517 85.1785 80.2968 82.9828C80.2419 81.1164 80.2419 81.1164 78.4579 81.089C76.2622 81.0615 74.8075 79.6069 74.7801 77.4111C74.7526 76.6975 74.7801 75.929 74.7801 75.1331Z" fill="#000A21"/>
<path d="M8.2226 75.1331C8.2226 74.4195 8.2226 73.7059 8.2226 72.9648C8.25004 70.577 9.64981 69.1498 12.0376 69.0674C13.7119 69.0125 13.7119 69.0125 13.7668 67.3383C13.8217 65.0328 15.1665 63.6056 17.4446 63.5507C19.009 63.4958 20.6009 63.4958 22.1654 63.5507C24.3885 63.633 25.7334 65.0602 25.7883 67.3108C25.7883 67.5579 25.8157 67.8049 25.7883 68.0245C25.6511 68.9027 26.0079 69.1498 26.8587 69.0674C28.0663 68.9851 29.2465 69.1223 30.2072 70.0555C30.9208 70.7416 31.3325 71.5925 31.3325 72.608C31.3325 74.2273 31.3599 75.8192 31.3325 77.4386C31.305 79.6892 29.8504 81.1164 27.5723 81.1438C25.8432 81.1713 25.8432 81.1713 25.8157 82.9004C25.7609 85.2334 24.3336 86.6606 22.0281 86.688C20.546 86.7155 19.0914 86.688 17.6093 86.688C15.2763 86.6606 13.8217 85.2608 13.7942 82.9279C13.7668 81.1438 13.7668 81.1438 11.9553 81.1438C9.75959 81.1164 8.30493 79.6892 8.25004 77.4935C8.2226 76.725 8.2226 75.929 8.2226 75.1331Z" fill="#000A21"/>
<path d="M95.9961 25.2903C95.0629 25.9765 95.008 26.7999 95.4197 27.8154C98.1644 34.2378 100.333 40.825 102.364 47.4945C102.583 48.263 102.446 48.6472 101.787 49.0864C96.0785 52.9288 89.7658 55.0422 82.9316 55.7009C82.4925 55.7558 82.0533 55.7833 81.4495 55.8656C81.9436 54.9873 82.3827 54.2188 82.8218 53.4229C87.5152 52.325 91.8243 50.3489 95.7765 47.6317C96.7921 46.9455 97.0665 46.2319 96.7097 45.0792C93.9925 36.1316 91.1381 27.239 86.829 18.8953C86.1703 17.6053 85.4018 16.3977 84.6607 15.1626C84.4412 14.8332 84.1393 14.5039 84.2765 14.0373C86.6094 13.9 88.2837 14.9705 89.5737 16.8643C90.5068 18.2091 91.3851 19.5815 92.2085 21.0087C92.8398 22.134 93.2789 22.3261 94.5415 22.0242C95.008 23.0946 95.5021 24.1925 95.9961 25.2903Z" fill="#FCAF9F"/>
<path d="M70.3063 30.6423C72.3923 33.2223 73.9293 36.0767 74.5056 39.3977C75.2741 43.9539 74.2586 48.0983 71.761 51.9408C71.0474 53.0386 70.1417 53.9443 69.2085 54.8775C62.5665 61.5196 55.897 68.189 49.2549 74.8311C48.953 75.133 48.6511 75.38 48.3492 75.6545C44.2048 71.5375 40.0604 67.4205 35.916 63.2761C33.7477 61.1353 31.5795 58.9945 29.4661 56.8262C25.0747 52.325 23.5926 46.973 25.4315 40.9896C27.2704 35.0063 31.4971 31.3285 37.7 30.2032C42.9697 29.27 47.5533 30.8345 51.4232 34.5397C52.8504 35.9121 53.2896 35.8846 54.7168 34.5397C59.0259 30.4502 64.076 29.1053 69.8398 30.4777C70.0044 30.4777 70.1417 30.56 70.3063 30.6423Z" fill="#FA3A81"/>
<path d="M84.2765 14.0373C89.4364 21.9419 92.4006 30.807 95.3374 39.6722C95.9412 41.5111 96.4627 43.3775 97.0391 45.2439C97.341 46.2045 97.0391 47.0553 96.2706 47.5768C92.4006 50.3214 88.1464 52.2701 83.5629 53.5327C83.2884 53.615 83.014 53.6699 82.8218 53.3954C83.9471 50.6234 84.6333 47.7415 84.4686 44.7224C84.4137 43.7617 84.3588 42.8011 84.1118 41.8679C83.9197 41.1543 84.2216 40.9897 84.8254 40.9073C87.2407 40.6054 89.162 41.566 90.3147 43.7617C90.8087 44.6949 91.6047 45.0517 92.4281 44.6675C93.224 44.3107 93.4985 43.4324 93.1142 42.4992C92.6751 41.4014 92.0438 40.4133 91.1107 39.6997C90.6441 39.3429 90.3971 38.9037 90.2598 38.3823C89.0796 33.4968 87.8994 28.6388 86.7192 23.7533C86.6369 23.4514 86.582 23.1495 86.4997 22.8476C86.2801 22.2163 85.8409 21.8046 85.1548 21.7497C84.4686 21.6948 83.9746 21.9967 83.6452 22.6006C82.7944 24.1101 82.5199 24.1925 80.8457 23.6435C79.9125 23.3416 78.9519 23.0672 78.0187 22.7103C76.4817 22.1614 75.7956 20.8714 76.2073 19.2247C76.4817 18.0719 76.7836 16.8917 77.113 15.7664C77.5521 14.202 78.6225 13.4335 80.2144 13.5707C81.5593 13.653 82.9042 13.8726 84.2765 14.0373Z" fill="#FECDBF"/>
<path d="M57.1595 14.5587C56.2812 14.8607 55.9793 15.5194 55.9793 16.3977C55.9793 17.3308 55.9518 18.2366 55.9793 19.1697C56.0067 19.8285 55.7048 20.0755 55.0735 20.0755C53.7012 20.048 52.3289 20.0755 50.9566 20.0755C50.3802 20.0755 50.0783 19.8285 50.1057 19.2246C50.1332 18.3738 50.1057 17.523 50.1057 16.6721C50.1057 15.0528 49.6391 14.5862 48.0472 14.5587C47.1964 14.5587 46.3456 14.5313 45.4673 14.5587C44.836 14.5587 44.5341 14.3117 44.5616 13.653C44.589 12.2807 44.589 10.9084 44.5616 9.53605C44.5341 8.87734 44.8086 8.60288 45.4673 8.63032C46.4005 8.65777 47.3062 8.65777 48.2394 8.63032C49.4745 8.60288 50.0508 8.05395 50.1057 6.81886C50.1332 5.85824 50.1332 4.89761 50.1057 3.93699C50.1057 3.33317 50.3253 3.0587 50.9566 3.08615C52.3289 3.11359 53.7012 3.11359 55.0735 3.08615C55.7322 3.0587 56.0067 3.30572 55.9793 3.96443C55.9518 4.81527 55.9793 5.66611 55.9793 6.51695C55.9793 7.88927 56.2537 8.24607 57.5712 8.65777C57.8456 8.95968 57.8731 9.31648 57.8731 9.70073C57.9005 10.9358 57.9005 12.1435 57.8731 13.3786C57.8731 13.9275 57.8456 14.449 57.1595 14.5587Z" fill="#FDD41E"/>
<path d="M57.1595 14.5587C57.5712 14.3117 57.5712 13.9 57.5712 13.4883C57.5437 11.8964 57.5712 10.2771 57.5712 8.6852C58.6141 8.6852 59.6846 8.6852 60.7275 8.65776C61.3039 8.63031 61.5235 8.90478 61.5235 9.4537C61.5235 10.8809 61.496 12.3081 61.5235 13.7353C61.5235 14.3666 61.1941 14.5587 60.6452 14.5587C59.465 14.5587 58.3122 14.5587 57.1595 14.5587Z" fill="#C2A10B"/>
<path d="M90.8363 78.0424C89.5463 78.4541 89.2718 78.8109 89.2444 80.1832C89.2444 81.034 89.2169 81.8849 89.2444 82.7357C89.2718 83.3944 88.9699 83.6415 88.3386 83.614C86.9663 83.5866 85.594 83.5866 84.2217 83.614C83.5904 83.614 83.3708 83.367 83.3708 82.7632C83.3983 81.8025 83.3983 80.8419 83.3708 79.8813C83.3434 78.6462 82.767 78.0973 81.5045 78.0698C80.5439 78.0424 79.5832 78.0424 78.6226 78.0698C78.0462 78.0698 77.8267 77.8503 77.8267 77.2739C77.8541 75.8741 77.8541 74.4744 77.8267 73.0746C77.7992 72.4159 78.1011 72.1414 78.7324 72.1688C79.693 72.1963 80.6537 72.1963 81.6143 72.1688C82.767 72.1414 83.316 71.6199 83.3708 70.4946C83.3983 69.5065 83.3983 68.5185 83.3708 67.5304C83.3434 66.8991 83.6453 66.6796 84.2217 66.6796C85.594 66.6796 86.9663 66.6796 88.3386 66.6796C88.9699 66.6796 89.2718 66.9266 89.2444 67.5853C89.2169 68.5185 89.2444 69.4242 89.2444 70.3574C89.2444 71.2357 89.5463 71.8944 90.4246 72.1963C90.8088 72.2512 91.0558 72.4708 91.0833 72.855C91.1656 74.4743 91.248 76.1211 91.0284 77.7405C91.0284 77.8503 90.9186 77.96 90.8363 78.0424Z" fill="#FDD41E"/>
<path d="M90.8362 78.0424C90.8362 76.4505 90.8362 74.8311 90.8362 73.2392C90.8362 72.8275 90.8362 72.4158 90.4245 72.1688C91.5498 72.1688 92.6751 72.1963 93.8004 72.1688C94.4591 72.1688 94.8159 72.3609 94.7885 73.102C94.761 74.4743 94.761 75.8192 94.7885 77.1915C94.7885 77.8502 94.5689 78.1247 93.8827 78.0972C92.8672 78.0424 91.8517 78.0698 90.8362 78.0424Z" fill="#C2A10B"/>
<path d="M24.3061 78.0423C23.0161 78.454 22.7416 78.8108 22.7142 80.1831C22.7142 81.0339 22.6867 81.8848 22.7142 82.7356C22.7416 83.3943 22.4397 83.6413 21.8084 83.6413C20.4361 83.6139 19.0638 83.6139 17.6915 83.6413C17.0602 83.6413 16.8406 83.3943 16.8406 82.7905C16.8681 81.8299 16.8681 80.8692 16.8406 79.9086C16.8132 78.6735 16.2368 78.1246 14.9743 78.0972C14.0136 78.0697 13.053 78.0697 12.0924 78.0972C11.516 78.0972 11.2965 77.8776 11.2965 77.3012C11.3239 75.9014 11.3239 74.5017 11.2965 73.1019C11.269 72.4432 11.5709 72.1687 12.2022 72.1962C13.1628 72.2236 14.1234 72.2236 15.0841 72.1962C16.2368 72.1687 16.7857 71.6472 16.8406 70.4945C16.8681 69.5339 16.8955 68.5733 16.8406 67.6126C16.8132 66.899 17.1151 66.6246 17.8013 66.652C19.1461 66.6795 20.4636 66.6795 21.8084 66.652C22.4397 66.652 22.7416 66.899 22.7142 67.5577C22.6867 68.4909 22.7142 69.3966 22.7142 70.3298C22.7142 71.2081 23.0161 71.8668 23.8944 72.1687C24.2786 72.2236 24.5256 72.4432 24.5531 72.8274C24.6354 74.4468 24.7177 76.0936 24.4982 77.7129C24.4982 77.8501 24.3884 77.9599 24.3061 78.0423Z" fill="#FDD41E"/>
<path d="M24.3061 78.0424C24.3061 76.4505 24.3061 74.8311 24.3061 73.2392C24.3061 72.8275 24.3061 72.4158 23.8944 72.1688C25.0197 72.1688 26.145 72.1963 27.2703 72.1688C27.929 72.1688 28.2858 72.3609 28.2584 73.102C28.2309 74.4743 28.2309 75.8192 28.2584 77.1915C28.2584 77.8502 28.0388 78.1247 27.3527 78.0972C26.3371 78.0424 25.3216 78.0698 24.3061 78.0424Z" fill="#C2A10B"/>
<path d="M52.4113 62.2607C49.996 62.1509 47.5807 60.9432 45.8242 58.5005C45.1655 57.5948 45.2478 56.6616 45.9614 56.1401C46.7299 55.5638 47.6082 55.7833 48.3218 56.7165C50.8743 60.0375 55.1559 60.0375 57.7359 56.6891C58.4495 55.7559 59.3552 55.5638 60.0963 56.1401C60.8099 56.6891 60.8374 57.5948 60.2061 58.528C58.6691 60.8609 55.9244 62.2607 52.4113 62.2607Z" fill="#000A21"/>
<path d="M43.9577 49.8274C43.9029 49.0863 44.0401 48.2904 44.9733 47.961C45.6045 47.7415 46.1809 47.8787 46.6475 48.4002C47.1141 48.9491 47.2239 50.541 46.7847 51.2272C46.4279 51.8035 45.9064 52.078 45.2203 51.9682C44.3694 51.831 43.9577 51.1448 43.9577 49.8274Z" fill="#020001"/>
<path d="M62.1547 49.9098C62.2096 50.7331 62.0724 51.5291 61.1392 51.8584C60.3981 52.1329 59.7943 51.8584 59.3552 51.2546C58.8886 50.5685 58.9709 48.9217 59.4924 48.3453C60.0139 47.7964 60.6452 47.6866 61.3588 48.016C62.1273 48.4276 62.1822 49.1413 62.1547 49.9098Z" fill="#020001"/>
</svg>
