<svg width="32" height="32" viewBox="0 0 32 32" fill="none" xmlns="http://www.w3.org/2000/svg">
<path d="M28.7783 9.95437L19.0011 2.3497C18.1431 1.6822 17.0871 1.31979 16 1.31979C14.9129 1.31979 13.8568 1.6822 12.9988 2.3497L3.21981 9.95437C2.63213 10.4114 2.15665 10.9967 1.8297 11.6655C1.50275 12.3343 1.33296 13.0691 1.33331 13.8135V27.0135C1.33331 27.986 1.71962 28.9186 2.40726 29.6063C3.09489 30.2939 4.02752 30.6802 4.99998 30.6802H27C27.9724 30.6802 28.9051 30.2939 29.5927 29.6063C30.2803 28.9186 30.6666 27.986 30.6666 27.0135V13.8135C30.6666 12.3047 29.97 10.8802 28.7783 9.95437Z" stroke="#FDD41E" stroke-width="1.5" stroke-linecap="round" stroke-linejoin="round"/>
<path d="M23.2783 21.486C19.2266 23.9299 12.6596 23.9299 8.61163 21.486" stroke="#FDD41E" stroke-width="1.5" stroke-linecap="round" stroke-linejoin="round"/>
</svg>
