<svg width="27" height="24" viewBox="0 0 27 24" fill="none" xmlns="http://www.w3.org/2000/svg">
<path d="M23.5095 12.7701L13.5111 22.6725L3.51273 12.7701C2.85324 12.1284 2.33378 11.3571 1.98704 10.5047C1.6403 9.65232 1.47381 8.7374 1.49804 7.81752C1.52227 6.89765 1.7367 5.99275 2.12783 5.15982C2.51896 4.32689 3.07831 3.58397 3.77067 2.97784C4.46302 2.3717 5.27338 1.91549 6.15072 1.63792C7.02805 1.36036 7.95335 1.26745 8.86835 1.36506C9.78335 1.46267 10.6682 1.74867 11.4673 2.20506C12.2663 2.66145 12.9622 3.27835 13.5111 4.01689C14.0624 3.28371 14.7591 2.67221 15.5576 2.22066C16.3561 1.76911 17.2392 1.48724 18.1516 1.39268C19.064 1.29812 19.9862 1.39292 20.8603 1.67113C21.7344 1.94934 22.5417 2.40499 23.2316 3.00954C23.9215 3.6141 24.4792 4.35455 24.8698 5.18456C25.2604 6.01457 25.4755 6.91627 25.5016 7.83322C25.5277 8.75017 25.3642 9.66264 25.0214 10.5135C24.6786 11.3644 24.1639 12.1353 23.5095 12.7781" stroke="#F0FAFC" stroke-width="1.5" stroke-linecap="round" stroke-linejoin="round"/>
<path d="M13.5111 4.00888L9.12115 8.39884C8.87123 8.64883 8.73083 8.98785 8.73083 9.34135C8.73083 9.69484 8.87123 10.0339 9.12115 10.2839L9.84504 11.0077C10.7649 11.9276 12.258 11.9276 13.1778 11.0077L14.5109 9.67463C15.3065 8.87911 16.3854 8.4322 17.5105 8.4322C18.6355 8.4322 19.7145 8.87911 20.51 9.67463L23.5095 12.6741" stroke="#F0FAFC" stroke-width="1.5" stroke-linecap="round" stroke-linejoin="round"/>
<path d="M14.1776 16.6735L16.8438 19.3398" stroke="#F0FAFC" stroke-width="1.5" stroke-linecap="round" stroke-linejoin="round"/>
<path d="M17.5105 13.3407L20.1767 16.007" stroke="#F0FAFC" stroke-width="1.5" stroke-linecap="round" stroke-linejoin="round"/>
</svg>
