<svg width="26" height="24" viewBox="0 0 26 24" fill="none" xmlns="http://www.w3.org/2000/svg">
<path d="M23.0095 12.7701L13.0111 22.6725L3.01273 12.7701C2.35324 12.1284 1.83378 11.3571 1.48704 10.5047C1.1403 9.65233 0.973808 8.7374 0.998039 7.81753C1.02227 6.89766 1.2367 5.99276 1.62783 5.15983C2.01896 4.3269 2.57831 3.58398 3.27067 2.97784C3.96302 2.37171 4.77338 1.91549 5.65072 1.63793C6.52805 1.36036 7.45335 1.26746 8.36835 1.36507C9.28335 1.46267 10.1682 1.74868 10.9673 2.20507C11.7663 2.66146 12.4622 3.27836 13.0111 4.0169C13.5624 3.28372 14.2591 2.67221 15.0576 2.22067C15.8561 1.76912 16.7392 1.48724 17.6516 1.39269C18.564 1.29813 19.4862 1.39292 20.3603 1.67114C21.2344 1.94935 22.0417 2.40499 22.7316 3.00955C23.4215 3.61411 23.9792 4.35456 24.3698 5.18457C24.7604 6.01458 24.9755 6.91628 25.0016 7.83323C25.0277 8.75018 24.8642 9.66264 24.5214 10.5135C24.1786 11.3644 23.6639 12.1353 23.0095 12.7781" stroke="#000A21" stroke-width="1.5" stroke-linecap="round" stroke-linejoin="round"/>
<path d="M13.0111 4.0089L8.62115 8.39886C8.37123 8.64886 8.23083 8.98788 8.23083 9.34137C8.23083 9.69487 8.37123 10.0339 8.62115 10.2839L9.34504 11.0078C10.2649 11.9276 11.758 11.9276 12.6778 11.0078L14.0109 9.67465C14.8065 8.87914 15.8854 8.43222 17.0105 8.43222C18.1355 8.43222 19.2145 8.87914 20.01 9.67465L23.0095 12.6742" stroke="#000A21" stroke-width="1.5" stroke-linecap="round" stroke-linejoin="round"/>
<path d="M13.6777 16.6735L16.3439 19.3398" stroke="#000A21" stroke-width="1.5" stroke-linecap="round" stroke-linejoin="round"/>
<path d="M17.0105 13.3407L19.6767 16.007" stroke="#000A21" stroke-width="1.5" stroke-linecap="round" stroke-linejoin="round"/>
</svg>
