<svg width="45" height="45" viewBox="0 0 45 45" fill="none" xmlns="http://www.w3.org/2000/svg">
<circle cx="22.5" cy="22.5" r="22.5" fill="#F0FAFC"/>
<path d="M11 13.75C11 13.0207 11.2897 12.3212 11.8055 11.8055C12.3212 11.2897 13.0207 11 13.75 11H30.25C30.9793 11 31.6788 11.2897 32.1945 11.8055C32.7103 12.3212 33 13.0207 33 13.75V30.25C33 30.9793 32.7103 31.6788 32.1945 32.1945C31.6788 32.7103 30.9793 33 30.25 33H13.75C13.0207 33 12.3212 32.7103 11.8055 32.1945C11.2897 31.6788 11 30.9793 11 30.25V13.75Z" fill="#000A21"/>
<path d="M16.5 20.625V27.5" stroke="#F0FAFC" stroke-width="2.75" stroke-linecap="round" stroke-linejoin="round"/>
<path d="M16.5 16.5V16.5138" stroke="#F0FAFC" stroke-width="2.75" stroke-linecap="round" stroke-linejoin="round"/>
<path d="M22 27.5V20.625" stroke="#F0FAFC" stroke-width="2.75" stroke-linecap="round" stroke-linejoin="round"/>
<path d="M27.5 27.5V23.375C27.5 22.6457 27.2103 21.9462 26.6945 21.4305C26.1788 20.9147 25.4793 20.625 24.75 20.625C24.0207 20.625 23.3212 20.9147 22.8055 21.4305C22.2897 21.9462 22 22.6457 22 23.375" stroke="#F0FAFC" stroke-width="2.75" stroke-linecap="round" stroke-linejoin="round"/>
</svg>
