<svg width="24" height="24" viewBox="0 0 24 24" fill="none" xmlns="http://www.w3.org/2000/svg">
<circle cx="11.6963" cy="11.6363" r="11.6363" fill="#96BCC5"/>
<path d="M5.74889 7.11117C5.74889 6.73398 5.89873 6.37224 6.16545 6.10552C6.43216 5.8388 6.79391 5.68896 7.1711 5.68896H15.7044C16.0815 5.68896 16.4433 5.8388 16.71 6.10552C16.9767 6.37224 17.1266 6.73398 17.1266 7.11117V15.6444C17.1266 16.0216 16.9767 16.3834 16.71 16.6501C16.4433 16.9168 16.0815 17.0666 15.7044 17.0666H7.1711C6.79391 17.0666 6.43216 16.9168 6.16545 16.6501C5.89873 16.3834 5.74889 16.0216 5.74889 15.6444V7.11117Z" fill="#000A21"/>
<path d="M8.59329 10.6665V14.222" stroke="#96BCC5" stroke-width="2.75" stroke-linecap="round" stroke-linejoin="round"/>
<path d="M8.59329 8.53369V8.54224" stroke="#96BCC5" stroke-width="2.75" stroke-linecap="round" stroke-linejoin="round"/>
<path d="M11.4377 14.222V10.6665" stroke="#96BCC5" stroke-width="2.75" stroke-linecap="round" stroke-linejoin="round"/>
<path d="M14.2821 14.222V12.0887C14.2821 11.7115 14.1323 11.3498 13.8656 11.0831C13.5989 10.8163 13.2371 10.6665 12.8599 10.6665C12.4827 10.6665 12.121 10.8163 11.8543 11.0831C11.5876 11.3498 11.4377 11.7115 11.4377 12.0887" stroke="#96BCC5" stroke-width="2.75" stroke-linecap="round" stroke-linejoin="round"/>
</svg>
