<svg width="20" height="22" viewBox="0 0 20 22" fill="none" xmlns="http://www.w3.org/2000/svg">
<path d="M17.0707 2.831C18.9066 4.60531 19.9566 7.00021 19.9987 9.50929C20.0408 12.0184 19.0717 14.4449 17.2963 16.2758L17.0707 16.5014L12.3564 21.0571C11.7582 21.6349 10.9552 21.9713 10.11 21.9982C9.26475 22.0252 8.44054 21.7406 7.8043 21.202L7.64431 21.0571L2.92887 16.5003C1.05355 14.6876 0 12.2291 0 9.66564C0 7.10215 1.05355 4.64366 2.92887 2.831C4.8042 1.01834 7.34769 0 9.9998 0C12.6519 0 15.1954 1.01834 17.0707 2.831ZM9.9998 6.44378C9.56207 6.44378 9.12863 6.52711 8.72422 6.68903C8.31981 6.85094 7.95236 7.08826 7.64284 7.38744C7.33332 7.68662 7.08779 8.04179 6.92028 8.43269C6.75277 8.82358 6.66655 9.24254 6.66655 9.66564C6.66655 10.0887 6.75277 10.5077 6.92028 10.8986C7.08779 11.2895 7.33332 11.6447 7.64284 11.9438C7.95236 12.243 8.31981 12.4803 8.72422 12.6422C9.12863 12.8042 9.56207 12.8875 9.9998 12.8875C10.8838 12.8875 11.7317 12.5481 12.3568 11.9438C12.9819 11.3396 13.333 10.5201 13.333 9.66564C13.333 8.81115 12.9819 7.99166 12.3568 7.38744C11.7317 6.78322 10.8838 6.44378 9.9998 6.44378Z" fill="#00303F"/>
</svg>
