<svg width="224" height="208" viewBox="0 0 224 208" fill="none" xmlns="http://www.w3.org/2000/svg">
<path d="M218.199 112.775C216.824 116.479 215.06 120.011 213.394 123.59C209.722 131.557 205.324 139.174 200.255 146.347C194.702 154.252 188.232 161.483 180.98 167.891C175.663 172.56 169.895 176.698 163.76 180.246C153.765 186.071 142.769 190.01 131.328 191.861C127.425 192.485 123.522 192.782 119.619 193.083C117.83 193.201 116.035 193.201 114.247 193.083C111.371 192.919 108.514 192.605 105.634 192.511C103.358 192.433 101.077 192.476 98.7959 192.347C94.724 192.123 90.6738 191.801 86.6539 191.254C78.186 190.12 69.8448 188.196 61.7412 185.507C53.8916 182.934 46.34 179.541 39.2135 175.385C38.8666 175.178 38.524 174.869 38.0514 175.066C39.2673 176.463 40.56 177.791 41.9238 179.046C55.5859 192.059 72.5491 201.153 91.0079 205.361C109.467 209.569 128.73 208.733 146.748 202.942C164.766 197.151 180.863 186.621 193.328 172.475C205.792 158.328 214.157 141.093 217.531 122.605C218.216 119.083 218.668 115.521 218.884 111.94C218.399 112.001 218.321 112.439 218.199 112.775Z" fill="#F0FAFC"/>
<path d="M35.3238 37.1734C36.5727 36.6228 37.7305 35.8828 39.0574 35.4871C48.1943 32.8328 57.2704 29.9419 66.3465 27.1199C76.0731 24.1085 85.8387 21.2177 95.7257 18.7699C106.064 16.1888 116.484 14.0808 127.095 12.9537C132.963 12.3343 138.83 11.8137 144.736 11.775C148.069 11.7549 151.407 11.7549 154.749 11.775C156.817 11.775 158.89 11.6546 160.958 11.9428C161.479 12.0159 162.09 12.1407 162.511 11.5943C161.882 11.2846 161.262 10.9663 160.633 10.6608C146.376 3.6796 130.696 0.0328756 114.797 0.000726558C108.973 -0.0210813 103.157 0.448076 97.4126 1.40314C78.0598 4.55714 59.9939 13.0553 45.2845 25.924C41.2171 29.4175 37.4662 33.258 34.0749 37.4014C34.5346 37.6939 34.9248 37.367 35.3238 37.1734Z" fill="#F0FAFC"/>
<path d="M98.6181 191.581C101.81 191.745 105.019 191.547 108.202 191.796C113.417 192.261 118.661 192.326 123.886 191.99C132.822 191.309 141.604 189.296 149.935 186.019C163.062 180.9 174.51 173.195 184.574 163.451C194.707 153.595 203.154 142.167 209.583 129.617C213.299 122.428 216.872 115.167 219.253 107.402C219.218 105.315 219.209 103.229 219.149 101.147C218.697 82.325 213.037 63.9886 202.787 48.1433C193.312 33.3275 180.732 21.7511 165.386 13.1086C165.21 12.9974 165.041 12.8768 164.878 12.7473C155.395 12.7042 145.924 12.2181 136.432 12.872C129.464 13.3462 122.524 14.166 115.638 15.3284C104.459 17.204 93.5011 20.0347 82.5907 23.0718C69.6074 26.7069 56.7977 30.9658 43.8708 34.7816C39.5344 36.0721 35.3801 37.6208 31.5944 40.0772C30.9786 41.3678 29.9726 42.4131 29.1487 43.5704C22.4475 52.8938 17.3456 63.2518 14.0493 74.2257C11.7098 81.937 10.3022 89.8968 9.85595 97.9377C8.62874 120.368 14.1533 141.043 26.1479 160.018C28.4533 163.604 30.9805 167.045 33.7149 170.321C33.9101 170.558 34.1789 170.752 34.1486 171.126C34.2422 171.228 34.3437 171.323 34.4521 171.41C43.4307 177.34 53.2131 181.975 63.5061 185.176C74.8825 188.805 86.6845 190.958 98.6181 191.581Z" fill="#F0FAFC"/>
<path d="M223.134 62.318C221.972 53.5249 219.726 45.0502 215.554 37.1519C210.823 28.204 204.171 21.2349 194.765 17.0492C187.953 14.0163 180.732 12.7258 173.356 12.1149C169.74 11.8138 166.127 11.7277 162.515 11.6202C158.578 11.5858 154.653 11.6202 150.72 11.5126C140.746 11.2416 130.812 12.0375 120.942 13.4227C112.37 14.6749 103.871 16.3824 95.4829 18.5376C82.6254 21.7554 69.9457 25.5669 57.3484 29.6623C49.5732 32.1918 41.4728 33.8179 34.0619 37.4057L32.1625 38.5285C22.4655 44.066 14.788 52.5108 10.2333 62.6493C5.09736 74.004 1.83101 86.1027 0.558718 98.4841C-0.386715 107.057 -0.131334 115.719 1.31759 124.222C4.35308 141.559 13.1387 155.587 26.5989 166.871C30.2178 169.844 34.0274 172.58 38.0037 175.062C38.2899 175.213 38.5761 175.337 38.8493 175.492C49.1483 181.575 60.1931 185.817 71.806 188.695C78.5858 190.352 85.4745 191.535 92.4214 192.235C98.6181 192.872 104.841 192.704 111.038 193.152C121.075 193.832 131.157 192.813 140.85 190.14C156.063 186.019 169.38 178.405 181.149 168.093C193.321 157.424 202.87 144.699 210.337 130.426C213.508 124.412 216.359 118.237 218.88 111.927C219.478 109.742 220.432 107.673 220.87 105.445C222.09 99.4395 222.97 93.3715 223.507 87.269C224.205 78.9319 224.231 70.6078 223.134 62.318ZM222.232 89.9362C221.707 95.0684 220.879 100.162 219.908 105.229C219.73 105.972 219.511 106.704 219.253 107.423C216.872 115.188 213.299 122.45 209.583 129.638C203.152 142.181 194.705 153.602 184.575 163.451C174.51 173.195 163.062 180.9 149.935 186.019C141.604 189.296 132.822 191.309 123.886 191.99C118.661 192.326 113.417 192.261 108.202 191.796C105.019 191.547 101.81 191.745 98.6181 191.581C86.68 190.958 74.8735 188.803 63.4931 185.172C53.2001 181.971 43.4177 177.336 34.4391 171.405C34.3307 171.319 34.2292 171.224 34.1356 171.122C23.5677 163.916 14.9469 154.972 8.98438 143.615C4.56123 135.119 2.19788 126.046 1.44768 116.522C0.0773756 99.1422 3.36004 82.5111 9.81697 66.3876C14.1534 55.5382 21.0049 46.7451 30.983 40.4558C31.1955 40.3267 31.4167 40.2192 31.6248 40.0944C35.4018 37.638 39.5474 36.0764 43.8795 34.7859C56.8064 30.9701 69.6161 26.7112 82.5994 23.0761C93.5098 20.0218 104.468 17.1911 115.647 15.3327C122.533 14.1688 129.472 13.3476 136.44 12.872C145.933 12.2181 155.403 12.7042 164.887 12.7473C174.601 12.8462 184.141 13.7668 193.247 17.5052C202.085 21.1403 208.655 27.2791 213.485 35.3795C217.822 42.6928 220.224 50.647 221.634 58.941C223.372 69.2269 223.277 79.5686 222.232 89.9147V89.9362Z" fill="#FBFEFF"/>
<path d="M142.446 91.0373C142.207 90.9839 141.971 90.9179 141.739 90.8394C139.805 90.2673 139.311 89.6521 139.198 87.6474C139.164 87.0194 139.198 86.3913 139.177 85.7632C139.142 82.1711 139.268 78.579 138.973 74.987C138.743 72.1434 137.576 69.8978 134.745 68.9643C131.115 67.7469 127.676 68.1297 124.702 70.7539C124.112 71.2744 123.557 71.8337 122.967 72.3929C120.725 67.1876 112.694 66.5165 107.694 72.6467C107.616 71.4551 107.521 70.3925 107.486 69.33C107.486 68.7062 107.274 68.4696 106.619 68.5685C104.017 68.9127 101.571 69.7516 99.0387 70.2893C98.6745 70.3667 98.6051 70.5947 98.5661 70.8786C98.4967 71.2658 98.7699 71.3088 99.0517 71.4207C100.028 71.7064 100.965 72.1079 101.844 72.6166C102.321 72.9221 102.733 73.2533 102.712 73.9072C102.69 78.5833 102.712 83.2595 102.677 87.9314C102.719 88.4962 102.558 89.0575 102.221 89.5147C101.884 89.9719 101.394 90.2951 100.838 90.4265C100.266 90.5942 99.7109 90.8308 99.1298 90.947C98.4273 91.0847 98.6658 91.5966 98.6224 92.0096C98.5661 92.5774 98.9824 92.4828 99.3206 92.4828C103.397 92.4828 107.473 92.4828 111.549 92.4828C112.044 92.4828 112.195 92.3537 112.234 91.8504C112.291 91.132 111.87 91.089 111.367 90.99C108.622 90.4394 107.781 89.4499 107.629 86.6666C107.629 86.5289 107.629 86.387 107.629 86.2364C107.629 82.6429 107.629 79.0494 107.629 75.4559C107.629 75.1504 107.555 74.8235 107.803 74.5611C109.238 73.0554 110.73 71.6229 112.872 71.1755C115.868 70.5474 117.833 71.8767 118.314 74.8665C118.446 75.6933 118.516 76.5288 118.522 77.3659C118.548 80.3299 118.522 83.2939 118.522 86.2622C118.522 89.0413 117.525 90.3318 114.819 90.9943C114.234 91.1406 114.273 91.4761 114.26 91.9149C114.26 92.4311 114.533 92.4527 114.923 92.4527C118.895 92.4527 122.867 92.4527 126.839 92.4527C127.273 92.4527 127.416 92.315 127.494 91.8805C127.642 91.1148 127.143 91.0201 126.627 90.8696C123.735 89.9791 123.483 89.665 123.453 86.6752C123.414 83.152 123.531 79.6244 123.344 76.1098C123.26 75.4304 123.379 74.7414 123.688 74.1292C123.996 73.5169 124.48 73.0087 125.079 72.6682C126.141 71.967 127.195 71.2787 128.483 71.098C132.017 70.6033 134.177 72.4359 134.255 76.1184C134.333 79.6072 134.324 83.096 134.255 86.5849C134.19 89.7726 133.999 89.9748 130.855 90.9384C130.304 91.1105 130.144 91.3299 130.166 91.8805C130.192 92.5559 130.63 92.4484 131.033 92.4484H142.208C142.555 92.4484 142.945 92.5215 142.941 91.9708C142.945 91.6095 143.071 91.1406 142.446 91.0373Z" fill="black"/>
<path d="M57.4915 58.4207C52.2589 58.4035 47.0234 58.4035 41.785 58.4207C41.3514 58.4207 40.87 58.2572 40.831 59.0101C40.7963 59.608 40.9351 59.9264 41.5422 60.0382C42.1493 60.1501 42.8431 60.3394 43.4849 60.4899C46.039 61.0707 46.6721 61.8192 46.7805 64.4219C46.7805 64.908 46.7805 65.3984 46.7805 65.8845C46.7805 70.3499 46.7805 74.8152 46.7805 79.2806C46.7805 83.9224 46.7805 88.5598 46.7805 93.2016C46.8305 94.7369 46.6134 96.2693 46.1388 97.7314C45.9133 98.3638 45.5967 98.9618 44.7945 99.022C43.9922 99.0822 43.5716 98.6262 43.203 98.0369C42.9134 97.5192 42.5903 97.0206 42.236 96.5441C41.8802 96.1076 41.3795 95.8108 40.8234 95.7068C40.2674 95.6028 39.6921 95.6983 39.2005 95.9763C38.7152 96.2399 38.3451 96.6719 38.1611 97.1895C37.977 97.707 37.992 98.2738 38.2031 98.7811C38.6368 99.9813 39.6862 100.502 40.805 100.842C45.523 102.223 49.777 99.9297 51.3988 95.1073C52.1647 92.6736 52.525 90.1322 52.4656 87.5833C52.4656 80.2213 52.4656 72.8608 52.4656 65.5016C52.4473 64.8051 52.4748 64.1082 52.548 63.4152C52.7995 61.5912 53.3372 61.0578 55.1498 60.6405C56.0171 60.4469 56.8454 60.2103 57.704 60.0296C58.4021 59.8877 58.4455 59.4317 58.4108 58.8681C58.3848 58.1497 57.8427 58.4207 57.4915 58.4207Z" fill="black"/>
<path d="M88.9435 88.8652C88.4535 89.3513 87.9505 90.0439 87.209 89.8288C86.372 89.5922 86.3981 88.663 86.2983 87.9704C85.9905 85.4755 85.9382 82.956 86.1422 80.4507C86.2623 78.5007 86.226 76.5443 86.0338 74.6001C85.6609 70.8789 83.948 68.9732 80.4485 68.4527C78.219 68.1089 75.9419 68.229 73.7617 68.8054C72.1496 69.1756 70.6496 69.9218 69.3863 70.9822C67.7081 72.4663 67.4046 74.9399 68.6795 76.5445C69.0246 76.9683 69.4917 77.2776 70.0185 77.4313C70.5453 77.585 71.1068 77.5758 71.6282 77.4049C72.088 77.2234 72.4815 76.9079 72.7571 76.5002C73.0327 76.0924 73.1773 75.6115 73.172 75.1206C73.1032 74.5677 72.9041 74.0386 72.5909 73.5762C72.0619 72.5008 72.2353 71.821 73.263 71.1844C74.4021 70.4704 75.7453 70.1456 77.0878 70.2595C79.3037 70.4272 80.5569 71.4984 81.0122 73.658C81.3418 75.1378 81.216 76.6435 81.3028 78.1405C81.3505 78.8977 81.0643 79.173 80.3618 79.3193C78.2337 79.7642 76.1317 80.3243 74.0653 80.997C72.1072 81.5683 70.3046 82.5712 68.7922 83.9309C68.0649 84.5738 67.5363 85.4082 67.2676 86.3371C66.999 87.2661 67.0014 88.2515 67.2745 89.1792C67.7558 91.0935 69.1044 92.1905 70.9474 92.6938C73.2476 93.3104 75.6992 93.0174 77.7859 91.8765C79.0864 91.1725 80.2733 90.2793 81.3071 89.2265C82.053 92.2163 83.7572 93.3994 86.5845 92.9089C88.5966 92.5605 89.5853 90.9903 90.6044 89.4674C90.6911 89.3341 90.6304 89.2265 90.561 89.0932C90.1057 88.2586 89.607 88.1898 88.9435 88.8652Z" fill="black"/>
<path d="M163.859 91.0458C161.132 90.5339 160.087 89.2949 160.074 86.5245C160.061 83.7541 160.074 80.932 160.074 78.153C160.074 75.189 160.074 72.225 160.074 69.261C160.074 68.6157 159.944 68.4221 159.254 68.5168C156.605 68.8781 154.051 69.6998 151.449 70.2375C151.38 70.2429 151.313 70.2618 151.252 70.2933C151.191 70.3247 151.137 70.3679 151.093 70.4204C151.048 70.473 151.015 70.5337 150.995 70.5991C150.975 70.6644 150.969 70.7331 150.976 70.8011C150.976 71.1409 151.089 71.2743 151.41 71.3775C152.351 71.6594 153.259 72.0386 154.12 72.5089C154.466 72.6731 154.753 72.9383 154.943 73.2689C155.133 73.5995 155.216 73.9797 155.182 74.3587C155.13 78.2304 155.161 82.1022 155.161 85.9739C155.161 89.6735 155.048 89.8456 151.479 90.9684C151.369 90.9833 151.264 91.0209 151.17 91.0788C151.076 91.1367 150.995 91.2136 150.933 91.3045C150.871 91.3953 150.829 91.4982 150.809 91.6063C150.79 91.7144 150.793 91.8254 150.82 91.932C150.859 92.6117 151.323 92.4697 151.722 92.4697C155.729 92.4697 159.734 92.4697 163.738 92.4697C164.133 92.4697 164.653 92.7063 164.688 91.9062C164.744 91.2222 164.38 91.1404 163.859 91.0458Z" fill="black"/>
<path d="M185.442 91.0416C182.667 90.5167 181.656 89.3423 181.626 86.5504C181.595 83.7585 181.626 80.902 181.626 78.0757C181.626 75.1461 181.626 72.2165 181.626 69.2869C181.626 68.6889 181.543 68.4265 180.819 68.5125C178.17 68.8825 175.616 69.6956 173.014 70.2591C172.875 70.2763 172.749 70.345 172.659 70.4511C172.57 70.5573 172.525 70.6932 172.532 70.8313C172.498 71.1883 172.684 71.3002 172.992 71.4034C173.931 71.6906 174.839 72.0696 175.702 72.5348C176.032 72.6902 176.307 72.941 176.49 73.2543C176.674 73.5676 176.757 73.9287 176.73 74.29C176.687 78.6865 176.73 83.0788 176.708 87.4753C176.708 89.1186 176.171 89.893 174.64 90.4866C174.16 90.6991 173.658 90.8592 173.144 90.9641C172.485 91.0674 172.394 91.3943 172.42 91.988C172.45 92.715 172.966 92.4827 173.326 92.4827C177.33 92.4827 181.334 92.4827 185.338 92.4827C185.698 92.4827 186.205 92.7107 186.231 91.9751C186.309 91.3384 186.045 91.1405 185.442 91.0416Z" fill="black"/>
<path d="M178.937 62.5546C179.736 62.5355 180.495 62.2044 181.05 61.6334C181.604 61.0624 181.91 60.2974 181.899 59.5046C181.885 58.6968 181.55 57.927 180.967 57.363C180.384 56.7989 179.6 56.4864 178.785 56.4933C178.382 56.5004 177.985 56.5872 177.616 56.7485C177.247 56.9099 176.914 57.1425 176.636 57.4328C176.359 57.7232 176.143 58.0655 176 58.4396C175.858 58.8138 175.792 59.2124 175.806 59.6122C175.807 60.0124 175.89 60.4083 176.049 60.7758C176.209 61.1433 176.442 61.4747 176.735 61.75C177.028 62.0252 177.374 62.2385 177.753 62.3768C178.131 62.5152 178.534 62.5756 178.937 62.5546Z" fill="black"/>
<path d="M157.255 62.555C157.657 62.5637 158.057 62.492 158.431 62.344C158.805 62.1961 159.145 61.975 159.43 61.694C159.716 61.413 159.942 61.0778 160.094 60.7083C160.246 60.3389 160.322 59.9428 160.317 59.5437C160.32 59.1432 160.243 58.746 160.09 58.3754C159.937 58.0047 159.711 57.6682 159.425 57.3853C159.139 57.1025 158.799 56.8791 158.425 56.7282C158.051 56.5773 157.65 56.502 157.246 56.5065C156.444 56.5144 155.676 56.8342 155.109 57.3972C154.541 57.9603 154.219 58.7217 154.211 59.5179C154.208 59.9162 154.284 60.3113 154.435 60.6802C154.587 61.0491 154.811 61.3845 155.094 61.667C155.377 61.9495 155.714 62.1734 156.085 62.3258C156.456 62.4783 156.854 62.5562 157.255 62.555Z" fill="black"/>
<path d="M81.2724 84.1634C81.2855 84.3366 81.2855 84.5106 81.2724 84.6839C81.1423 85.6303 81.7061 86.7359 80.9689 87.5017C79.8102 88.7864 78.2545 89.6534 76.5457 89.9666C74.5423 90.2893 73.2154 89.7214 72.5909 88.3577C71.8494 86.7187 72.3177 85.0668 73.8919 83.8106C75.9083 82.1888 78.3801 81.5736 80.7607 80.7649C81.2291 80.6014 81.2898 80.8595 81.2898 81.2338C81.2638 82.2103 81.2724 83.1868 81.2724 84.1634Z" fill="#FBFEFF"/>
<path d="M147.424 106.748C147.402 106.846 147.355 106.937 147.288 107.013C147.22 107.088 147.134 107.145 147.039 107.178C146.843 107.135 146.752 107.036 146.852 106.834C147.004 106.494 147.221 106.666 147.424 106.748Z" fill="#3C3207"/>
<path d="M126.545 139.597C125.799 138.272 124.984 138.126 123.188 138.995C122.932 139.094 122.703 139.141 122.711 138.741C124.051 137.507 125.868 137.511 126.996 138.741C126.783 139.004 127.095 139.529 126.545 139.597Z" fill="#151202"/>
<path d="M115.339 154.68L115.166 154.25C114.992 153.884 115.3 153.57 115.27 153.217C115.478 152.714 115.309 152.073 115.847 151.694C116.107 151.694 116.155 151.897 116.22 152.077C116.285 152.258 116.081 152.507 116.172 152.753L115.968 153.85C115.691 154.06 115.691 154.4 115.595 154.71C115.554 154.728 115.508 154.734 115.463 154.729C115.418 154.724 115.375 154.707 115.339 154.68Z" fill="#CDAB18"/>
<path d="M119.528 142.519C119.655 142.099 119.885 141.718 120.198 141.41C120.511 141.101 120.896 140.874 121.319 140.75L119.984 142.738C119.894 142.753 119.802 142.74 119.72 142.701C119.639 142.662 119.571 142.598 119.528 142.519Z" fill="#3B3107"/>
<path d="M119.736 143.147C119.455 143.981 119.037 144.765 118.501 145.465C118.436 145.564 118.375 145.564 118.31 145.465C117.985 145.108 118.279 144.876 118.483 144.605C118.687 144.334 118.917 144.149 118.782 143.801L119.246 142.919C119.528 142.764 119.637 142.932 119.736 143.147Z" fill="#4E4109"/>
<path d="M126.545 139.597C126.978 139.472 126.302 138.737 126.978 138.737C127.49 139.193 127.512 139.855 127.72 140.436H127.655H127.594C126.965 140.677 127.364 139.748 126.883 139.821L126.683 140.062C126.621 140.003 126.575 139.93 126.551 139.848C126.526 139.766 126.524 139.68 126.545 139.597Z" fill="#000A21"/>
<path d="M116.137 152.163L115.929 151.66C115.879 151.601 115.844 151.531 115.827 151.457C115.809 151.382 115.81 151.304 115.829 151.229C115.881 150.946 115.877 150.627 116.198 150.472C116.276 150.365 116.319 150.223 116.458 150.167C116.524 150.146 116.595 150.144 116.661 150.161C116.728 150.179 116.789 150.215 116.835 150.266C116.757 150.627 116.684 150.989 116.61 151.35C116.337 151.574 116.389 151.952 116.137 152.163Z" fill="#D2AF18"/>
<path d="M117.794 147.401C117.664 148.195 117.403 148.962 117.022 149.672C116.367 149.47 116.809 149.044 116.818 148.704C116.896 148.481 116.974 148.274 117.03 148.025C117.074 147.841 117.166 147.672 117.295 147.534C117.451 147.409 117.603 147.293 117.794 147.401Z" fill="#433808"/>
<path d="M117.794 147.401L117.481 147.517C117.204 147.405 117.356 147.13 117.252 146.949C117.616 146.678 117.568 146.183 117.837 145.861C117.904 145.87 117.966 145.901 118.013 145.948C118.061 145.996 118.092 146.057 118.102 146.123C118.327 146.635 117.824 146.954 117.794 147.401Z" fill="#937B11"/>
<path d="M115.92 151.311C115.92 151.427 115.92 151.543 115.92 151.659C115.738 152.193 115.561 152.731 115.383 153.264C115.162 153.178 115.287 152.924 115.149 152.804C115.339 152.227 115.534 151.647 115.73 151.083C115.868 151.1 115.877 151.216 115.92 151.311Z" fill="#413607"/>
<path d="M117.065 148.597C117.135 148.958 116.662 149.303 117.035 149.672L116.818 150.279H116.445C116.354 150.223 116.287 150.135 116.257 150.032C116.227 149.93 116.237 149.82 116.285 149.724C116.445 149.341 116.41 148.864 116.766 148.576C116.813 148.552 116.866 148.542 116.919 148.546C116.971 148.549 117.022 148.567 117.065 148.597Z" fill="#CFAC18"/>
<path d="M122.711 138.741C122.763 138.82 122.834 138.884 122.917 138.929C123 138.973 123.094 138.996 123.188 138.995L122.013 139.855C122.032 139.628 122.105 139.408 122.226 139.214C122.347 139.021 122.514 138.858 122.711 138.741Z" fill="#2D2505"/>
<path d="M116.848 148.627C116.701 148.971 116.549 149.316 116.415 149.664C116.354 149.733 116.298 149.729 116.254 149.664C116.15 149.122 116.562 148.722 116.649 148.232C117.022 148.193 116.926 148.412 116.848 148.627Z" fill="#221C03"/>
<path d="M115.361 156.766C114.589 156.676 114.984 156.104 114.927 155.721C115.049 155.54 115.244 156 115.361 155.673C115.396 155.659 115.434 155.657 115.47 155.667C115.507 155.678 115.538 155.699 115.56 155.729C115.616 156.087 115.545 156.453 115.361 156.766Z" fill="#3F3407"/>
<path d="M117.265 146.949C117.512 147.07 117.403 147.332 117.494 147.517C117.408 147.672 117.325 147.827 117.243 147.982C117.213 148.011 117.178 148.035 117.139 148.051C117.1 148.067 117.058 148.076 117.015 148.076C116.973 148.076 116.931 148.067 116.892 148.051C116.853 148.035 116.817 148.011 116.788 147.982C116.801 147.569 117.091 147.285 117.265 146.949Z" fill="#2D2505"/>
<path d="M115.157 152.804C115.235 152.955 115.313 153.11 115.387 153.264L115.166 154.254C115.098 154.258 115.03 154.258 114.962 154.254L115.157 152.804Z" fill="#100D01"/>
<path d="M116.137 152.163C116.259 151.879 116.159 151.475 116.593 151.363C116.449 151.827 116.311 152.292 116.159 152.757C115.89 152.572 116.198 152.357 116.137 152.163Z" fill="#1F1A03"/>
<path d="M115.543 155.729C115.488 155.723 115.433 155.723 115.378 155.729C115.092 155.592 115.248 155.299 115.153 155.093C115.127 155.011 115.132 154.922 115.166 154.844C115.201 154.765 115.262 154.701 115.339 154.663C115.382 154.633 115.435 154.619 115.487 154.624C115.747 154.671 115.6 154.951 115.743 155.054C115.761 155.174 115.753 155.297 115.719 155.414C115.684 155.53 115.624 155.638 115.543 155.729Z" fill="#856F0F"/>
<path d="M115.743 155.08C115.547 154.998 115.53 154.813 115.487 154.65C115.617 154.37 115.43 153.897 115.968 153.862C115.894 154.262 115.821 154.671 115.743 155.08Z" fill="#000A21"/>
<path d="M119.736 143.146L119.246 142.936C119.338 142.794 119.433 142.656 119.528 142.505C119.617 142.499 119.706 142.516 119.786 142.554C119.866 142.593 119.934 142.651 119.984 142.725L119.736 143.146Z" fill="#211C03"/>
<path d="M118.115 146.123L117.85 145.861L118.31 145.465H118.501C118.535 145.775 118.6 146.11 118.115 146.123Z" fill="#55470A"/>
<path d="M116.788 147.978H117.243C117.217 148.193 117.295 148.438 117.065 148.593L116.848 148.623C116.848 148.446 116.827 148.283 116.636 148.193L116.788 147.978Z" fill="#7E690F"/>
<path d="M116.241 149.647C116.264 149.628 116.292 149.618 116.322 149.618C116.351 149.618 116.379 149.628 116.402 149.647C116.402 149.853 116.432 150.077 116.445 150.266L116.181 150.468C115.912 150.18 115.795 149.892 116.241 149.647Z" fill="#A68B13"/>
<path d="M118.782 143.817C119.047 144.222 118.887 144.467 118.483 144.622L118.782 143.817Z" fill="#221C03"/>
<path d="M127.373 145.267L127.156 144.635C127.052 144.415 127.156 144.385 127.351 144.403L127.555 144.618C127.578 144.732 127.573 144.851 127.541 144.964C127.51 145.077 127.452 145.18 127.373 145.267Z" fill="#443908"/>
<path d="M115.92 151.311L115.738 151.07C115.773 150.782 115.699 150.412 116.198 150.481C116.107 150.756 116.016 151.036 115.92 151.311Z" fill="#2F2705"/>
<path d="M127.741 108.421C126.54 107.866 125.651 108.619 124.849 109.368C123.727 110.477 122.807 111.771 122.13 113.192C118.488 120.269 116.315 127.793 115.088 135.618C114.945 136.534 115.088 137.584 114.498 138.337C113.561 139.498 112.469 140.539 111.432 141.636C111.133 141.352 111.189 140.978 111.103 140.655C110.591 138.75 109.424 138.023 107.49 138.423C106.495 138.641 105.535 138.994 104.637 139.472C104.13 139.73 103.614 139.976 103.002 140.281C103.883 136.666 105.495 133.266 107.742 130.288C107.985 129.952 108.362 129.776 107.686 129.221C106.818 128.511 106.424 128.941 105.951 129.432C104.881 130.64 104.058 132.042 103.527 133.561C101.927 137.833 99.5201 141.675 97.1524 145.534C96.2027 147.078 95.1837 148.597 93.7613 149.78C92.4604 150.859 91.8186 150.696 91.3719 149.109C90.7364 146.893 90.5217 144.579 90.7388 142.286C91.0554 138.978 91.6928 135.738 92.3086 132.486C92.5645 131.122 92.9634 129.772 92.8723 128.356C92.8246 127.599 92.7076 126.881 91.914 126.519C91.1204 126.158 90.4006 126.481 89.8065 127.027C89.3262 127.442 88.8903 127.904 88.5056 128.408C88.0242 129.079 87.5472 129.113 86.8317 128.743C84.5768 127.573 82.4606 128.042 80.5352 129.509C78.315 131.2 77.2135 133.596 76.5154 136.203C76.0371 137.743 75.9287 139.372 76.1988 140.961C76.5154 142.445 77.413 142.875 78.857 142.367C79.7111 142.03 80.4406 141.442 80.9472 140.681L84.0781 136.474C85.1969 134.973 86.32 133.463 87.5169 131.875C87.8938 132.597 88.0605 133.409 87.9982 134.22C87.9982 134.469 87.8594 134.856 88.2324 134.921C88.3925 134.933 88.552 134.89 88.6839 134.799C88.8158 134.708 88.9121 134.575 88.9566 134.422C89.2351 133.701 89.2671 132.909 89.0476 132.168C88.5576 130.06 88.9175 129.118 90.7518 127.866C90.8906 127.771 91.0033 127.59 91.2072 127.676C91.411 127.763 91.3676 127.969 91.3503 128.107C91.2852 128.765 91.2332 129.427 91.1248 130.077C90.3832 134.379 88.9566 138.599 88.7961 143.013C88.7007 145.362 88.8438 147.702 89.8672 149.87C90.7605 151.767 92.2696 152.21 94.1256 151.191C95.2782 150.511 96.2622 149.584 97.0049 148.476C98.3883 146.583 99.468 144.506 100.669 142.501C101.007 141.937 101.233 141.64 101.97 141.911C102.293 142.003 102.631 142.027 102.963 141.982C103.295 141.937 103.614 141.823 103.9 141.649C105.335 140.931 106.697 140.04 108.284 139.644C108.748 139.528 109.303 139.395 109.403 140.006C109.667 141.597 110.088 143.236 108.999 144.738C107.078 147.358 105.123 149.956 103.705 152.911C102.807 154.778 102.1 156.706 102.187 158.822C102.23 159.979 102.755 160.371 103.896 160.152C104.445 160.03 104.958 159.781 105.392 159.424C106.388 158.588 107.182 157.539 107.716 156.357C109.338 153.104 110.379 149.596 110.79 145.99C111.081 143.628 112.772 142.501 114.155 141.025C114.191 141.277 114.182 141.533 114.129 141.782C113.527 145.607 112.972 149.435 113.141 153.329C113.21 154.86 113.197 156.4 113.665 157.884C113.774 158.224 113.913 158.659 114.429 158.534C114.862 158.431 115.318 158.315 115.266 157.674C115.259 157.36 115.273 157.047 115.309 156.736C115.07 156.46 115.162 156.125 115.136 155.811C115.15 155.592 115.19 155.375 115.257 155.166C115.312 155 115.354 154.83 115.383 154.658C115.387 154.568 115.369 154.479 115.328 154.398C115.288 154.317 115.228 154.248 115.153 154.198C115.114 154.177 115.069 154.169 115.026 154.176C114.982 154.182 114.942 154.202 114.91 154.232C114.875 154.292 114.849 154.357 114.81 154.417C114.791 154.424 114.769 154.424 114.75 154.417C114.615 154.133 114.573 153.814 114.628 153.505C114.524 150.283 115.001 147.108 115.461 143.933C115.76 141.877 115.764 139.902 117.217 137.911C121.524 132.148 124.999 125.818 127.542 119.103C128.496 116.543 129.277 113.941 129.277 111.183C129.251 110.013 128.882 108.95 127.741 108.421ZM86.3417 131.148C84.2371 133.893 82.1296 136.636 80.0192 139.378C79.7969 139.687 79.5458 139.975 79.269 140.238C78.9178 140.548 78.5795 141.159 78.1112 140.948C77.7296 140.776 77.9551 140.122 77.8944 139.558C78.0852 136.427 79.0088 133.441 81.2941 131.023C82.4953 129.733 83.9697 128.954 85.8213 129.513C86.9054 129.858 87.0052 130.253 86.3417 131.148ZM109.073 147.977C108.445 150.976 107.416 153.879 106.012 156.607C105.636 157.311 105.2 157.983 104.711 158.616C104.394 159.046 103.939 159.519 103.41 159.347C102.794 159.145 103.267 158.487 103.158 158.056C103.215 157.824 103.236 157.6 102.976 157.459C102.868 157.385 102.811 157.295 102.902 157.175C103.154 156.349 103.002 155.359 104.034 154.864C104.399 154.688 104.16 154.112 104.368 153.729C104.754 153.019 105.487 152.559 105.752 151.78C105.752 151.092 106.268 150.717 106.679 150.283C107.469 149.143 108.254 148.003 109.13 146.73C109.244 147.139 109.224 147.575 109.073 147.973V147.977ZM127.767 111.583C127.724 114.302 126.965 116.853 125.981 119.374C123.583 125.53 120.109 131.14 116.948 137.012C116.811 136.886 116.714 136.724 116.667 136.544C116.621 136.365 116.628 136.176 116.688 136.001C117.794 130.094 119.155 124.265 121.363 118.673C122.451 115.928 123.639 113.205 125.439 110.813C125.929 110.159 126.501 109.178 127.382 109.497C128.201 109.789 127.767 110.86 127.767 111.583Z" fill="black"/>
<path d="M106.662 150.274C106.433 150.818 106.12 151.323 105.734 151.771C105.37 151.075 105.6 150.7 106.662 150.274Z" fill="#272004"/>
<path d="M114.247 154.835C113.813 154.219 113.765 153.785 114.051 153.23C114.442 153.733 114.268 154.211 114.247 154.835Z" fill="#3B3206"/>
<path d="M128.297 114.883C128.183 114.443 128.198 113.981 128.34 113.549C128.423 113.186 128.478 112.816 128.505 112.444C128.654 112.843 128.679 113.278 128.574 113.691C128.509 114.023 128.422 114.371 128.297 114.883Z" fill="#393006"/>
<path d="M109.65 148.605C109.65 147.999 110.001 147.457 110.023 146.846C110.045 147.444 110.175 148.046 109.862 148.605C109.789 148.7 109.719 148.7 109.65 148.605Z" fill="#1E1903"/>
<path d="M114.19 149.561C114.312 150.18 114.364 150.516 114.056 150.804C113.977 150.601 113.947 150.382 113.971 150.166C113.994 149.95 114.069 149.742 114.19 149.561Z" fill="#191602"/>
<path d="M126.696 120.058C126.659 119.828 126.675 119.593 126.742 119.369C126.808 119.146 126.925 118.94 127.082 118.768C127.173 119.249 126.965 119.533 126.696 120.058Z" fill="#342B06"/>
<path d="M114.325 146.304C114.435 146.531 114.484 146.782 114.468 147.033C114.451 147.284 114.369 147.527 114.229 147.737C114.277 147.066 114.325 146.683 114.325 146.304Z" fill="#231E03"/>
<path d="M115.153 155.11C115.426 155.252 115.322 155.54 115.378 155.747C115.344 155.897 115.313 156.177 115.266 156.177C114.958 156.177 115.153 155.794 114.923 155.712C115.001 155.519 115.075 155.316 115.153 155.11Z" fill="#E2BD1A"/>
<path d="M116.74 132.181C116.775 132.544 116.693 132.908 116.506 133.222C116.421 133.047 116.398 132.85 116.441 132.661C116.483 132.472 116.589 132.303 116.74 132.181Z" fill="#3C3207"/>
<path d="M109.364 150.937C109.195 150.481 109.147 150.201 109.446 149.866C109.546 150.221 109.517 150.6 109.364 150.937Z" fill="#000A21"/>
<path d="M91.4587 133.119C91.4548 132.94 91.4918 132.762 91.5669 132.599C91.642 132.436 91.7532 132.291 91.8923 132.177C91.9834 132.611 91.7969 132.844 91.4587 133.119Z" fill="#000A21"/>
<path d="M102.885 157.167L103.072 157.386C103.271 157.605 103.05 157.717 102.946 157.859L102.876 158.427C102.816 158.517 102.746 158.526 102.673 158.448C102.72 158.018 102.616 157.558 102.885 157.167Z" fill="#CEAC18"/>
<path d="M114.81 143.228C114.763 143.166 114.731 143.094 114.716 143.017C114.7 142.941 114.702 142.862 114.72 142.787C114.739 142.711 114.774 142.641 114.823 142.58C114.873 142.52 114.935 142.471 115.005 142.437C115.248 142.763 115.014 142.987 114.81 143.228Z" fill="#000A21"/>
<path d="M115.248 140.716C115.16 140.587 115.117 140.433 115.125 140.278C115.134 140.122 115.194 139.974 115.296 139.855C115.5 140.182 115.309 140.415 115.248 140.716Z" fill="#000A21"/>
<path d="M120.795 118.088C120.951 117.615 121.029 117.387 121.133 117.073C121.311 117.447 121.263 117.684 120.795 118.088Z" fill="#2E2705"/>
<path d="M128.635 110.46C128.727 110.587 128.787 110.733 128.81 110.887C128.833 111.042 128.819 111.199 128.769 111.347C128.667 111.225 128.6 111.079 128.576 110.922C128.553 110.766 128.573 110.606 128.635 110.46Z" fill="#201B03"/>
<path d="M102.673 158.448L102.876 158.427C102.876 158.689 103.007 158.96 102.772 159.218C102.711 159.177 102.659 159.124 102.62 159.061C102.581 158.999 102.556 158.929 102.547 158.856C102.537 158.783 102.544 158.709 102.565 158.638C102.587 158.568 102.624 158.503 102.673 158.448Z" fill="#6F5D0D"/>
<path d="M109.65 148.605H109.862C109.887 148.77 109.87 148.938 109.811 149.094C109.753 149.249 109.656 149.388 109.528 149.496C109.351 149.152 109.693 148.907 109.65 148.605Z" fill="#2B2405"/>
<path d="M115.031 141.83C114.91 141.516 114.858 141.262 115.057 141.181C115.257 141.099 115.196 141.301 115.17 141.413C115.144 141.525 115.109 141.598 115.031 141.83Z" fill="#000A21"/>
<path d="M92.2392 129.307C92.3737 129.737 92.404 129.914 92.2392 130.047C92.2176 130.047 92.0831 130.008 92.0831 130C92.1135 129.858 92.1525 129.677 92.2392 129.307Z" fill="#79650E"/>
<path d="M110.183 146.429C110.131 146.274 110.062 146.179 110.084 146.119C110.122 146 110.202 145.898 110.309 145.831C110.417 145.792 110.439 145.93 110.4 146.02C110.361 146.111 110.283 146.244 110.183 146.429Z" fill="#534509"/>
<path d="M102.946 157.859C102.989 157.7 103.028 157.541 103.072 157.386C103.657 157.549 103.189 157.816 103.141 158.048L102.946 157.859Z" fill="#5F4F0B"/>
<path d="M106.614 149.776C106.567 149.655 106.497 149.565 106.515 149.505C106.532 149.445 106.632 149.38 106.697 149.32C106.745 149.389 106.836 149.466 106.823 149.522C106.81 149.578 106.714 149.647 106.614 149.776Z" fill="#382F06"/>
<path d="M151.145 137.387C150.395 137.06 150.477 137.623 150.365 137.851C148.652 141.293 146.995 144.734 145.282 148.176C143.569 151.617 142.156 155.338 139.827 158.5C139.393 159.064 139.09 160.113 138.422 159.984C137.681 159.838 137.633 158.767 137.472 158.031C136.228 152.262 136.033 146.416 136.349 140.561C136.333 139.792 136.481 139.028 136.783 138.32C137.65 136.599 138.517 134.904 139.385 133.196C142.993 126.034 146.427 118.802 148.968 111.188C149.402 109.859 149.835 108.525 149.723 107.105C149.658 106.314 149.393 105.583 148.569 105.264C147.745 104.946 147.208 105.419 146.713 105.94C146.249 106.414 145.829 106.928 145.456 107.475C144.073 109.533 142.892 111.716 141.93 113.997C138.876 121.186 136.758 128.732 135.629 136.453C135.622 136.62 135.566 136.782 135.467 136.918C135.368 137.054 135.232 137.159 135.074 137.219C132.894 138.262 130.8 139.474 128.813 140.845C128.153 141.275 127.867 141.211 127.746 140.449C127.726 140.436 127.703 140.426 127.679 140.421C127.655 140.415 127.63 140.415 127.606 140.419C127.582 140.424 127.559 140.433 127.538 140.446C127.517 140.46 127.5 140.477 127.486 140.497C127.376 140.761 127.352 141.053 127.416 141.331C127.356 140.768 127.438 140.174 126.913 139.757C126.735 139.783 126.618 139.852 126.709 140.062C126.909 140.712 126.875 141.41 126.613 142.038C126.351 142.666 125.878 143.184 125.274 143.504C124.477 144.074 123.719 144.696 123.006 145.367C121.395 146.663 119.982 148.183 118.808 149.879C118.115 150.929 117.508 152.03 117.468 153.321C117.447 154.336 117.972 154.878 118.986 154.895C119.761 154.897 120.528 154.742 121.24 154.439C121.952 154.137 122.594 153.693 123.127 153.136C125.404 150.985 126.618 148.223 127.382 145.246C127.555 145.022 127.434 144.816 127.312 144.644C127.275 144.595 127.248 144.54 127.234 144.48C127.25 144.495 127.267 144.508 127.286 144.519C127.298 144.543 127.315 144.564 127.336 144.582C127.357 144.599 127.382 144.611 127.408 144.619C127.434 144.626 127.461 144.628 127.488 144.624C127.515 144.62 127.541 144.611 127.564 144.597C127.772 144.089 127.603 143.418 128.093 143.052C130.346 141.348 132.768 139.877 135.322 138.66C134.731 144.202 134.754 149.792 135.391 155.33C135.528 157.002 135.968 158.636 136.692 160.152C137.446 161.58 138.565 161.752 139.762 160.651C140.32 160.071 140.805 159.425 141.206 158.728C142.828 156.315 143.981 153.661 145.252 151.062C147.322 146.838 149.37 142.605 151.397 138.363C151.522 138.088 151.934 137.731 151.145 137.387ZM137.472 133.085C139.207 125.242 141.15 117.464 145.07 110.341C145.668 109.244 146.371 108.211 147.039 107.144C147.039 106.899 147.229 106.809 147.424 106.714C147.702 106.611 147.858 106.155 148.218 106.361C148.483 106.516 148.318 106.869 148.3 107.136C148.181 108.382 147.902 109.608 147.468 110.784C144.97 118.286 141.566 125.41 138.088 132.491C137.932 132.801 137.798 133.119 137.654 133.437C137.256 133.511 137.412 133.3 137.472 133.102V133.085ZM126.081 145.233C125.167 148.289 123.355 151.005 120.877 153.033C120.378 153.463 119.645 154.035 119.142 153.618C118.743 153.286 119.216 152.452 119.502 151.897C121.042 148.929 123.431 146.735 126.107 144.536C126.121 144.775 126.112 145.014 126.081 145.25V145.233Z" fill="black"/>
<path d="M135.647 146.076V143.869C135.924 144.605 136.128 145.345 135.647 146.076Z" fill="#3C3307"/>
<path d="M126.9 139.825C126.909 139.726 126.939 139.629 126.987 139.541C127.121 139.395 127.139 139.58 127.191 139.64C127.395 139.873 127.317 140.251 127.624 140.44C127.603 140.81 127.585 141.18 127.559 141.731C127.074 141.043 127.069 140.41 126.9 139.825Z" fill="#CBAA18"/>
<path d="M135.959 151.531C135.46 150.761 135.729 150.098 135.59 149.38C136.119 150.042 136.007 150.692 135.959 151.531Z" fill="#74610E"/>
<path d="M135.625 147.81V146.678C135.872 147.336 136.206 147.724 135.833 148.205C135.638 148.137 135.751 147.926 135.625 147.81Z" fill="#514409"/>
<path d="M127.056 144.966C127.013 145.439 126.991 145.749 126.623 146.037C126.613 145.838 126.647 145.639 126.722 145.455C126.797 145.27 126.911 145.103 127.056 144.966Z" fill="#6A590C"/>
<path d="M144.601 121.078C144.701 121.529 144.454 121.701 144.276 121.912C144.252 121.757 144.27 121.598 144.327 121.452C144.384 121.306 144.478 121.176 144.601 121.078Z" fill="#362D06"/>
<path d="M148.99 107.867C149.424 108.194 149.129 108.417 149.025 108.839C148.937 108.693 148.888 108.527 148.882 108.357C148.876 108.187 148.913 108.019 148.99 107.867Z" fill="#000A21"/>
<path d="M146.631 115.743C146.705 115.885 146.728 116.047 146.697 116.204C146.665 116.36 146.581 116.501 146.457 116.604C146.232 116.302 146.414 116.092 146.631 115.743Z" fill="#000A21"/>
<path d="M138.7 125.556C138.517 125.126 138.834 124.958 138.864 124.696C138.942 124.98 139.081 125.277 138.7 125.556Z" fill="#372E06"/>
<path d="M127.334 144.403L127.139 144.635C126.705 144.312 126.961 144.071 127.204 143.805C127.442 143.994 127.334 144.209 127.334 144.403Z" fill="#B59715"/>
<path d="M137.472 133.101L137.65 133.471L137.42 134.069C137.311 133.928 137.256 133.753 137.266 133.575C137.275 133.398 137.349 133.23 137.472 133.101Z" fill="#6D5B0C"/>
<path d="M140.994 118.101C141.075 118.257 141.095 118.438 141.052 118.608C141.008 118.779 140.902 118.927 140.755 119.025C140.612 118.673 140.829 118.402 140.994 118.101Z" fill="#C4A317"/>
<path d="M135.625 147.81L135.833 148.205C135.833 148.399 135.799 148.597 135.773 148.915C135.596 148.575 135.544 148.184 135.625 147.81Z" fill="#BE9E16"/>
<path d="M136.44 155.239C136.397 155.295 136.332 155.433 136.289 155.424C136.203 155.407 136.127 155.358 136.079 155.286C136.03 155.214 136.012 155.126 136.028 155.041C136.043 154.955 136.086 154.877 136.15 154.817C136.332 154.852 136.388 155.02 136.44 155.239Z" fill="#725F0D"/>
<path d="M149.133 141.8C149.181 141.408 149.389 141.314 149.619 141.159C149.666 141.554 149.476 141.692 149.133 141.8Z" fill="#322A05"/>
<path d="M137 132.792C137.067 132.903 137.088 133.035 137.06 133.162C137.032 133.288 136.956 133.399 136.848 133.472C136.798 133.357 136.786 133.23 136.813 133.107C136.84 132.985 136.906 132.875 137 132.792Z" fill="#998011"/>
<path d="M136.085 153.991C135.681 153.828 135.877 153.561 135.734 153.187C135.859 153.278 135.958 153.4 136.02 153.542C136.082 153.683 136.104 153.838 136.085 153.991Z" fill="#7F6A0F"/>
<path d="M136.761 157.695C136.601 157.506 136.432 157.338 136.531 157.05C136.874 157.183 136.922 157.39 136.761 157.695Z" fill="#69570C"/>
</svg>
