<svg width="307" height="282" viewBox="0 0 307 282" fill="none" xmlns="http://www.w3.org/2000/svg">
<path d="M298.76 152.897C296.88 157.918 294.466 162.707 292.188 167.559C287.165 178.36 281.15 188.688 274.216 198.412C266.62 209.13 257.771 218.933 247.85 227.621C240.578 233.951 232.688 239.562 224.297 244.372C210.626 252.27 195.585 257.609 179.936 260.119C174.597 260.965 169.259 261.367 163.921 261.775C161.474 261.936 159.019 261.936 156.572 261.775C152.639 261.554 148.73 261.128 144.792 261C141.678 260.895 138.558 260.953 135.438 260.778C129.868 260.475 124.328 260.037 118.83 259.297C107.247 257.759 95.8381 255.15 84.7538 251.505C74.017 248.017 63.6877 243.416 53.94 237.781C53.4655 237.501 52.9969 237.081 52.3504 237.349C54.0135 239.242 55.7818 241.043 57.6472 242.744C76.3345 260.387 99.5371 272.717 124.785 278.422C150.034 284.126 176.382 282.993 201.028 275.142C225.673 267.291 247.692 253.015 264.741 233.836C281.79 214.656 293.231 191.29 297.847 166.224C298.783 161.449 299.401 156.619 299.697 151.765C299.033 151.847 298.926 152.442 298.76 152.897Z" fill="#FDD41E"/>
<path d="M48.6195 50.3986C50.3278 49.652 51.9114 48.6488 53.7265 48.1123C66.224 44.5137 78.6385 40.5943 91.053 36.7683C104.357 32.6856 117.715 28.7663 131.238 25.4477C145.379 21.9482 159.632 19.0904 174.146 17.5623C182.172 16.7224 190.197 16.0167 198.276 15.9642C202.835 15.937 207.4 15.937 211.971 15.9642C214.8 15.9642 217.636 15.8009 220.465 16.1917C221.177 16.2908 222.013 16.46 222.588 15.7192C221.728 15.2993 220.88 14.8677 220.02 14.4536C200.519 4.98869 179.072 0.0445718 157.325 0.000985045C149.358 -0.0285814 141.403 0.607488 133.546 1.90234C107.075 6.17843 82.3638 17.6999 62.244 35.1469C56.6805 39.8833 51.55 45.0902 46.9113 50.7077C47.54 51.1043 48.0738 50.661 48.6195 50.3986Z" fill="#FDD41E"/>
<path d="M135.195 259.74C139.56 259.962 143.95 259.693 148.303 260.032C155.437 260.662 162.61 260.749 169.757 260.294C181.98 259.371 193.992 256.642 205.387 252.199C223.342 245.258 239.001 234.813 252.768 221.602C266.627 208.239 278.181 192.746 286.974 175.731C292.057 165.985 296.945 156.14 300.201 145.612C300.154 142.783 300.142 139.955 300.059 137.132C299.442 111.614 291.7 86.7538 277.68 65.2712C264.719 45.1845 247.512 29.4896 226.521 17.7723C226.281 17.6215 226.049 17.458 225.827 17.2824C212.855 17.2241 199.901 16.565 186.917 17.4515C177.386 18.0944 167.894 19.2059 158.476 20.7818C143.184 23.3248 128.196 27.1625 113.272 31.2801C95.5134 36.2085 77.992 41.9825 60.3103 47.1558C54.3789 48.9056 48.6966 51.0052 43.5185 54.3355C42.6762 56.0852 41.3001 57.5025 40.1731 59.0714C31.0072 71.7118 24.0287 85.7549 19.5199 100.633C16.3199 111.088 14.3945 121.879 13.7842 132.781C12.1056 163.191 19.6622 191.221 36.0686 216.948C39.222 221.81 42.6787 226.475 46.4189 230.917C46.6858 231.237 47.0536 231.5 47.0121 232.007C47.1402 232.146 47.279 232.275 47.4273 232.392C59.7083 240.433 73.0889 246.717 87.1679 251.056C102.729 255.976 118.872 258.895 135.195 259.74Z" fill="#FDD41E"/>
<path d="M305.51 84.4889C303.92 72.5675 300.848 61.0777 295.142 50.3695C288.671 38.2381 279.572 28.7897 266.707 23.1148C257.388 19.003 247.512 17.2532 237.423 16.425C232.476 16.0168 227.535 15.9001 222.594 15.7543C217.209 15.7077 211.841 15.7543 206.461 15.6085C192.819 15.2411 179.23 16.3201 165.73 18.1981C154.004 19.8959 142.38 22.2108 130.906 25.1328C113.32 29.4954 95.9761 34.6629 78.7453 40.2153C68.1102 43.6447 57.0303 45.8494 46.8935 50.7136L44.2955 52.2358C31.0318 59.7434 20.5303 71.1926 14.3002 84.938C7.27525 100.332 2.80747 116.735 1.0672 133.522C-0.225978 145.145 0.123337 156.888 2.10521 168.417C6.25721 191.921 18.2743 210.941 36.6855 226.239C41.6354 230.269 46.8463 233.978 52.2851 237.344C52.6766 237.548 53.0681 237.717 53.4418 237.927C67.5289 246.174 82.6363 251.925 98.5207 255.827C107.794 258.074 117.217 259.678 126.719 260.627C135.195 261.49 143.706 261.262 152.182 261.869C165.912 262.791 179.702 261.41 192.961 257.786C213.768 252.199 231.984 241.876 248.082 227.895C264.731 213.431 277.792 196.179 288.006 176.827C292.343 168.673 296.243 160.302 299.691 151.748C300.51 148.785 301.815 145.98 302.414 142.958C304.082 134.817 305.286 126.59 306.02 118.317C306.975 107.014 307.011 95.7279 305.51 84.4889ZM304.276 121.933C303.559 128.891 302.426 135.796 301.097 142.667C300.854 143.674 300.555 144.667 300.201 145.641C296.945 156.169 292.057 166.014 286.974 175.76C278.178 192.765 266.625 208.248 252.768 221.602C239.001 234.813 223.342 245.258 205.387 252.199C193.992 256.642 181.98 259.371 169.757 260.294C162.61 260.749 155.437 260.662 148.303 260.032C143.95 259.693 139.56 259.962 135.195 259.74C118.866 258.894 102.716 255.973 87.1501 251.05C73.0711 246.711 59.6905 240.427 47.4095 232.386C47.2612 232.269 47.1224 232.14 46.9943 232.001C32.5394 222.232 20.7477 210.107 12.592 194.709C6.54192 183.19 3.30929 170.89 2.28315 157.977C0.408814 134.414 4.89891 111.866 13.7308 90.0063C19.6623 75.2971 29.0339 63.3757 42.6821 54.8487C42.9728 54.6738 43.2753 54.528 43.56 54.3588C48.7263 51.0285 54.3967 48.9114 60.3222 47.1617C78.0038 41.9883 95.5253 36.2143 113.284 31.2859C128.207 27.1449 143.196 23.3072 158.487 20.7877C167.905 19.2097 177.398 18.0963 186.929 17.4515C199.913 16.565 212.867 17.2241 225.839 17.2824C239.125 17.4165 252.174 18.6647 264.63 23.733C276.719 28.6614 285.705 36.9842 292.312 47.9665C298.244 57.8816 301.53 68.6656 303.458 79.9105C305.836 93.8557 305.706 107.877 304.276 121.904V121.933Z" fill="#FBFEFF"/>
<path d="M195.144 123.426C194.817 123.353 194.494 123.264 194.177 123.157C191.532 122.382 190.855 121.548 190.701 118.83C190.654 117.978 190.701 117.127 190.671 116.275C190.624 111.405 190.796 106.535 190.393 101.665C190.078 97.8099 188.483 94.7654 184.61 93.4998C179.645 91.8492 174.941 92.3683 170.872 95.926C170.066 96.6318 169.306 97.39 168.5 98.1482C165.433 91.091 154.448 90.1812 147.609 98.4923C147.502 96.8767 147.372 95.4361 147.325 93.9955C147.325 93.1498 147.034 92.8291 146.138 92.9632C142.579 93.4298 139.234 94.5671 135.77 95.2961C135.272 95.4011 135.177 95.7102 135.124 96.0952C135.029 96.6201 135.402 96.6784 135.788 96.8301C137.123 97.2174 138.405 97.7618 139.608 98.4515C140.26 98.8656 140.824 99.3147 140.794 100.201C140.764 106.541 140.794 112.881 140.747 119.215C140.805 119.98 140.583 120.741 140.122 121.361C139.662 121.981 138.991 122.419 138.232 122.598C137.449 122.825 136.689 123.146 135.895 123.303C134.934 123.49 135.26 124.184 135.201 124.744C135.124 125.514 135.693 125.385 136.156 125.385C141.731 125.385 147.307 125.385 152.882 125.385C153.558 125.385 153.766 125.21 153.819 124.528C153.897 123.554 153.321 123.496 152.633 123.362C148.879 122.615 147.728 121.274 147.52 117.5C147.52 117.313 147.52 117.121 147.52 116.917C147.52 112.045 147.52 107.173 147.52 102.301C147.52 101.887 147.419 101.443 147.758 101.088C149.721 99.0464 151.761 97.1042 154.691 96.4976C158.79 95.6461 161.477 97.4483 162.135 101.502C162.316 102.623 162.411 103.755 162.42 104.89C162.456 108.909 162.42 112.927 162.42 116.952C162.42 120.719 161.056 122.469 157.355 123.367C156.554 123.566 156.607 124.021 156.589 124.616C156.589 125.315 156.963 125.345 157.497 125.345C162.93 125.345 168.363 125.345 173.797 125.345C174.39 125.345 174.585 125.158 174.692 124.569C174.894 123.531 174.212 123.402 173.506 123.198C169.55 121.991 169.206 121.565 169.164 117.512C169.111 112.735 169.271 107.952 169.016 103.187C168.9 102.266 169.064 101.332 169.486 100.502C169.908 99.6721 170.57 98.9831 171.388 98.5215C172.842 97.5708 174.283 96.6376 176.045 96.3926C180.879 95.7219 183.833 98.2065 183.939 103.199C184.046 107.929 184.034 112.659 183.939 117.389C183.85 121.711 183.589 121.985 179.289 123.292C178.536 123.525 178.316 123.822 178.346 124.569C178.382 125.485 178.981 125.339 179.532 125.339H194.818C195.292 125.339 195.826 125.438 195.82 124.691C195.826 124.201 195.998 123.566 195.144 123.426Z" fill="black"/>
<path d="M78.941 79.2052C71.7837 79.1818 64.6225 79.1818 57.4573 79.2052C56.8642 79.2052 56.2058 78.9835 56.1524 80.0042C56.105 80.8149 56.2948 81.2465 57.1252 81.3981C57.9556 81.5498 58.9046 81.8064 59.7824 82.0105C63.2761 82.7979 64.1421 83.8127 64.2903 87.3413C64.2903 88.0004 64.2903 88.6653 64.2903 89.3243C64.2903 95.3783 64.2903 101.432 64.2903 107.486C64.2903 113.779 64.2903 120.067 64.2903 126.36C64.3587 128.441 64.0617 130.519 63.4125 132.501C63.104 133.359 62.6711 134.169 61.5737 134.251C60.4764 134.333 59.9011 133.715 59.3969 132.916C59.0007 132.214 58.5589 131.538 58.0742 130.892C57.5875 130.3 56.9027 129.898 56.1421 129.756C55.3815 129.615 54.5946 129.745 53.9222 130.122C53.2585 130.479 52.7522 131.065 52.5005 131.767C52.2487 132.468 52.2692 133.237 52.558 133.925C53.1511 135.552 54.5865 136.257 56.1168 136.718C62.5702 138.59 68.389 135.482 70.6073 128.944C71.6548 125.644 72.1477 122.199 72.0665 118.743C72.0665 108.762 72.0665 98.7825 72.0665 88.8052C72.0414 87.8609 72.0791 86.916 72.1791 85.9765C72.5232 83.5036 73.2587 82.7804 75.738 82.2147C76.9243 81.9522 78.0572 81.6314 79.2316 81.3865C80.1866 81.194 80.2459 80.5758 80.1984 79.8117C80.1629 78.8377 79.4214 79.2052 78.941 79.2052Z" fill="black"/>
<path d="M121.962 120.481C121.291 121.14 120.603 122.079 119.589 121.787C118.444 121.466 118.48 120.206 118.344 119.267C117.923 115.885 117.851 112.469 118.13 109.072C118.294 106.429 118.245 103.776 117.982 101.14C117.472 96.0954 115.129 93.5117 110.342 92.8059C107.293 92.3399 104.178 92.5027 101.196 93.2842C98.9906 93.7861 96.9389 94.7978 95.2109 96.2354C92.9154 98.2475 92.5003 101.601 94.2441 103.777C94.7162 104.351 95.355 104.77 96.0756 104.979C96.7962 105.187 97.5643 105.175 98.2775 104.943C98.9063 104.697 99.4446 104.269 99.8216 103.717C100.198 103.164 100.396 102.512 100.389 101.846C100.295 101.097 100.023 100.379 99.5942 99.7523C98.8706 98.2942 99.1079 97.3727 100.514 96.5095C102.072 95.5415 103.909 95.1011 105.745 95.2555C108.776 95.483 110.49 96.9352 111.113 99.8631C111.564 101.869 111.392 103.911 111.51 105.94C111.576 106.967 111.184 107.34 110.223 107.539C107.313 108.142 104.437 108.901 101.611 109.813C98.9326 110.588 96.467 111.947 94.3983 113.791C93.4035 114.663 92.6804 115.794 92.313 117.053C91.9455 118.313 91.9487 119.649 92.3223 120.906C92.9807 123.502 94.8254 124.989 97.3462 125.671C100.492 126.507 103.846 126.11 106.7 124.563C108.479 123.609 110.102 122.398 111.516 120.97C112.537 125.024 114.868 126.628 118.735 125.963C121.487 125.491 122.84 123.362 124.233 121.297C124.352 121.116 124.269 120.97 124.174 120.79C123.551 119.658 122.869 119.565 121.962 120.481Z" fill="black"/>
<path d="M224.433 123.437C220.702 122.743 219.273 121.063 219.255 117.307C219.237 113.551 219.255 109.725 219.255 105.958C219.255 101.939 219.255 97.9205 219.255 93.902C219.255 93.0271 219.077 92.7647 218.134 92.893C214.51 93.3829 211.016 94.4969 207.457 95.2259C207.363 95.2332 207.272 95.2589 207.188 95.3015C207.105 95.3441 207.031 95.4027 206.97 95.4739C206.91 95.5451 206.865 95.6275 206.838 95.7161C206.81 95.8047 206.801 95.8978 206.811 95.99C206.811 96.4507 206.965 96.6315 207.404 96.7715C208.691 97.1536 209.934 97.6678 211.111 98.3054C211.584 98.5281 211.977 98.8875 212.237 99.3358C212.497 99.784 212.611 100.3 212.564 100.813C212.493 106.062 212.535 111.312 212.535 116.561C212.535 121.577 212.38 121.81 207.499 123.332C207.349 123.352 207.205 123.403 207.076 123.482C206.948 123.56 206.837 123.665 206.752 123.788C206.667 123.911 206.609 124.05 206.583 124.197C206.556 124.344 206.561 124.494 206.597 124.639C206.651 125.56 207.285 125.368 207.831 125.368C213.312 125.368 218.79 125.368 224.267 125.368C224.807 125.368 225.519 125.688 225.566 124.604C225.643 123.676 225.145 123.565 224.433 123.437Z" fill="black"/>
<path d="M253.954 123.432C250.158 122.72 248.776 121.128 248.734 117.343C248.693 113.557 248.734 109.685 248.734 105.853C248.734 101.881 248.734 97.909 248.734 93.9372C248.734 93.1265 248.622 92.7707 247.631 92.8874C244.007 93.3889 240.513 94.4913 236.954 95.2553C236.765 95.2786 236.592 95.3717 236.47 95.5156C236.348 95.6596 236.286 95.8438 236.296 96.031C236.249 96.5151 236.504 96.6667 236.925 96.8067C238.209 97.196 239.451 97.7099 240.632 98.3406C241.083 98.5513 241.459 98.8914 241.71 99.3161C241.961 99.7409 242.075 100.23 242.038 100.72C241.978 106.681 242.038 112.636 242.008 118.596C242.008 120.824 241.273 121.874 239.179 122.679C238.522 122.967 237.836 123.184 237.132 123.327C236.231 123.467 236.106 123.91 236.142 124.715C236.183 125.7 236.889 125.385 237.381 125.385C242.858 125.385 248.335 125.385 253.812 125.385C254.304 125.385 254.998 125.694 255.033 124.697C255.14 123.834 254.778 123.566 253.954 123.432Z" fill="black"/>
<path d="M245.057 84.8093C246.15 84.7833 247.188 84.3345 247.946 83.5603C248.705 82.7861 249.122 81.749 249.108 80.6741C249.089 79.5789 248.631 78.5352 247.833 77.7706C247.036 77.0059 245.963 76.5821 244.849 76.5915C244.298 76.6012 243.754 76.7188 243.249 76.9375C242.744 77.1563 242.289 77.4717 241.91 77.8653C241.53 78.2589 241.235 78.723 241.04 79.2303C240.845 79.7376 240.754 80.278 240.774 80.8199C240.775 81.3625 240.888 81.8993 241.107 82.3975C241.325 82.8958 241.644 83.3452 242.045 83.7183C242.445 84.0915 242.919 84.3806 243.437 84.5682C243.955 84.7557 244.506 84.8378 245.057 84.8093Z" fill="black"/>
<path d="M215.4 84.81C215.95 84.8218 216.497 84.7245 217.008 84.5239C217.519 84.3234 217.984 84.0237 218.375 83.6427C218.766 83.2616 219.074 82.8071 219.283 82.3063C219.491 81.8054 219.594 81.2684 219.587 80.7273C219.592 80.1843 219.487 79.6458 219.277 79.1433C219.068 78.6409 218.758 78.1845 218.367 77.8011C217.976 77.4176 217.511 77.1148 217 76.9102C216.488 76.7056 215.94 76.6034 215.388 76.6096C214.29 76.6203 213.24 77.0538 212.464 77.8172C211.687 78.5806 211.247 79.6128 211.236 80.6923C211.231 81.2324 211.335 81.768 211.543 82.2681C211.75 82.7683 212.056 83.223 212.443 83.606C212.831 83.989 213.291 84.2926 213.799 84.4992C214.306 84.7059 214.85 84.8115 215.4 84.81Z" fill="black"/>
<path d="M111.469 114.106C111.487 114.341 111.487 114.577 111.469 114.812C111.291 116.095 112.062 117.594 111.054 118.632C109.469 120.374 107.341 121.549 105.004 121.974C102.263 122.411 100.448 121.642 99.5943 119.793C98.58 117.571 99.2206 115.331 101.374 113.628C104.132 111.429 107.513 110.595 110.769 109.499C111.41 109.277 111.493 109.627 111.493 110.134C111.457 111.458 111.469 112.782 111.469 114.106Z" fill="#FED41E"/>
<path d="M201.953 144.726C201.923 144.859 201.858 144.982 201.766 145.084C201.674 145.186 201.556 145.264 201.425 145.309C201.158 145.25 201.034 145.116 201.17 144.842C201.378 144.381 201.674 144.615 201.953 144.726Z" fill="#3C3207"/>
<path d="M173.393 189.262C172.373 187.465 171.258 187.267 168.802 188.445C168.452 188.579 168.138 188.643 168.15 188.101C169.983 186.427 172.468 186.433 174.01 188.101C173.719 188.457 174.146 189.168 173.393 189.262Z" fill="#151202"/>
<path d="M158.066 209.71L157.829 209.127C157.592 208.631 158.013 208.206 157.971 207.727C158.256 207.045 158.025 206.176 158.76 205.663C159.116 205.663 159.181 205.937 159.27 206.182C159.359 206.427 159.081 206.765 159.205 207.097L158.926 208.585C158.547 208.87 158.547 209.331 158.416 209.751C158.36 209.775 158.297 209.784 158.236 209.777C158.174 209.77 158.116 209.747 158.066 209.71Z" fill="#CDAB18"/>
<path d="M163.796 193.222C163.97 192.654 164.284 192.137 164.712 191.719C165.14 191.3 165.667 190.993 166.246 190.825L164.419 193.52C164.296 193.541 164.171 193.523 164.059 193.47C163.947 193.416 163.855 193.33 163.796 193.222Z" fill="#3B3107"/>
<path d="M164.081 194.074C163.696 195.205 163.125 196.267 162.39 197.217C162.301 197.351 162.218 197.351 162.129 197.217C161.685 196.733 162.088 196.418 162.367 196.051C162.645 195.683 162.96 195.432 162.776 194.96L163.411 193.764C163.796 193.554 163.944 193.782 164.081 194.074Z" fill="#4E4109"/>
<path d="M173.393 189.262C173.986 189.093 173.061 188.095 173.986 188.095C174.686 188.713 174.716 189.612 175.001 190.399H174.912H174.829C173.969 190.726 174.514 189.466 173.856 189.565L173.583 189.892C173.498 189.812 173.435 189.712 173.402 189.602C173.368 189.491 173.365 189.374 173.393 189.262Z" fill="#000A21"/>
<path d="M159.158 206.298L158.873 205.615C158.805 205.536 158.757 205.442 158.733 205.34C158.709 205.239 158.71 205.133 158.737 205.032C158.808 204.647 158.802 204.216 159.241 204.006C159.348 203.86 159.407 203.667 159.597 203.592C159.687 203.563 159.783 203.56 159.875 203.584C159.966 203.608 160.049 203.657 160.113 203.726C160.006 204.216 159.905 204.706 159.804 205.196C159.431 205.499 159.502 206.012 159.158 206.298Z" fill="#D2AF18"/>
<path d="M161.424 199.842C161.246 200.918 160.889 201.959 160.368 202.921C159.472 202.647 160.077 202.07 160.089 201.609C160.196 201.306 160.303 201.026 160.38 200.687C160.44 200.439 160.564 200.21 160.741 200.023C160.955 199.853 161.163 199.696 161.424 199.842Z" fill="#433808"/>
<path d="M161.423 199.842L160.996 199.999C160.617 199.848 160.824 199.474 160.682 199.229C161.18 198.862 161.115 198.191 161.483 197.754C161.574 197.767 161.659 197.808 161.724 197.873C161.789 197.937 161.831 198.02 161.845 198.11C162.153 198.804 161.465 199.235 161.423 199.842Z" fill="#937B11"/>
<path d="M158.861 205.143C158.861 205.301 158.861 205.458 158.861 205.616C158.612 206.339 158.369 207.068 158.126 207.791C157.823 207.674 157.995 207.33 157.805 207.167C158.066 206.385 158.333 205.598 158.6 204.834C158.79 204.857 158.802 205.015 158.861 205.143Z" fill="#413607"/>
<path d="M160.427 201.463C160.522 201.953 159.875 202.42 160.386 202.921L160.089 203.744H159.579C159.454 203.667 159.362 203.548 159.322 203.409C159.281 203.27 159.295 203.121 159.359 202.991C159.579 202.472 159.531 201.825 160.018 201.434C160.082 201.402 160.154 201.388 160.226 201.394C160.298 201.399 160.368 201.423 160.427 201.463Z" fill="#CFAC18"/>
<path d="M168.15 188.102C168.22 188.208 168.317 188.296 168.431 188.356C168.545 188.416 168.673 188.447 168.802 188.446L167.195 189.612C167.22 189.304 167.32 189.006 167.486 188.743C167.652 188.48 167.88 188.26 168.15 188.102Z" fill="#2D2505"/>
<path d="M160.13 201.504C159.929 201.971 159.721 202.437 159.537 202.91C159.454 203.003 159.377 202.997 159.318 202.91C159.176 202.175 159.739 201.632 159.858 200.967C160.368 200.915 160.237 201.212 160.13 201.504Z" fill="#221C03"/>
<path d="M158.096 212.539C157.04 212.417 157.58 211.641 157.503 211.122C157.669 210.877 157.936 211.501 158.096 211.058C158.144 211.039 158.196 211.036 158.246 211.05C158.295 211.063 158.338 211.093 158.369 211.133C158.445 211.619 158.348 212.115 158.096 212.539Z" fill="#3F3407"/>
<path d="M160.7 199.229C161.038 199.393 160.89 199.749 161.014 199.999C160.896 200.209 160.783 200.419 160.67 200.629C160.629 200.67 160.581 200.702 160.527 200.724C160.474 200.745 160.417 200.757 160.359 200.757C160.301 200.757 160.244 200.745 160.19 200.724C160.137 200.702 160.088 200.67 160.047 200.629C160.065 200.069 160.463 199.684 160.7 199.229Z" fill="#2D2505"/>
<path d="M157.817 207.167C157.924 207.371 158.031 207.581 158.132 207.791L157.829 209.133C157.736 209.138 157.643 209.138 157.55 209.133L157.817 207.167Z" fill="#100D01"/>
<path d="M159.158 206.298C159.324 205.913 159.187 205.365 159.78 205.213C159.585 205.843 159.395 206.473 159.187 207.103C158.82 206.852 159.241 206.561 159.158 206.298Z" fill="#1F1A03"/>
<path d="M158.345 211.133C158.27 211.125 158.195 211.125 158.12 211.133C157.728 210.947 157.942 210.55 157.811 210.27C157.776 210.159 157.783 210.039 157.83 209.932C157.876 209.826 157.96 209.739 158.066 209.687C158.125 209.647 158.197 209.628 158.268 209.634C158.624 209.699 158.422 210.078 158.618 210.218C158.643 210.381 158.632 210.547 158.585 210.705C158.538 210.864 158.456 211.01 158.345 211.133Z" fill="#856F0F"/>
<path d="M158.618 210.252C158.351 210.141 158.327 209.891 158.268 209.669C158.446 209.29 158.191 208.648 158.926 208.602C158.826 209.144 158.725 209.698 158.618 210.252Z" fill="#000A21"/>
<path d="M164.081 194.074L163.411 193.788C163.535 193.595 163.666 193.409 163.796 193.205C163.917 193.196 164.039 193.218 164.148 193.271C164.258 193.323 164.351 193.403 164.419 193.502L164.081 194.074Z" fill="#211C03"/>
<path d="M161.862 198.11L161.501 197.754L162.129 197.217H162.39C162.438 197.637 162.527 198.092 161.862 198.11Z" fill="#55470A"/>
<path d="M160.047 200.624H160.67C160.635 200.915 160.741 201.248 160.427 201.458L160.13 201.498C160.13 201.259 160.101 201.038 159.84 200.915L160.047 200.624Z" fill="#7E690F"/>
<path d="M159.3 202.887C159.331 202.861 159.37 202.848 159.41 202.848C159.45 202.848 159.489 202.861 159.52 202.887C159.52 203.166 159.561 203.47 159.579 203.726L159.217 204C158.849 203.61 158.689 203.219 159.3 202.887Z" fill="#A68B13"/>
<path d="M162.776 194.983C163.138 195.532 162.918 195.864 162.367 196.074L162.776 194.983Z" fill="#221C03"/>
<path d="M174.526 196.949L174.23 196.091C174.087 195.794 174.23 195.753 174.496 195.777L174.775 196.068C174.806 196.224 174.8 196.385 174.757 196.537C174.713 196.69 174.634 196.831 174.526 196.949Z" fill="#443908"/>
<path d="M158.861 205.143L158.612 204.816C158.66 204.425 158.559 203.924 159.241 204.017C159.116 204.39 158.992 204.77 158.861 205.143Z" fill="#2F2705"/>
<path d="M175.03 146.994C173.387 146.242 172.171 147.263 171.074 148.277C169.54 149.782 168.281 151.536 167.355 153.462C162.373 163.057 159.401 173.258 157.722 183.867C157.527 185.109 157.722 186.532 156.916 187.553C155.634 189.127 154.14 190.539 152.722 192.026C152.313 191.641 152.39 191.134 152.271 190.696C151.571 188.113 149.976 187.127 147.33 187.669C145.969 187.966 144.656 188.445 143.428 189.092C142.734 189.442 142.028 189.775 141.191 190.189C142.396 185.287 144.602 180.678 147.674 176.64C148.007 176.185 148.523 175.946 147.597 175.194C146.411 174.231 145.871 174.815 145.225 175.48C143.762 177.118 142.636 179.019 141.909 181.079C139.72 186.87 136.428 192.079 133.19 197.31C131.891 199.404 130.497 201.463 128.552 203.067C126.772 204.531 125.894 204.309 125.283 202.157C124.414 199.153 124.12 196.016 124.417 192.907C124.85 188.422 125.722 184.03 126.564 179.621C126.914 177.772 127.46 175.94 127.336 174.022C127.27 172.995 127.11 172.021 126.025 171.531C124.939 171.041 123.955 171.479 123.142 172.219C122.485 172.782 121.889 173.409 121.363 174.092C120.704 175.001 120.052 175.048 119.073 174.546C115.989 172.96 113.094 173.596 110.461 175.585C107.424 177.877 105.917 181.125 104.962 184.66C104.308 186.747 104.16 188.956 104.529 191.11C104.962 193.123 106.19 193.706 108.165 193.018C109.333 192.561 110.331 191.763 111.024 190.731L115.307 185.027C116.837 182.992 118.373 180.945 120.01 178.792C120.526 179.771 120.754 180.872 120.669 181.971C120.669 182.309 120.479 182.834 120.989 182.922C121.208 182.938 121.426 182.88 121.607 182.757C121.787 182.633 121.919 182.453 121.979 182.245C122.361 181.267 122.404 180.194 122.104 179.189C121.434 176.331 121.926 175.054 124.435 173.357C124.625 173.228 124.779 172.983 125.058 173.1C125.337 173.217 125.277 173.497 125.254 173.683C125.165 174.576 125.094 175.474 124.945 176.354C123.931 182.187 121.979 187.908 121.76 193.892C121.63 197.077 121.825 200.25 123.225 203.189C124.447 205.761 126.511 206.362 129.05 204.98C130.626 204.059 131.972 202.801 132.988 201.3C134.88 198.733 136.357 195.916 138 193.198C138.463 192.434 138.771 192.032 139.78 192.399C140.221 192.523 140.683 192.556 141.138 192.495C141.592 192.433 142.028 192.28 142.419 192.044C144.383 191.07 146.245 189.862 148.416 189.326C149.051 189.168 149.81 188.987 149.946 189.816C150.308 191.974 150.883 194.196 149.395 196.231C146.767 199.783 144.092 203.306 142.152 207.313C140.925 209.844 139.958 212.457 140.076 215.326C140.136 216.895 140.853 217.426 142.413 217.129C143.165 216.964 143.867 216.626 144.46 216.143C145.823 215.008 146.909 213.587 147.639 211.984C149.858 207.574 151.281 202.818 151.844 197.928C152.242 194.726 154.555 193.198 156.447 191.198C156.495 191.54 156.483 191.887 156.411 192.224C155.587 197.409 154.828 202.6 155.059 207.878C155.154 209.955 155.136 212.043 155.777 214.055C155.925 214.516 156.115 215.105 156.821 214.936C157.414 214.796 158.037 214.638 157.966 213.769C157.956 213.345 157.976 212.92 158.025 212.498C157.699 212.124 157.823 211.67 157.788 211.244C157.807 210.947 157.862 210.653 157.954 210.369C158.028 210.144 158.086 209.914 158.126 209.681C158.132 209.559 158.106 209.438 158.051 209.328C157.996 209.219 157.914 209.125 157.811 209.057C157.758 209.029 157.697 209.018 157.637 209.027C157.578 209.035 157.522 209.062 157.479 209.103C157.432 209.185 157.396 209.272 157.343 209.354C157.316 209.364 157.286 209.364 157.26 209.354C157.076 208.969 157.018 208.537 157.094 208.118C156.951 203.749 157.604 199.445 158.232 195.141C158.642 192.353 158.648 189.676 160.635 186.975C166.526 179.163 171.279 170.58 174.757 161.476C176.062 158.006 177.13 154.477 177.13 150.739C177.094 149.152 176.59 147.712 175.03 146.994ZM118.403 177.807C115.524 181.528 112.641 185.247 109.755 188.964C109.451 189.384 109.107 189.774 108.729 190.131C108.248 190.55 107.786 191.379 107.145 191.093C106.623 190.86 106.931 189.973 106.848 189.209C107.109 184.963 108.373 180.915 111.499 177.638C113.142 175.888 115.158 174.832 117.691 175.59C119.174 176.057 119.31 176.594 118.403 177.807ZM149.495 200.623C148.637 204.689 147.228 208.624 145.308 212.323C144.794 213.278 144.198 214.189 143.528 215.046C143.095 215.63 142.473 216.271 141.749 216.038C140.907 215.764 141.553 214.872 141.405 214.288C141.482 213.973 141.512 213.67 141.156 213.478C141.008 213.378 140.93 213.256 141.055 213.093C141.399 211.973 141.191 210.631 142.603 209.961C143.101 209.722 142.775 208.94 143.06 208.421C143.588 207.459 144.59 206.835 144.952 205.779C144.952 204.846 145.658 204.338 146.221 203.749C147.301 202.204 148.374 200.658 149.573 198.932C149.729 199.487 149.702 200.078 149.495 200.617V200.623ZM175.066 151.281C175.007 154.967 173.969 158.426 172.622 161.844C169.342 170.19 164.591 177.795 160.267 185.756C160.079 185.586 159.946 185.366 159.883 185.123C159.82 184.88 159.83 184.624 159.911 184.386C161.424 176.378 163.286 168.475 166.305 160.893C167.794 157.172 169.419 153.48 171.881 150.237C172.551 149.351 173.334 148.021 174.538 148.452C175.659 148.849 175.066 150.301 175.066 151.281Z" fill="black"/>
<path d="M146.198 203.738C145.883 204.475 145.455 205.159 144.928 205.767C144.43 204.823 144.744 204.315 146.198 203.738Z" fill="#272004"/>
<path d="M156.572 209.92C155.978 209.086 155.913 208.497 156.305 207.745C156.838 208.427 156.601 209.074 156.572 209.92Z" fill="#3B3206"/>
<path d="M175.789 155.755C175.635 155.159 175.655 154.532 175.849 153.947C175.962 153.453 176.037 152.952 176.074 152.448C176.279 152.989 176.312 153.579 176.169 154.139C176.08 154.588 175.961 155.061 175.789 155.755Z" fill="#393006"/>
<path d="M150.284 201.474C150.284 200.652 150.765 199.917 150.794 199.089C150.824 199.9 151.002 200.716 150.575 201.474C150.474 201.603 150.379 201.603 150.284 201.474Z" fill="#1E1903"/>
<path d="M156.495 202.77C156.661 203.609 156.732 204.064 156.311 204.455C156.202 204.18 156.163 203.884 156.195 203.59C156.227 203.297 156.329 203.016 156.495 202.77Z" fill="#191602"/>
<path d="M173.601 162.771C173.55 162.459 173.571 162.14 173.662 161.837C173.754 161.535 173.913 161.256 174.129 161.021C174.253 161.675 173.968 162.06 173.601 162.771Z" fill="#342B06"/>
<path d="M156.678 198.354C156.829 198.662 156.897 199.002 156.874 199.343C156.851 199.683 156.739 200.012 156.548 200.297C156.613 199.387 156.678 198.868 156.678 198.354Z" fill="#231E03"/>
<path d="M157.811 210.293C158.185 210.486 158.043 210.877 158.12 211.157C158.072 211.361 158.031 211.74 157.965 211.74C157.544 211.74 157.811 211.221 157.497 211.11C157.604 210.848 157.704 210.573 157.811 210.293Z" fill="#E2BD1A"/>
<path d="M159.982 179.207C160.03 179.699 159.918 180.193 159.662 180.618C159.546 180.382 159.515 180.114 159.573 179.858C159.631 179.601 159.775 179.372 159.982 179.207Z" fill="#3C3207"/>
<path d="M149.893 204.636C149.661 204.018 149.596 203.639 150.005 203.184C150.142 203.666 150.102 204.18 149.893 204.636Z" fill="#000A21"/>
<path d="M125.402 180.478C125.397 180.235 125.447 179.994 125.55 179.773C125.653 179.552 125.805 179.356 125.995 179.201C126.12 179.79 125.865 180.105 125.402 180.478Z" fill="#000A21"/>
<path d="M141.031 213.081L141.286 213.379C141.559 213.676 141.257 213.828 141.114 214.02L141.019 214.79C140.936 214.912 140.841 214.924 140.741 214.819C140.806 214.236 140.663 213.612 141.031 213.081Z" fill="#CEAC18"/>
<path d="M157.343 194.185C157.279 194.1 157.234 194.002 157.213 193.899C157.192 193.795 157.194 193.689 157.22 193.586C157.245 193.484 157.293 193.388 157.361 193.306C157.428 193.224 157.513 193.157 157.61 193.111C157.942 193.555 157.621 193.858 157.343 194.185Z" fill="#000A21"/>
<path d="M157.942 190.778C157.821 190.603 157.762 190.395 157.774 190.184C157.786 189.973 157.867 189.772 158.007 189.611C158.286 190.055 158.025 190.37 157.942 190.778Z" fill="#000A21"/>
<path d="M165.528 160.1C165.742 159.458 165.848 159.149 165.991 158.723C166.234 159.231 166.169 159.551 165.528 160.1Z" fill="#2E2705"/>
<path d="M176.252 149.759C176.378 149.93 176.46 150.129 176.492 150.338C176.524 150.547 176.505 150.76 176.436 150.96C176.296 150.796 176.205 150.597 176.172 150.385C176.14 150.173 176.168 149.956 176.252 149.759Z" fill="#201B03"/>
<path d="M140.741 214.819L141.019 214.79C141.019 215.146 141.197 215.513 140.877 215.863C140.793 215.808 140.722 215.735 140.669 215.65C140.615 215.565 140.581 215.47 140.568 215.372C140.555 215.273 140.564 215.172 140.594 215.077C140.623 214.982 140.674 214.894 140.741 214.819Z" fill="#6F5D0D"/>
<path d="M150.284 201.475H150.575C150.609 201.697 150.585 201.925 150.505 202.136C150.425 202.347 150.292 202.535 150.118 202.682C149.875 202.215 150.344 201.883 150.284 201.475Z" fill="#2B2405"/>
<path d="M157.645 192.289C157.479 191.863 157.408 191.519 157.681 191.408C157.954 191.297 157.871 191.571 157.835 191.723C157.799 191.875 157.752 191.974 157.645 192.289Z" fill="#000A21"/>
<path d="M126.47 175.311C126.653 175.894 126.695 176.133 126.47 176.314C126.44 176.314 126.256 176.261 126.256 176.25C126.298 176.057 126.351 175.812 126.47 175.311Z" fill="#79650E"/>
<path d="M151.014 198.523C150.943 198.313 150.848 198.185 150.877 198.103C150.93 197.942 151.04 197.803 151.186 197.713C151.334 197.66 151.364 197.847 151.31 197.969C151.257 198.092 151.15 198.273 151.014 198.523Z" fill="#534509"/>
<path d="M141.114 214.02C141.174 213.805 141.227 213.589 141.286 213.379C142.087 213.601 141.446 213.962 141.381 214.277L141.114 214.02Z" fill="#5F4F0B"/>
<path d="M146.132 203.061C146.067 202.898 145.972 202.775 145.996 202.694C146.02 202.612 146.156 202.525 146.245 202.443C146.31 202.536 146.435 202.641 146.417 202.717C146.399 202.793 146.269 202.886 146.132 203.061Z" fill="#382F06"/>
<path d="M207.042 186.264C206.016 185.821 206.129 186.585 205.974 186.894C203.632 191.56 201.366 196.226 199.023 200.892C196.68 205.557 194.746 210.602 191.561 214.889C190.968 215.653 190.553 217.076 189.639 216.901C188.625 216.703 188.56 215.251 188.34 214.254C186.638 206.432 186.371 198.506 186.804 190.568C186.782 189.526 186.984 188.49 187.397 187.53C188.584 185.197 189.77 182.899 190.956 180.583C195.891 170.872 200.589 161.068 204.065 150.745C204.658 148.943 205.251 147.135 205.097 145.21C205.008 144.137 204.646 143.145 203.519 142.714C202.392 142.282 201.656 142.924 200.98 143.629C200.346 144.272 199.77 144.969 199.26 145.711C197.369 148.5 195.754 151.461 194.438 154.553C190.26 164.3 187.363 174.531 185.819 184.998C185.809 185.225 185.732 185.444 185.597 185.629C185.463 185.813 185.276 185.955 185.06 186.036C182.078 187.45 179.214 189.094 176.495 190.953C175.594 191.536 175.202 191.449 175.036 190.417C175.009 190.398 174.977 190.384 174.945 190.377C174.912 190.37 174.878 190.37 174.845 190.376C174.812 190.382 174.78 190.394 174.752 190.412C174.724 190.43 174.699 190.453 174.68 190.481C174.53 190.839 174.497 191.235 174.585 191.612C174.502 190.848 174.615 190.043 173.897 189.478C173.654 189.513 173.494 189.606 173.619 189.892C173.891 190.773 173.844 191.719 173.486 192.57C173.128 193.421 172.481 194.124 171.655 194.558C170.565 195.331 169.529 196.174 168.553 197.083C166.35 198.84 164.416 200.901 162.811 203.201C161.862 204.624 161.032 206.117 160.979 207.867C160.949 209.243 161.667 209.978 163.055 210.002C164.114 210.004 165.163 209.793 166.137 209.383C167.111 208.973 167.99 208.372 168.719 207.616C171.833 204.7 173.494 200.956 174.538 196.92C174.775 196.616 174.609 196.336 174.443 196.103C174.392 196.038 174.355 195.962 174.336 195.882C174.358 195.901 174.382 195.919 174.407 195.934C174.424 195.967 174.447 195.995 174.476 196.019C174.505 196.042 174.538 196.059 174.574 196.069C174.609 196.079 174.647 196.081 174.684 196.076C174.72 196.071 174.756 196.058 174.787 196.039C175.072 195.351 174.84 194.441 175.511 193.945C178.592 191.635 181.905 189.64 185.398 187.99C184.59 195.505 184.622 203.083 185.493 210.591C185.68 212.858 186.283 215.073 187.273 217.129C188.305 219.065 189.835 219.299 191.472 217.805C192.236 217.019 192.899 216.143 193.447 215.198C195.666 211.926 197.243 208.328 198.981 204.805C201.813 199.078 204.614 193.339 207.386 187.588C207.558 187.215 208.122 186.731 207.042 186.264ZM188.34 180.432C190.713 169.799 193.37 159.254 198.732 149.596C199.551 148.109 200.512 146.709 201.425 145.262C201.425 144.93 201.686 144.807 201.953 144.679C202.333 144.539 202.546 143.921 203.038 144.201C203.4 144.411 203.175 144.889 203.151 145.251C202.988 146.94 202.606 148.603 202.012 150.197C198.596 160.368 193.94 170.027 189.183 179.627C188.969 180.047 188.785 180.478 188.589 180.91C188.044 181.009 188.257 180.723 188.34 180.455V180.432ZM172.758 196.902C171.509 201.045 169.031 204.727 165.641 207.476C164.959 208.06 163.956 208.835 163.268 208.269C162.722 207.82 163.369 206.689 163.76 205.937C165.866 201.912 169.134 198.938 172.794 195.957C172.813 196.28 172.802 196.605 172.758 196.926V196.902Z" fill="black"/>
<path d="M185.843 198.045V195.053C186.223 196.051 186.502 197.054 185.843 198.045Z" fill="#3C3307"/>
<path d="M173.88 189.571C173.892 189.436 173.932 189.305 173.998 189.186C174.182 188.988 174.206 189.238 174.277 189.32C174.556 189.635 174.449 190.148 174.87 190.405C174.84 190.906 174.817 191.408 174.781 192.155C174.117 191.221 174.111 190.364 173.88 189.571Z" fill="#CBAA18"/>
<path d="M186.27 205.441C185.588 204.397 185.956 203.498 185.766 202.524C186.49 203.423 186.336 204.303 186.27 205.441Z" fill="#74610E"/>
<path d="M185.814 200.396V198.862C186.152 199.754 186.608 200.279 186.098 200.932C185.831 200.839 185.986 200.553 185.814 200.396Z" fill="#514409"/>
<path d="M174.093 196.541C174.034 197.182 174.004 197.602 173.5 197.993C173.487 197.723 173.534 197.454 173.636 197.203C173.738 196.953 173.894 196.727 174.093 196.541Z" fill="#6A590C"/>
<path d="M198.092 164.153C198.228 164.766 197.89 164.999 197.647 165.285C197.614 165.074 197.638 164.859 197.716 164.661C197.794 164.462 197.923 164.287 198.092 164.153Z" fill="#362D06"/>
<path d="M204.094 146.242C204.687 146.685 204.284 146.989 204.142 147.56C204.022 147.362 203.955 147.137 203.947 146.907C203.939 146.677 203.989 146.448 204.094 146.242Z" fill="#000A21"/>
<path d="M200.868 156.921C200.969 157.113 201.001 157.333 200.957 157.545C200.914 157.757 200.799 157.948 200.63 158.087C200.322 157.679 200.571 157.393 200.868 156.921Z" fill="#000A21"/>
<path d="M190.019 170.225C189.77 169.642 190.203 169.414 190.244 169.059C190.351 169.444 190.541 169.846 190.019 170.225Z" fill="#372E06"/>
<path d="M174.473 195.777L174.206 196.091C173.613 195.654 173.963 195.327 174.295 194.966C174.621 195.222 174.473 195.514 174.473 195.777Z" fill="#B59715"/>
<path d="M188.34 180.455L188.584 180.956L188.269 181.767C188.12 181.576 188.045 181.338 188.058 181.098C188.071 180.857 188.171 180.629 188.34 180.455Z" fill="#6D5B0C"/>
<path d="M193.157 160.117C193.268 160.329 193.296 160.574 193.236 160.805C193.176 161.036 193.032 161.238 192.83 161.371C192.635 160.893 192.931 160.525 193.157 160.117Z" fill="#C4A317"/>
<path d="M185.814 200.396L186.098 200.932C186.098 201.195 186.051 201.463 186.015 201.894C185.774 201.433 185.703 200.903 185.814 200.396Z" fill="#BE9E16"/>
<path d="M186.929 210.469C186.869 210.544 186.78 210.731 186.721 210.719C186.604 210.697 186.501 210.629 186.434 210.532C186.367 210.435 186.343 210.315 186.365 210.2C186.385 210.084 186.444 209.977 186.531 209.897C186.78 209.944 186.858 210.171 186.929 210.469Z" fill="#725F0D"/>
<path d="M204.29 192.247C204.355 191.717 204.64 191.588 204.954 191.378C205.02 191.915 204.759 192.102 204.29 192.247Z" fill="#322A05"/>
<path d="M187.694 180.035C187.785 180.186 187.815 180.365 187.776 180.536C187.737 180.708 187.634 180.858 187.486 180.957C187.418 180.801 187.401 180.628 187.438 180.463C187.476 180.297 187.565 180.148 187.694 180.035Z" fill="#998011"/>
<path d="M186.442 208.777C185.891 208.555 186.158 208.193 185.962 207.686C186.134 207.809 186.269 207.975 186.354 208.167C186.438 208.359 186.469 208.569 186.442 208.777Z" fill="#7F6A0F"/>
<path d="M187.368 213.798C187.148 213.542 186.917 213.314 187.053 212.923C187.522 213.104 187.587 213.384 187.368 213.798Z" fill="#69570C"/>
</svg>
