<svg width="130" height="226" viewBox="0 0 130 226" fill="none" xmlns="http://www.w3.org/2000/svg">
<g clip-path="url(#clip0_949_371)">
<g opacity="0.1">
<path d="M123.681 122.534C122.184 126.559 120.261 130.396 118.447 134.285C114.448 142.941 109.657 151.218 104.135 159.012C98.0859 167.6 91.0388 175.457 83.1385 182.42C77.3467 187.493 71.0639 191.99 64.3811 195.844C53.494 202.174 41.5159 206.453 29.0534 208.464C24.8021 209.142 20.5509 209.465 16.2996 209.792C14.351 209.92 12.3958 209.92 10.4471 209.792C7.31537 209.614 4.20251 209.273 1.06605 209.17C-1.41384 209.086 -3.89845 209.133 -6.38306 208.992C-10.8185 208.749 -15.2304 208.399 -19.6091 207.805C-28.8331 206.573 -37.919 204.482 -46.7462 201.561C-55.2966 198.765 -63.5225 195.078 -71.2853 190.562C-71.6632 190.338 -72.0363 190.001 -72.5512 190.216C-71.2267 191.733 -69.8185 193.177 -68.333 194.54C-53.451 208.679 -34.9733 218.56 -14.8664 223.132C5.2404 227.704 26.2238 226.796 45.8503 220.504C65.4768 214.212 83.0119 202.771 96.5893 187.4C110.167 172.029 119.278 153.303 122.954 133.215C123.699 129.388 124.192 125.517 124.428 121.627C123.898 121.693 123.813 122.17 123.681 122.534Z" fill="#F0FAFC"/>
<path d="M-75.5224 40.3903C-74.162 39.792 -72.9008 38.9881 -71.4553 38.5581C-61.5027 35.6741 -51.6162 32.5331 -41.7297 29.4668C-31.1347 26.1949 -20.4972 23.0538 -9.72739 20.3942C1.53366 17.5897 12.8845 15.2994 24.4431 14.0747C30.8341 13.4017 37.2252 12.8361 43.6587 12.794C47.2896 12.7722 50.9252 12.7722 54.5655 12.794C56.8186 12.794 59.0765 12.6631 61.3297 12.9763C61.8965 13.0558 62.5625 13.1913 63.0207 12.5977C62.3358 12.2612 61.6603 11.9153 60.9754 11.5834C45.4457 3.99803 28.3656 0.0357207 11.047 0.000789433C4.70247 -0.0229057 -1.63261 0.486852 -7.88991 1.52457C-28.9706 4.95151 -48.6495 14.185 -64.6723 28.1674C-69.1028 31.9632 -73.1886 36.1361 -76.8828 40.6381C-76.3821 40.9559 -75.9569 40.6007 -75.5224 40.3903Z" fill="#F0FAFC"/>
<path d="M-6.57671 208.16C-3.10014 208.338 0.395317 208.123 3.86244 208.394C9.54359 208.899 15.2556 208.969 20.9477 208.604C30.6816 207.865 40.2472 205.678 49.3223 202.117C63.6207 196.554 76.0909 188.183 87.0544 177.596C98.0917 166.887 107.292 154.47 114.295 140.834C118.344 133.023 122.236 125.133 124.829 116.696C124.791 114.429 124.782 112.162 124.716 109.9C124.224 89.4491 118.059 69.5259 106.894 52.3094C96.5725 36.2115 82.8693 23.6333 66.1525 14.2429C65.9612 14.122 65.7767 13.991 65.5998 13.8503C55.2693 13.8035 44.953 13.2753 34.6131 13.9858C27.0229 14.501 19.4636 15.3918 11.9634 16.6548C-0.214027 18.6927 -12.1506 21.7683 -24.0351 25.0683C-38.1776 29.018 -52.1311 33.6454 -66.2121 37.7914C-70.9357 39.1936 -75.4609 40.8763 -79.5846 43.5453C-80.2554 44.9475 -81.3512 46.0834 -82.2487 47.3407C-89.5482 57.471 -95.1056 68.7254 -98.6963 80.6489C-101.245 89.0276 -102.778 97.6762 -103.264 106.413C-104.601 130.784 -98.5829 153.248 -85.5175 173.866C-83.0062 177.762 -80.2534 181.501 -77.2748 185.061C-77.0622 185.318 -76.7694 185.528 -76.8024 185.935C-76.7004 186.046 -76.5899 186.149 -76.4718 186.243C-66.6916 192.687 -56.0357 197.723 -44.8237 201.201C-32.4315 205.143 -19.5757 207.483 -6.57671 208.16Z" fill="#F0FAFC"/>
<path d="M129.057 67.7109C127.791 58.1569 125.344 48.9487 120.8 40.367C115.646 30.6447 108.4 23.0725 98.1549 18.5245C90.7341 15.2293 82.8693 13.827 74.8345 13.1633C70.895 12.8361 66.9603 12.7426 63.0255 12.6257C58.7365 12.5883 54.4616 12.6257 50.1773 12.5089C39.313 12.2144 28.4913 13.0791 17.7404 14.5842C8.40254 15.9449 -0.854843 17.8001 -9.99187 20.1418C-23.9973 23.6381 -37.8091 27.7794 -51.5312 32.2292C-60.0006 34.9776 -68.8243 36.7445 -76.8969 40.6427L-78.9658 41.8627C-89.5286 47.8794 -97.8917 57.055 -102.853 68.0708C-108.448 80.4082 -112.006 93.5539 -113.391 107.007C-114.421 116.322 -114.143 125.733 -112.565 134.972C-109.258 153.809 -99.6882 169.052 -85.0262 181.312C-81.0842 184.542 -76.9345 187.514 -72.6031 190.212C-72.2914 190.375 -71.9796 190.511 -71.682 190.679C-60.4635 197.288 -48.4325 201.897 -35.7827 205.024C-28.3976 206.825 -20.8938 208.11 -13.3267 208.871C-6.57671 209.563 0.20166 209.38 6.95168 209.867C17.8858 210.605 28.8672 209.499 39.4264 206.595C55.9968 202.117 70.5029 193.844 83.3228 182.64C96.5819 171.048 106.983 157.221 115.117 141.712C118.571 135.178 121.677 128.469 124.423 121.613C125.075 119.239 126.114 116.991 126.591 114.569C127.919 108.045 128.878 101.452 129.463 94.8211C130.223 85.7626 130.252 76.718 129.057 67.7109ZM128.074 97.7191C127.503 103.295 126.6 108.83 125.542 114.336C125.349 115.143 125.11 115.938 124.829 116.72C122.236 125.157 118.344 133.047 114.295 140.857C107.29 154.485 98.0896 166.894 87.0544 177.596C76.091 188.183 63.6207 196.555 49.3223 202.117C40.2472 205.678 30.6816 207.865 20.9477 208.605C15.2556 208.969 9.54359 208.899 3.86244 208.394C0.395325 208.123 -3.10014 208.338 -6.57671 208.161C-19.5807 207.483 -32.4413 205.142 -44.8378 201.196C-56.0499 197.719 -66.7057 192.683 -76.4859 186.239C-76.604 186.144 -76.7146 186.041 -76.8166 185.93C-88.328 178.101 -97.7185 168.383 -104.213 156.043C-109.032 146.812 -111.606 136.954 -112.423 126.605C-113.916 107.722 -110.34 89.6515 -103.307 72.1327C-98.5829 60.3444 -91.1196 50.7904 -80.2506 43.9567C-80.0192 43.8165 -79.7783 43.6996 -79.5516 43.5641C-75.4373 40.8951 -70.9215 39.1984 -66.2027 37.7962C-52.1216 33.6502 -38.1681 29.0227 -24.0257 25.0731C-12.1411 21.7544 -0.204582 18.6788 11.9728 16.6595C19.4729 15.395 27.0323 14.5026 34.6225 13.9859C44.9624 13.2754 55.2788 13.8036 65.6093 13.8504C76.1902 13.9579 86.5821 14.9581 96.5016 19.02C106.128 22.9697 113.285 29.6397 118.547 38.4412C123.27 46.3873 125.887 55.0298 127.422 64.0417C129.316 75.2176 129.213 86.4543 128.074 97.6957V97.7191Z" fill="#FBFEFF"/>
<path d="M41.1647 98.9155C40.9044 98.8575 40.6473 98.7857 40.3947 98.7005C38.288 98.0788 37.7495 97.4104 37.6267 95.2323C37.5889 94.5498 37.6267 93.8674 37.6031 93.185C37.5653 89.282 37.7023 85.3791 37.3811 81.4762C37.1307 78.3865 35.8601 75.9466 32.7756 74.9323C28.8219 73.6095 25.0761 74.0255 21.8357 76.8768C21.1933 77.4423 20.5887 78.05 19.9463 78.6576C17.5042 73.0019 8.75609 72.2727 3.30979 78.9334C3.22476 77.6387 3.12085 76.4841 3.08307 75.3296C3.08307 74.6519 2.85161 74.3948 2.13835 74.5023C-0.695811 74.8762 -3.35992 75.7877 -6.1185 76.372C-6.51529 76.4561 -6.59086 76.7038 -6.63337 77.0123C-6.70895 77.433 -6.41137 77.4797 -6.10433 77.6013C-5.04118 77.9117 -4.01978 78.348 -3.06234 78.9007C-2.54274 79.2326 -2.094 79.5925 -2.11762 80.3029C-2.14124 85.3838 -2.11761 90.4646 -2.1554 95.5408C-2.10926 96.1544 -2.28549 96.7643 -2.6525 97.2611C-3.0195 97.7579 -3.55329 98.1091 -4.15822 98.2518C-4.78173 98.4341 -5.38635 98.6911 -6.01931 98.8173C-6.78454 98.9669 -6.52473 99.5231 -6.57197 99.9719C-6.63337 100.589 -6.17991 100.486 -5.81147 100.486C-1.37129 100.486 3.06889 100.486 7.50907 100.486C8.04756 100.486 8.21288 100.346 8.25539 99.7989C8.3168 99.0183 7.85861 98.9716 7.31068 98.8641C4.32064 98.2658 3.40426 97.1907 3.23894 94.1665C3.23894 94.017 3.23894 93.8627 3.23894 93.6991C3.23894 89.7946 3.23894 85.8901 3.23894 81.9856C3.23894 81.6538 3.15863 81.2985 3.42788 81.0134C4.99139 79.3775 6.61631 77.821 8.94976 77.3348C12.2138 76.6524 14.3536 78.0967 14.8779 81.3453C15.022 82.2436 15.0977 83.1514 15.1046 84.061C15.1329 87.2815 15.1046 90.502 15.1046 93.7272C15.1046 96.7467 14.0182 98.1489 11.0707 98.8688C10.433 99.0277 10.4755 99.3923 10.4613 99.869C10.4613 100.43 10.7589 100.453 11.184 100.453C15.5108 100.453 19.8376 100.453 24.1645 100.453C24.6368 100.453 24.7927 100.304 24.8777 99.8316C25.0383 98.9996 24.4951 98.8968 23.933 98.7332C20.7824 97.7657 20.5084 97.4244 20.4753 94.1759C20.4328 90.3477 20.5604 86.5149 20.3572 82.6961C20.2651 81.958 20.3953 81.2094 20.7314 80.5442C21.0675 79.8789 21.5947 79.3267 22.2467 78.9568C23.404 78.1949 24.5518 77.447 25.9547 77.2507C29.8044 76.7132 32.1568 78.7044 32.2418 82.7055C32.3268 86.4962 32.3174 90.287 32.2418 94.0777C32.171 97.5413 31.9631 97.761 28.5385 98.808C27.9386 98.995 27.7638 99.2334 27.7875 99.8316C27.8158 100.565 28.2929 100.449 28.7322 100.449H40.9049C41.2828 100.449 41.7079 100.528 41.7032 99.9298C41.7079 99.5372 41.8449 99.0277 41.1647 98.9155Z" fill="black"/>
<path d="M64.4898 98.9251C61.5186 98.3689 60.3803 97.0227 60.3661 94.0126C60.3519 91.0024 60.3661 87.9361 60.3661 84.9166C60.3661 81.6961 60.3661 78.4756 60.3661 75.2551C60.3661 74.554 60.2244 74.3436 59.4733 74.4465C56.5872 74.8391 53.805 75.7319 50.9708 76.3161C50.8961 76.322 50.8232 76.3426 50.7566 76.3767C50.69 76.4108 50.6309 76.4578 50.5829 76.5149C50.535 76.5719 50.499 76.6379 50.4772 76.709C50.4554 76.78 50.4482 76.8546 50.456 76.9284C50.456 77.2977 50.5788 77.4426 50.9283 77.5548C51.9532 77.861 52.9428 78.2731 53.8806 78.7841C54.2575 78.9625 54.5703 79.2506 54.7771 79.6098C54.9839 79.969 55.0749 80.3822 55.0379 80.794C54.9812 85.0007 55.0143 89.2075 55.0143 93.4143C55.0143 97.4341 54.8914 97.621 51.0039 98.841C50.8844 98.8572 50.7697 98.898 50.6673 98.961C50.5648 99.0239 50.4768 99.1074 50.4091 99.2062C50.3414 99.3049 50.2954 99.4166 50.2742 99.5341C50.253 99.6516 50.257 99.7722 50.2859 99.888C50.3284 100.627 50.8339 100.472 51.2684 100.472C55.633 100.472 59.9961 100.472 64.3575 100.472C64.7874 100.472 65.3542 100.729 65.392 99.86C65.4534 99.1168 65.0566 99.028 64.4898 98.9251Z" fill="black"/>
<path d="M87.9991 98.9203C84.976 98.3501 83.8754 97.074 83.8423 94.0405C83.8093 91.0069 83.8423 87.9033 83.8423 84.8324C83.8423 81.6492 83.8423 78.4661 83.8423 75.283C83.8423 74.6333 83.7526 74.3482 82.9637 74.4417C80.0776 74.8436 77.2954 75.7271 74.4613 76.3394C74.3106 76.3581 74.1727 76.4326 74.0754 76.548C73.9781 76.6634 73.9286 76.811 73.937 76.961C73.8992 77.349 74.1023 77.4705 74.4377 77.5827C75.4605 77.8947 76.4494 78.3065 77.3899 78.812C77.7493 78.9808 78.0486 79.2534 78.2484 79.5938C78.4483 79.9342 78.5392 80.3265 78.5094 80.7191C78.4622 85.4961 78.5094 90.2684 78.4858 95.0454C78.4858 96.831 77.9 97.6723 76.2326 98.3174C75.71 98.5482 75.1636 98.7222 74.603 98.8362C73.885 98.9484 73.7858 99.3036 73.8141 99.9486C73.8472 100.739 74.4093 100.486 74.8014 100.486C79.1628 100.486 83.5243 100.486 87.8857 100.486C88.2778 100.486 88.8305 100.734 88.8588 99.9346C88.9438 99.2428 88.6557 99.0278 87.9991 98.9203Z" fill="black"/>
<path d="M80.9138 67.9679C81.7841 67.947 82.6111 67.5874 83.2151 66.9669C83.8191 66.3465 84.1514 65.5153 84.14 64.6539C84.1251 63.7761 83.7603 62.9397 83.125 62.3269C82.4898 61.7141 81.6356 61.3744 80.7485 61.382C80.3093 61.3897 79.8761 61.484 79.4742 61.6593C79.0723 61.8346 78.7097 62.0874 78.4076 62.4028C78.1055 62.7183 77.87 63.0902 77.7147 63.4967C77.5594 63.9033 77.4876 64.3364 77.5033 64.7707C77.504 65.2056 77.5941 65.6357 77.768 66.0351C77.942 66.4344 78.1962 66.7945 78.5152 67.0936C78.8342 67.3926 79.2113 67.6244 79.6237 67.7747C80.036 67.925 80.475 67.9907 80.9138 67.9679Z" fill="black"/>
<path d="M57.2958 67.9681C57.734 67.9776 58.1696 67.8996 58.5766 67.7389C58.9837 67.5781 59.3539 67.3379 59.6651 67.0326C59.9763 66.7272 60.2222 66.363 60.3881 65.9616C60.554 65.5602 60.6365 65.1298 60.6307 64.6962C60.6345 64.261 60.5505 63.8294 60.3837 63.4267C60.2168 63.0241 59.9705 62.6584 59.659 62.3511C59.3476 62.0438 58.9773 61.801 58.5699 61.6371C58.1625 61.4731 57.7262 61.3912 57.2864 61.3962C56.4121 61.4047 55.5761 61.7522 54.9578 62.364C54.3396 62.9757 53.9885 63.803 53.9799 64.6681C53.9761 65.101 54.0592 65.5302 54.2243 65.931C54.3893 66.3319 54.6331 66.6963 54.9416 67.0032C55.25 67.3101 55.6169 67.5535 56.021 67.7191C56.4251 67.8847 56.8584 67.9694 57.2958 67.9681Z" fill="black"/>
<path d="M46.5874 115.986C46.5632 116.092 46.5119 116.191 46.4383 116.273C46.3648 116.355 46.2714 116.417 46.167 116.453C45.9544 116.406 45.8552 116.299 45.9639 116.079C46.1292 115.71 46.3654 115.897 46.5874 115.986Z" fill="#3C3207"/>
<path d="M23.8433 151.678C23.0308 150.238 22.1428 150.079 20.1872 151.023C19.9085 151.131 19.6582 151.182 19.6676 150.748C21.1272 149.406 23.1064 149.411 24.3345 150.748C24.1031 151.033 24.4432 151.603 23.8433 151.678Z" fill="#151202"/>
<path d="M11.6375 168.066L11.4485 167.598C11.2596 167.201 11.595 166.86 11.5619 166.476C11.7886 165.93 11.6044 165.233 12.1901 164.822C12.4735 164.822 12.5255 165.041 12.5964 165.238C12.6672 165.434 12.4452 165.705 12.5444 165.972L12.3224 167.164C12.0201 167.393 12.0201 167.762 11.9162 168.098C11.8709 168.118 11.8213 168.125 11.7723 168.119C11.7234 168.114 11.6768 168.095 11.6375 168.066Z" fill="#CDAB18"/>
<path d="M16.2005 154.852C16.3387 154.396 16.5894 153.982 16.9301 153.647C17.2707 153.311 17.6904 153.065 18.1513 152.931L16.6965 155.09C16.599 155.107 16.4987 155.093 16.4097 155.05C16.3207 155.007 16.2475 154.938 16.2005 154.852Z" fill="#3B3107"/>
<path d="M16.4272 155.534C16.1206 156.441 15.6658 157.292 15.081 158.053C15.0101 158.161 14.944 158.161 14.8731 158.053C14.5189 157.665 14.8401 157.413 15.0621 157.119C15.2841 156.824 15.5344 156.623 15.388 156.244L15.8934 155.286C16.2005 155.118 16.3186 155.3 16.4272 155.534Z" fill="#4E4109"/>
<path d="M23.8433 151.678C24.3156 151.542 23.5787 150.743 24.3156 150.743C24.873 151.239 24.8966 151.958 25.1234 152.589H25.0525H24.9864C24.3015 152.851 24.736 151.842 24.2117 151.921L23.9944 152.183C23.9264 152.119 23.8766 152.039 23.85 151.951C23.8235 151.862 23.8212 151.768 23.8433 151.678Z" fill="#000A21"/>
<path d="M12.5066 165.331L12.2799 164.784C12.2255 164.72 12.1872 164.645 12.1683 164.563C12.1494 164.482 12.1504 164.397 12.1713 164.317C12.2279 164.008 12.2232 163.662 12.5728 163.494C12.6578 163.377 12.705 163.223 12.8562 163.162C12.9279 163.139 13.0048 163.137 13.0777 163.156C13.1506 163.175 13.2163 163.214 13.2671 163.27C13.1821 163.662 13.1018 164.055 13.0215 164.448C12.7239 164.691 12.7806 165.102 12.5066 165.331Z" fill="#D2AF18"/>
<path d="M14.311 160.157C14.1692 161.02 13.8852 161.853 13.4702 162.625C12.757 162.405 13.2388 161.942 13.2482 161.573C13.3332 161.33 13.4183 161.106 13.4797 160.835C13.5274 160.635 13.6267 160.452 13.7678 160.302C13.9379 160.166 14.1032 160.04 14.311 160.157Z" fill="#433808"/>
<path d="M14.311 160.157L13.9709 160.283C13.6686 160.161 13.8339 159.862 13.7206 159.666C14.1174 159.371 14.0654 158.834 14.3583 158.483C14.431 158.494 14.4983 158.527 14.5503 158.579C14.6022 158.63 14.6359 158.697 14.6464 158.769C14.892 159.325 14.3441 159.671 14.311 160.157Z" fill="#937B11"/>
<path d="M12.2704 164.405C12.2704 164.532 12.2704 164.658 12.2704 164.784C12.072 165.364 11.8784 165.948 11.6847 166.527C11.4438 166.434 11.5808 166.158 11.4296 166.027C11.6375 165.401 11.85 164.77 12.0626 164.158C12.2137 164.176 12.2232 164.303 12.2704 164.405Z" fill="#413607"/>
<path d="M13.5175 161.457C13.593 161.849 13.0782 162.223 13.4844 162.625L13.2482 163.284H12.842C12.7425 163.223 12.6695 163.127 12.6372 163.016C12.6049 162.905 12.6156 162.785 12.6672 162.681C12.842 162.265 12.8042 161.746 13.1915 161.433C13.243 161.408 13.3004 161.397 13.3577 161.401C13.4151 161.405 13.4702 161.424 13.5175 161.457Z" fill="#CFAC18"/>
<path d="M19.6676 150.748C19.7239 150.833 19.801 150.903 19.8918 150.952C19.9826 151 20.0842 151.025 20.1872 151.024L18.9071 151.959C18.9273 151.712 19.0068 151.473 19.1391 151.262C19.2714 151.052 19.4526 150.875 19.6676 150.748Z" fill="#2D2505"/>
<path d="M13.2813 161.489C13.1207 161.863 12.9553 162.237 12.8089 162.616C12.7428 162.69 12.6814 162.686 12.6341 162.616C12.5208 162.027 12.9695 161.592 13.064 161.059C13.4702 161.017 13.3663 161.255 13.2813 161.489Z" fill="#221C03"/>
<path d="M11.6611 170.332C10.8203 170.234 11.2502 169.613 11.1888 169.197C11.321 169 11.5336 169.5 11.6611 169.145C11.699 169.13 11.7409 169.128 11.7803 169.139C11.8196 169.15 11.8541 169.173 11.8784 169.206C11.9387 169.595 11.862 169.993 11.6611 170.332Z" fill="#3F3407"/>
<path d="M13.7347 159.666C14.004 159.797 13.8859 160.082 13.9851 160.283C13.8906 160.451 13.8009 160.62 13.7111 160.788C13.6786 160.82 13.64 160.846 13.5974 160.863C13.5549 160.881 13.5092 160.89 13.4631 160.89C13.417 160.89 13.3714 160.881 13.3288 160.863C13.2863 160.846 13.2476 160.82 13.2151 160.788C13.2293 160.339 13.5458 160.031 13.7347 159.666Z" fill="#2D2505"/>
<path d="M11.4391 166.028C11.5242 166.191 11.6092 166.36 11.6895 166.528L11.4486 167.603C11.3746 167.608 11.3005 167.608 11.2266 167.603L11.4391 166.028Z" fill="#100D01"/>
<path d="M12.5066 165.331C12.6388 165.022 12.5302 164.583 13.0026 164.461C12.8467 164.966 12.6955 165.471 12.5302 165.976C12.2373 165.775 12.5727 165.541 12.5066 165.331Z" fill="#1F1A03"/>
<path d="M11.8594 169.206C11.7998 169.199 11.7396 169.199 11.6799 169.206C11.3682 169.057 11.5382 168.739 11.4343 168.514C11.4066 168.425 11.4118 168.329 11.449 168.244C11.4862 168.158 11.553 168.088 11.6374 168.047C11.6844 168.015 11.7412 168 11.798 168.005C12.0815 168.056 11.9209 168.36 12.0767 168.472C12.097 168.603 12.0881 168.736 12.0506 168.863C12.013 168.99 11.9478 169.107 11.8594 169.206Z" fill="#856F0F"/>
<path d="M12.0768 168.5C11.8642 168.411 11.8453 168.21 11.7981 168.033C11.9398 167.729 11.7367 167.215 12.3224 167.177C12.2421 167.612 12.1618 168.056 12.0768 168.5Z" fill="#000A21"/>
<path d="M16.4272 155.534L15.8934 155.305C15.9926 155.151 16.0965 155.001 16.2005 154.837C16.297 154.83 16.3938 154.849 16.481 154.89C16.5681 154.932 16.6424 154.996 16.6964 155.076L16.4272 155.534Z" fill="#211C03"/>
<path d="M14.6606 158.768L14.3724 158.483L14.8731 158.053H15.081C15.1188 158.39 15.1896 158.754 14.6606 158.768Z" fill="#55470A"/>
<path d="M13.2151 160.783H13.7111C13.6828 161.017 13.7678 161.283 13.5175 161.452L13.2813 161.484C13.2813 161.293 13.2576 161.115 13.0498 161.017L13.2151 160.783Z" fill="#7E690F"/>
<path d="M12.62 162.597C12.6446 162.577 12.6755 162.566 12.7074 162.566C12.7393 162.566 12.7702 162.577 12.7948 162.597C12.7948 162.821 12.8278 163.064 12.842 163.27L12.5538 163.49C12.261 163.177 12.1335 162.863 12.62 162.597Z" fill="#A68B13"/>
<path d="M15.388 156.263C15.6761 156.703 15.5014 156.969 15.0621 157.137L15.388 156.263Z" fill="#221C03"/>
<path d="M24.7455 157.838L24.5093 157.151C24.3959 156.913 24.5093 156.88 24.7219 156.899L24.9439 157.133C24.9685 157.257 24.9634 157.386 24.929 157.509C24.8945 157.631 24.8317 157.744 24.7455 157.838Z" fill="#443908"/>
<path d="M12.2705 164.405L12.0721 164.144C12.1099 163.83 12.0296 163.428 12.5728 163.503C12.4736 163.802 12.3744 164.106 12.2705 164.405Z" fill="#2F2705"/>
<path d="M25.147 117.804C23.8385 117.201 22.8702 118.019 21.9963 118.832C20.7744 120.038 19.7724 121.444 19.0346 122.988C15.0668 130.677 12.7003 138.852 11.3635 147.354C11.2076 148.35 11.3635 149.49 10.7211 150.308C9.70079 151.57 8.51044 152.701 7.3815 153.893C7.05558 153.585 7.11699 153.178 7.02252 152.828C6.46514 150.757 5.19448 149.967 3.08776 150.402C2.00384 150.639 0.958031 151.023 -0.0203629 151.542C-0.573023 151.823 -1.13512 152.089 -1.80115 152.421C-0.841978 148.493 0.914581 144.798 3.36174 141.563C3.62626 141.198 4.0372 141.007 3.30033 140.404C2.35561 139.632 1.92576 140.1 1.41089 140.633C0.245661 141.945 -0.651075 143.469 -1.2296 145.12C-2.97261 149.761 -5.59421 153.935 -8.17329 158.128C-9.20776 159.806 -10.3178 161.456 -11.8671 162.742C-13.2842 163.915 -13.9833 163.737 -14.4698 162.012C-15.1622 159.605 -15.396 157.091 -15.1595 154.599C-14.8147 151.005 -14.1203 147.485 -13.4495 143.951C-13.1709 142.47 -12.7363 141.002 -12.8355 139.464C-12.8874 138.641 -13.015 137.861 -13.8794 137.468C-14.7438 137.076 -15.5279 137.426 -16.1751 138.02C-16.6982 138.471 -17.1731 138.973 -17.5921 139.52C-18.1165 140.249 -18.6361 140.287 -19.4154 139.885C-21.8717 138.613 -24.1768 139.123 -26.2741 140.717C-28.6926 142.554 -29.8924 145.157 -30.6529 147.99C-31.1739 149.663 -31.292 151.433 -30.9977 153.159C-30.6529 154.772 -29.6751 155.239 -28.1021 154.688C-27.1718 154.322 -26.3772 153.682 -25.8254 152.856L-22.4149 148.284C-21.1962 146.653 -19.9728 145.012 -18.6691 143.288C-18.2585 144.072 -18.077 144.954 -18.1448 145.835C-18.1448 146.106 -18.296 146.527 -17.8897 146.597C-17.7153 146.61 -17.5416 146.563 -17.3979 146.465C-17.2542 146.366 -17.1493 146.221 -17.1009 146.055C-16.7974 145.271 -16.7626 144.411 -17.0017 143.605C-17.5355 141.315 -17.1434 140.291 -15.1453 138.931C-14.9942 138.828 -14.8713 138.632 -14.6493 138.726C-14.4273 138.819 -14.4746 139.043 -14.4935 139.193C-14.5643 139.908 -14.621 140.628 -14.7391 141.334C-15.5468 146.008 -17.1009 150.593 -17.2757 155.389C-17.3796 157.941 -17.2237 160.484 -16.1089 162.84C-15.1359 164.901 -13.4921 165.382 -11.4704 164.275C-10.2148 163.536 -9.14294 162.528 -8.33389 161.325C-6.82707 159.269 -5.65088 157.011 -4.34245 154.833C-3.97401 154.221 -3.72838 153.898 -2.92537 154.192C-2.57419 154.292 -2.20593 154.318 -1.84404 154.269C-1.48214 154.22 -1.13455 154.097 -0.82338 153.907C0.740131 153.127 2.22335 152.159 3.95218 151.729C4.45761 151.603 5.06222 151.458 5.17086 152.122C5.459 153.851 5.9172 155.632 4.73158 157.263C2.63902 160.11 0.508686 162.933 -1.03593 166.144C-2.01372 168.173 -2.78366 170.267 -2.68919 172.567C-2.64195 173.824 -2.0704 174.249 -0.828093 174.011C-0.229332 173.879 0.329201 173.608 0.801538 173.221C1.88708 172.312 2.75235 171.173 3.33339 169.888C5.10069 166.354 6.23389 162.542 6.68242 158.624C6.99891 156.057 8.84109 154.833 10.3479 153.23C10.3865 153.503 10.3769 153.782 10.3196 154.052C9.663 158.208 9.05838 162.368 9.2426 166.598C9.31818 168.262 9.30402 169.935 9.81417 171.548C9.93226 171.917 10.0834 172.389 10.6455 172.253C11.1179 172.141 11.6139 172.015 11.5572 171.319C11.5495 170.978 11.5652 170.638 11.6044 170.3C11.3446 170.001 11.4438 169.636 11.4155 169.295C11.4307 169.057 11.4751 168.821 11.5477 168.594C11.6072 168.413 11.653 168.229 11.6847 168.042C11.6898 167.944 11.6694 167.847 11.6256 167.76C11.5818 167.672 11.5159 167.597 11.4344 167.542C11.3919 167.52 11.3435 167.511 11.2959 167.518C11.2484 167.525 11.2042 167.546 11.1698 167.579C11.132 167.645 11.1037 167.715 11.0612 167.78C11.0399 167.788 11.0164 167.788 10.9951 167.78C10.8485 167.471 10.8023 167.125 10.8628 166.789C10.7494 163.288 11.269 159.839 11.7697 156.389C12.0957 154.155 12.1004 152.01 13.6828 149.845C18.3743 143.585 22.1598 136.706 24.9297 129.41C25.9689 126.629 26.8191 123.801 26.8191 120.805C26.7908 119.533 26.3893 118.379 25.147 117.804ZM-19.9492 142.498C-22.2417 145.48 -24.5374 148.46 -26.8362 151.439C-27.0783 151.776 -27.3519 152.089 -27.6534 152.374C-28.036 152.711 -28.4045 153.374 -28.9146 153.145C-29.3303 152.958 -29.0847 152.248 -29.1508 151.636C-28.9429 148.233 -27.9368 144.989 -25.4475 142.362C-24.139 140.96 -22.533 140.114 -20.516 140.722C-19.3351 141.095 -19.2265 141.525 -19.9492 142.498ZM4.81188 160.783C4.12799 164.042 3.0064 167.195 1.47701 170.159C1.06744 170.925 0.593401 171.655 0.0599308 172.342C-0.284891 172.81 -0.780869 173.324 -1.35715 173.137C-2.0279 172.917 -1.51302 172.202 -1.63111 171.735C-1.5697 171.482 -1.54609 171.239 -1.82951 171.085C-1.9476 171.005 -2.009 170.907 -1.9098 170.776C-1.63583 169.879 -1.80116 168.804 -0.676949 168.266C-0.280167 168.075 -0.539955 167.448 -0.313223 167.032C0.107178 166.261 0.905464 165.761 1.19361 164.915C1.19361 164.167 1.75571 163.761 2.20445 163.288C3.06414 162.05 3.91911 160.811 4.87328 159.428C4.99815 159.873 4.97665 160.346 4.81188 160.778V160.783ZM25.1753 121.24C25.1281 124.194 24.3014 126.965 23.2292 129.704C20.617 136.393 16.8334 142.488 13.3899 148.869C13.2406 148.732 13.1344 148.556 13.0841 148.361C13.0338 148.166 13.0416 147.961 13.1065 147.77C14.311 141.353 15.7942 135.019 18.1986 128.943C19.3842 125.96 20.6784 123.002 22.6387 120.403C23.1725 119.692 23.796 118.627 24.7549 118.973C25.6477 119.29 25.1753 120.454 25.1753 121.24Z" fill="black"/>
<path d="M2.18552 163.279C1.93544 163.87 1.59446 164.419 1.17468 164.906C0.777897 164.149 1.02824 163.742 2.18552 163.279Z" fill="#272004"/>
<path d="M10.4471 168.234C9.97476 167.565 9.92279 167.093 10.2346 166.49C10.6597 167.037 10.4707 167.556 10.4471 168.234Z" fill="#3B3206"/>
<path d="M25.7516 124.825C25.6284 124.347 25.6448 123.845 25.7988 123.376C25.8889 122.981 25.949 122.579 25.9783 122.175C26.1414 122.609 26.1677 123.081 26.0539 123.53C25.983 123.89 25.8886 124.269 25.7516 124.825Z" fill="#393006"/>
<path d="M5.44006 161.465C5.44006 160.806 5.82267 160.217 5.84629 159.554C5.8699 160.203 6.01161 160.858 5.67152 161.465C5.59121 161.568 5.51564 161.568 5.44006 161.465Z" fill="#1E1903"/>
<path d="M10.3857 162.503C10.518 163.176 10.5747 163.541 10.2393 163.854C10.1531 163.634 10.1214 163.396 10.1468 163.161C10.1723 162.926 10.2542 162.701 10.3857 162.503Z" fill="#191602"/>
<path d="M24.0086 130.448C23.9682 130.198 23.985 129.942 24.0577 129.699C24.1305 129.457 24.2574 129.233 24.429 129.045C24.5282 129.569 24.3014 129.877 24.0086 130.448Z" fill="#342B06"/>
<path d="M10.5321 158.965C10.6524 159.211 10.7061 159.484 10.6879 159.757C10.6696 160.03 10.5802 160.293 10.4282 160.521C10.4802 159.792 10.5321 159.376 10.5321 158.965Z" fill="#231E03"/>
<path d="M11.4344 168.533C11.732 168.687 11.6186 169 11.68 169.224C11.6422 169.388 11.6091 169.692 11.5572 169.692C11.2218 169.692 11.4344 169.276 11.184 169.187C11.269 168.977 11.3493 168.757 11.4344 168.533Z" fill="#E2BD1A"/>
<path d="M13.1632 143.619C13.2014 144.013 13.1121 144.41 12.9081 144.75C12.8159 144.561 12.7908 144.346 12.8371 144.141C12.8834 143.936 12.9983 143.752 13.1632 143.619Z" fill="#3C3207"/>
<path d="M5.12832 163.999C4.9441 163.503 4.89214 163.2 5.21807 162.835C5.32697 163.221 5.2952 163.633 5.12832 163.999Z" fill="#000A21"/>
<path d="M11.0612 155.623C11.0102 155.555 10.975 155.477 10.9581 155.394C10.9411 155.311 10.9429 155.225 10.9632 155.143C10.9835 155.061 11.0218 154.984 11.0755 154.919C11.1292 154.853 11.1969 154.8 11.2737 154.763C11.5383 155.118 11.2832 155.361 11.0612 155.623Z" fill="#000A21"/>
<path d="M11.5383 152.893C11.4421 152.753 11.3951 152.586 11.4045 152.417C11.4139 152.248 11.4791 152.087 11.5902 151.958C11.8122 152.313 11.6044 152.566 11.5383 152.893Z" fill="#000A21"/>
<path d="M17.5798 128.307C17.7498 127.793 17.8348 127.545 17.9482 127.204C18.1419 127.61 18.0899 127.867 17.5798 128.307Z" fill="#2E2705"/>
<path d="M26.12 120.02C26.22 120.157 26.2854 120.316 26.3109 120.483C26.3363 120.651 26.3211 120.822 26.2664 120.982C26.155 120.851 26.0824 120.691 26.0565 120.521C26.0307 120.351 26.0527 120.178 26.12 120.02Z" fill="#201B03"/>
<path d="M5.44013 161.465H5.67158C5.69876 161.644 5.67965 161.826 5.61603 161.996C5.55241 162.165 5.44637 162.315 5.30787 162.433C5.1142 162.059 5.48737 161.793 5.44013 161.465Z" fill="#2B2405"/>
<path d="M11.3021 154.104C11.1698 153.763 11.1131 153.487 11.3304 153.398C11.5477 153.309 11.4816 153.529 11.4532 153.65C11.4249 153.772 11.3871 153.851 11.3021 154.104Z" fill="#000A21"/>
<path d="M6.02111 159.1C5.96443 158.932 5.88884 158.829 5.91246 158.764C5.95459 158.634 6.04155 158.523 6.15808 158.451C6.27617 158.409 6.2998 158.558 6.25729 158.656C6.21478 158.754 6.12975 158.899 6.02111 159.1Z" fill="#534509"/>
<path d="M2.13359 162.737C2.08163 162.606 2.00604 162.508 2.02494 162.443C2.04383 162.377 2.15248 162.307 2.22333 162.242C2.27529 162.316 2.37449 162.401 2.36032 162.461C2.34615 162.522 2.24223 162.597 2.13359 162.737Z" fill="#382F06"/>
<path d="M50.6402 149.275C49.823 148.92 49.9128 149.532 49.79 149.78C47.9241 153.52 46.1197 157.259 44.2539 160.998C42.3881 164.738 40.8482 168.781 38.3116 172.216C37.8393 172.829 37.5086 173.969 36.7812 173.829C35.9734 173.67 35.9215 172.506 35.7467 171.707C34.391 165.439 34.1785 159.086 34.5233 152.725C34.5055 151.889 34.6664 151.059 34.9957 150.29C35.9404 148.42 36.8851 146.578 37.8298 144.723C41.7599 136.94 45.5009 129.083 48.269 120.81C48.7413 119.365 49.2137 117.916 49.0909 116.374C49.02 115.514 48.7319 114.719 47.8344 114.373C46.9369 114.027 46.3512 114.542 45.8127 115.107C45.3074 115.622 44.8491 116.181 44.4429 116.776C42.9368 119.011 41.6508 121.384 40.6026 123.862C37.2752 131.673 34.9688 139.872 33.7392 148.261C33.7312 148.443 33.6698 148.619 33.5624 148.766C33.4549 148.914 33.3063 149.028 33.1346 149.093C30.7593 150.226 28.4786 151.544 26.3137 153.033C25.5957 153.501 25.2839 153.431 25.1517 152.603C25.1297 152.588 25.1049 152.578 25.0787 152.572C25.0525 152.566 25.0255 152.566 24.9992 152.571C24.9728 152.576 24.9477 152.585 24.9252 152.6C24.9028 152.614 24.8834 152.633 24.8683 152.655C24.7488 152.942 24.7224 153.259 24.7927 153.562C24.7266 152.949 24.8163 152.304 24.2448 151.851C24.0511 151.879 23.9235 151.954 24.0227 152.183C24.2398 152.889 24.2026 153.647 23.9175 154.329C23.6324 155.011 23.117 155.574 22.4592 155.922C21.5911 156.542 20.7658 157.218 19.9888 157.946C18.2343 159.354 16.6942 161.006 15.4163 162.849C14.6606 163.99 13.9993 165.186 13.9568 166.589C13.9331 167.692 14.5047 168.281 15.61 168.299C16.4538 168.301 17.2891 168.132 18.0647 167.804C18.8404 167.475 19.5401 166.993 20.121 166.388C22.6009 164.05 23.9235 161.05 24.7549 157.815C24.9438 157.572 24.8116 157.348 24.6793 157.161C24.6386 157.108 24.6096 157.048 24.5943 156.983C24.6117 156.999 24.6307 157.013 24.651 157.025C24.6643 157.051 24.6829 157.074 24.7057 157.093C24.7285 157.112 24.7549 157.125 24.7834 157.133C24.8118 157.141 24.8416 157.143 24.8709 157.139C24.9001 157.135 24.9282 157.125 24.9533 157.109C25.18 156.558 24.9958 155.829 25.5296 155.431C27.9836 153.58 30.622 151.981 33.4038 150.659C32.7603 156.681 32.7857 162.755 33.4794 168.771C33.6282 170.588 34.1083 172.363 34.8965 174.011C35.7184 175.563 36.9371 175.75 38.2408 174.553C38.8491 173.923 39.3773 173.221 39.8137 172.464C41.5803 169.842 42.8368 166.958 44.2208 164.135C46.4756 159.545 48.7067 154.945 50.9142 150.336C51.0512 150.037 51.4999 149.649 50.6402 149.275ZM35.7467 144.601C37.6362 136.08 39.7523 127.629 44.0224 119.889C44.6743 118.697 45.4395 117.575 46.167 116.416C46.167 116.149 46.3748 116.051 46.5874 115.949C46.8897 115.836 47.0597 115.341 47.4518 115.565C47.7399 115.733 47.5604 116.117 47.5415 116.407C47.4119 117.761 47.1071 119.093 46.6346 120.37C43.9138 128.522 40.2058 136.262 36.4175 143.956C36.2474 144.293 36.101 144.639 35.9451 144.984C35.5105 145.064 35.6806 144.835 35.7467 144.62V144.601ZM23.3378 157.801C22.3431 161.121 20.3694 164.072 17.6695 166.275C17.1263 166.743 16.328 167.364 15.7801 166.911C15.3455 166.551 15.8604 165.644 16.1721 165.041C17.849 161.816 20.4517 159.432 23.3662 157.044C23.3816 157.303 23.3721 157.563 23.3378 157.82V157.801Z" fill="black"/>
<path d="M33.7581 158.717V156.319C34.0604 157.119 34.2824 157.923 33.7581 158.717Z" fill="#3C3307"/>
<path d="M24.2306 151.925C24.2405 151.817 24.2726 151.712 24.3251 151.617C24.4715 151.458 24.4904 151.659 24.5471 151.724C24.7691 151.977 24.6841 152.388 25.0194 152.594C24.9958 152.996 24.9769 153.398 24.9486 153.996C24.4195 153.248 24.4148 152.561 24.2306 151.925Z" fill="#CBAA18"/>
<path d="M34.0982 164.644C33.555 163.808 33.8478 163.088 33.6967 162.307C34.2729 163.027 34.1501 163.733 34.0982 164.644Z" fill="#74610E"/>
<path d="M33.7344 160.601V159.372C34.0037 160.087 34.3674 160.507 33.9612 161.031C33.7486 160.956 33.8714 160.727 33.7344 160.601Z" fill="#514409"/>
<path d="M24.4006 157.511C24.3534 158.025 24.3298 158.362 23.9283 158.675C23.9181 158.459 23.9551 158.243 24.0366 158.042C24.1181 157.842 24.2422 157.66 24.4006 157.511Z" fill="#6A590C"/>
<path d="M43.5123 131.556C43.621 132.046 43.3517 132.233 43.158 132.462C43.132 132.294 43.1509 132.121 43.2131 131.962C43.2752 131.803 43.3784 131.663 43.5123 131.556Z" fill="#362D06"/>
<path d="M48.2926 117.201C48.7649 117.556 48.4437 117.799 48.3303 118.258C48.2352 118.099 48.1819 117.919 48.1753 117.734C48.1687 117.55 48.209 117.366 48.2926 117.201Z" fill="#000A21"/>
<path d="M45.7229 125.759C45.8036 125.913 45.8288 126.09 45.7945 126.26C45.7601 126.43 45.6683 126.583 45.534 126.694C45.2884 126.367 45.4868 126.138 45.7229 125.759Z" fill="#000A21"/>
<path d="M37.0835 136.422C36.8851 135.954 37.2299 135.772 37.263 135.487C37.348 135.795 37.4992 136.118 37.0835 136.422Z" fill="#372E06"/>
<path d="M24.7029 156.899L24.4903 157.152C24.018 156.801 24.2967 156.539 24.5612 156.25C24.821 156.455 24.7029 156.689 24.7029 156.899Z" fill="#B59715"/>
<path d="M35.7467 144.62L35.9404 145.022L35.69 145.671C35.571 145.518 35.5112 145.328 35.5216 145.135C35.532 144.942 35.6119 144.759 35.7467 144.62Z" fill="#6D5B0C"/>
<path d="M39.5823 128.321C39.6709 128.491 39.6933 128.687 39.6455 128.872C39.5976 129.057 39.4826 129.219 39.3225 129.326C39.1666 128.942 39.4028 128.648 39.5823 128.321Z" fill="#C4A317"/>
<path d="M33.7344 160.601L33.9612 161.031C33.9612 161.241 33.9234 161.456 33.895 161.802C33.7028 161.432 33.646 161.007 33.7344 160.601Z" fill="#BE9E16"/>
<path d="M34.6225 168.673C34.5753 168.734 34.5044 168.884 34.4572 168.874C34.3639 168.856 34.2817 168.802 34.2286 168.724C34.1754 168.646 34.1557 168.551 34.1738 168.458C34.1897 168.365 34.2361 168.28 34.306 168.215C34.5044 168.253 34.5658 168.435 34.6225 168.673Z" fill="#725F0D"/>
<path d="M48.4485 154.071C48.5004 153.646 48.7272 153.543 48.9775 153.375C49.0295 153.805 48.8217 153.954 48.4485 154.071Z" fill="#322A05"/>
<path d="M35.2319 144.283C35.3046 144.404 35.328 144.548 35.2973 144.685C35.2666 144.822 35.184 144.943 35.0665 145.022C35.012 144.897 34.9986 144.759 35.0283 144.626C35.058 144.493 35.1292 144.373 35.2319 144.283Z" fill="#998011"/>
<path d="M34.2351 167.318C33.7959 167.14 34.0084 166.851 33.8525 166.444C33.9896 166.542 34.0975 166.675 34.1648 166.829C34.2321 166.983 34.2564 167.152 34.2351 167.318Z" fill="#7F6A0F"/>
<path d="M34.9721 171.342C34.7973 171.137 34.6131 170.954 34.7217 170.641C35.0949 170.786 35.1468 171.01 34.9721 171.342Z" fill="#69570C"/>
</g>
</g>
<defs>
<clipPath id="clip0_949_371">
<rect width="130" height="226" fill="white"/>
</clipPath>
</defs>
</svg>
