<svg width="21" height="15" viewBox="0 0 21 15" fill="none" xmlns="http://www.w3.org/2000/svg">
<path d="M1.39999 2.7002C1.39999 2.16976 1.61071 1.66105 1.98578 1.28598C2.36085 0.910909 2.86956 0.700195 3.39999 0.700195H17.4C17.9304 0.700195 18.4391 0.910909 18.8142 1.28598C19.1893 1.66105 19.4 2.16976 19.4 2.7002V12.7002C19.4 13.2306 19.1893 13.7393 18.8142 14.1144C18.4391 14.4895 17.9304 14.7002 17.4 14.7002H3.39999C2.86956 14.7002 2.36085 14.4895 1.98578 14.1144C1.61071 13.7393 1.39999 13.2306 1.39999 12.7002V2.7002Z" fill="#00303F"/>
<path d="M1.39999 2.7002L10.4 8.7002L19.4 2.7002" fill="#00303F"/>
<path d="M1.39999 2.7002L10.4 8.7002L19.4 2.7002" stroke="#F0FAFC" stroke-width="1.5" stroke-linecap="round" stroke-linejoin="round"/>
</svg>
