<svg width="89" height="88" viewBox="0 0 89 88" fill="none" xmlns="http://www.w3.org/2000/svg">
<path d="M86.5239 79.2944C85.9478 78.9487 85.7405 78.534 85.7635 77.8888C85.7866 74.2942 85.7866 70.6996 85.7635 67.105C85.7635 66.5289 85.9248 66.1372 86.4548 65.8377C87.2613 65.3538 87.9295 64.6855 88.183 63.7639C89.1968 60.0771 86.7082 57.7498 83.851 57.7959C81.9846 57.842 80.1181 57.7959 78.2517 57.7959C77.7678 57.7959 77.4222 57.7498 77.4683 57.1046C77.6065 55.2612 76.8231 53.8787 75.2793 52.9109C74.9336 52.7035 74.7493 52.404 74.7493 51.9892C74.7493 51.5514 74.7493 51.1367 74.7493 50.6989C74.7493 50.1919 75.0027 49.9845 75.4866 49.9845C76.224 49.9845 76.9844 49.9845 77.7217 49.9845C78.966 49.9615 79.1273 49.7541 78.943 48.5329C78.3439 44.8231 77.7448 41.1133 77.0766 37.4034C76.8692 36.2283 76.9153 35.2375 77.5374 34.1314C78.943 31.6198 78.0443 28.8087 75.5327 27.4261C74.9797 27.1266 74.7262 26.7579 74.7493 26.1357C74.7723 24.8454 74.7493 23.555 74.7493 22.2646C74.7493 21.1125 74.6571 21.0204 73.6202 20.6286C72.975 20.3982 72.3529 20.1678 71.5694 19.8682C74.8875 18.5318 78.0213 17.2875 81.1781 16.0202C81.5698 15.8589 82.1459 15.8128 82.1459 15.3059C82.1459 14.7989 81.5698 14.7298 81.1781 14.5915C69.2191 9.79875 57.2832 5.05203 45.3703 0.259226C44.5178 -0.0864087 43.7343 -0.0864087 42.8818 0.259226C31.015 5.02899 19.1482 9.7757 7.28137 14.5224C6.84357 14.6837 6.17534 14.7298 6.17534 15.3059C6.19838 15.8589 6.86661 15.905 7.30442 16.0893C11.7977 17.9096 16.314 19.7069 20.8303 21.5042C21.4294 21.7347 21.8441 22.0112 21.8441 22.7946C21.8211 27.7257 21.8211 32.6798 21.8441 37.6108C21.8441 38.279 21.6367 38.5325 20.9455 38.5325C19.4247 38.5095 17.9039 38.5095 16.3831 38.5325C14.1019 38.5556 12.005 39.2238 10.1617 40.5142C4.21674 44.6848 3.61764 53.0261 8.89433 58.0494C9.51648 58.6485 9.53952 58.6715 8.84825 58.948C6.70532 59.8006 4.88497 61.1601 3.38722 62.9113C1.49775 65.1233 0.161296 67.5889 0.0921693 70.5844C0.0460846 70.8839 0.184339 71.2065 0 71.5061V74.4324C0.414762 78.6722 2.53466 81.9212 5.85275 84.4328C7.83439 85.9306 10.0925 86.8062 12.5811 87.0135H84.8188C85.5792 86.8522 86.2704 86.714 86.9387 86.2071C88.9203 84.6632 88.9894 80.723 86.5239 79.2944ZM71.2468 27.4492C68.2283 28.8317 67.3527 32.3111 69.4035 34.9149C69.68 35.2605 69.7491 35.537 69.68 35.9287C69.5417 36.6891 69.4265 37.4495 69.3113 38.233C69.2652 38.6477 69.0809 38.809 68.6431 38.786C67.8827 38.7399 66.8688 39.0394 66.3849 38.6477C65.878 38.256 66.2467 37.1961 66.2236 36.4357C66.2006 34.3619 66.2236 32.288 66.2236 30.2373V22.472C66.2236 21.6655 66.7075 21.2738 67.4679 21.5273C68.7813 21.9881 70.0947 22.5411 71.4081 23.025C71.7307 23.1402 71.7538 23.3246 71.7538 23.6011C71.7538 24.661 71.7307 25.721 71.7538 26.7809C71.7538 27.1727 71.5694 27.2879 71.2468 27.4492Z" fill="black"/>
<path d="M0 70.6535C0.0460846 70.6305 0.0921693 70.6305 0.161296 70.6305C0.207381 70.9531 0.253466 71.2526 0 71.5061C0 71.2296 0 70.93 0 70.6535Z" fill="#616161"/>
<path d="M47.928 78.7413C36.7755 78.7413 25.6231 78.7413 14.4936 78.7413C11.3599 78.7413 8.96347 76.8979 8.22611 73.9946C7.28138 70.2848 10.0465 66.5289 13.8715 66.3445C14.2171 66.3215 14.5628 66.3215 14.9084 66.3215C37.1673 66.3215 59.4492 66.3215 81.7081 66.2985C82.5145 66.2985 82.8371 66.4137 82.7911 67.3354C82.6989 69.0635 82.768 69.0635 81.0398 69.0635C73.6202 69.0635 66.2236 69.0635 58.804 69.0405C58.1127 69.0405 57.8823 69.1787 57.9053 69.9161C57.9514 71.8286 57.9284 71.8286 59.8179 71.8286C67.1684 71.8286 74.5189 71.8286 81.8924 71.8056C82.6067 71.8056 82.7911 71.9669 82.768 72.6812C82.6989 74.4324 82.7219 76.1836 82.768 77.9348C82.7911 78.6031 82.6067 78.7183 81.9615 78.7183C70.6247 78.7413 59.2879 78.7413 47.928 78.7413Z" fill="#DDDEDE"/>
<path d="M74.8414 15.3289C72.445 16.2967 70.256 17.1492 68.1131 18.0479C67.3988 18.3474 66.7766 18.3244 66.0623 18.0479C59.1957 15.421 52.3061 12.8173 45.4164 10.1444C44.7712 9.89089 44.5408 10.0061 44.3104 10.6513C43.6882 12.4486 43.6652 12.4255 45.4164 13.0938C51.0848 15.2598 56.7763 17.4257 62.4677 19.5917C62.6751 19.6608 62.9055 19.7069 63.1129 20.0065C61.3387 20.7208 59.6105 21.4351 57.8593 22.1264C53.5734 23.8315 49.2875 25.5366 45.0017 27.2878C44.4256 27.5183 43.9417 27.5413 43.3656 27.3109C33.6648 23.4167 23.964 19.5456 14.2632 15.6745C14.0558 15.5823 13.8254 15.5593 13.595 15.2367C14.9314 14.6837 16.2448 14.1537 17.5582 13.6237C26.1069 10.2135 34.6556 6.80322 43.2043 3.36992C43.8265 3.11645 44.3565 3.07037 45.0017 3.34687C54.6564 7.24102 64.3342 11.0891 73.9889 14.9602C74.1963 15.0293 74.4036 15.1215 74.8414 15.3289Z" fill="#5A5A5A"/>
<path d="M63.4585 31.2512C63.4585 33.7397 63.4355 36.2513 63.4816 38.7399C63.4816 39.339 63.3203 39.7768 62.8594 40.1455C60.3478 42.3115 57.3984 43.5788 54.2186 44.4083C50.1862 45.4913 46.0846 45.7909 41.9601 45.5835C37.5359 45.3531 33.204 44.5696 29.1716 42.588C27.9043 41.9658 26.7521 41.1824 25.6461 40.3068C25.0701 39.8459 24.8396 39.316 24.8396 38.5325C24.8857 33.6015 24.8627 28.6474 24.8396 23.7163C24.8396 23.025 24.9088 22.8407 25.6692 23.1403C31.568 25.5367 37.4899 27.8639 43.3887 30.2373C43.9417 30.4677 44.4026 30.4447 44.9556 30.2373C50.8774 27.8409 56.8224 25.4906 62.7442 23.0942C63.4355 22.8177 63.4816 23.002 63.4816 23.6241C63.4355 26.2049 63.4585 28.7165 63.4585 31.2512Z" fill="#414141"/>
<path d="M48.7806 60.8145C60.3248 60.8145 71.892 60.8145 83.4362 60.8145C83.7127 60.8145 84.0123 60.7914 84.2888 60.8375C85.0261 60.9758 85.487 61.4136 85.487 62.197C85.487 62.9574 85.0492 63.4183 84.3118 63.5565C84.0123 63.6026 83.6897 63.5796 83.3671 63.5796C60.44 63.5796 37.5129 63.5796 14.5858 63.5796C9.95429 63.5796 6.38273 66.3907 5.438 70.7918C4.30892 76.0224 8.34133 81.253 13.7102 81.5065C14.148 81.5295 14.5628 81.5295 15.0006 81.5295C37.7894 81.5295 60.5783 81.5295 83.3441 81.5295C83.6667 81.5295 83.9892 81.5065 84.2888 81.5526C85.0261 81.6908 85.487 82.1517 85.487 82.9121C85.487 83.6725 85.0492 84.1333 84.2888 84.2716C84.0584 84.3176 83.8279 84.2946 83.5975 84.2946C60.6013 84.2946 37.6281 84.2946 14.6319 84.2946C7.85744 84.2946 2.64988 79.0409 2.719 72.3126C2.78813 66.1142 7.97265 60.8836 14.1941 60.8606C23.0654 60.8145 31.9597 60.8375 40.831 60.8375C43.5039 60.8145 46.1538 60.8145 48.7806 60.8145Z" fill="#DA3A3A"/>
<path d="M43.7804 52.5422C34.7939 52.5422 25.8074 52.5422 16.7979 52.5422C14.6549 52.5422 13.2954 50.7449 13.9636 48.8785C14.3323 47.8185 15.2771 47.0581 16.4292 47.0351C21.9132 47.0121 27.3973 46.966 32.8814 47.0581C34.4022 47.0812 35.8999 47.7033 37.4438 47.9107C43.2735 48.7633 49.0571 48.5329 54.7946 47.1273C55.0711 47.0581 55.3476 47.0121 55.6472 47.0121C59.4722 47.0121 63.2973 47.0121 67.0992 46.989C67.6753 46.989 67.8827 47.1042 67.6983 47.7033C67.6292 47.9107 67.6062 48.1642 67.5831 48.3716C67.3757 49.7541 67.3757 49.7541 68.8274 49.7541C69.5648 49.7541 70.3252 49.7771 71.0625 49.7541C71.5464 49.731 71.7538 49.8232 71.7538 50.3993C71.7538 52.5422 71.7768 52.5422 69.6339 52.5422C61.0161 52.5422 52.3982 52.5422 43.7804 52.5422Z" fill="#EBEEEF"/>
<path d="M26.3604 44.2701C22.9041 44.2701 19.7242 44.224 16.5213 44.2931C14.2171 44.3392 12.512 45.4222 11.5442 47.519C10.5995 49.5928 10.899 51.5745 12.3276 53.3257C13.4106 54.6391 14.8393 55.2843 16.5444 55.3073C19.6551 55.3304 22.7428 55.3073 25.8535 55.3073C41.361 55.3073 56.8684 55.3073 72.399 55.3073C73.8276 55.3073 74.4497 55.7451 74.4728 56.6668C74.4728 57.6116 73.8276 58.0494 72.422 58.0494C53.896 58.0494 35.37 58.0494 16.8439 58.0494C11.8438 58.0494 8.1109 54.2474 8.29524 49.3624C8.45653 45.2378 11.9129 41.6893 16.0375 41.528C18.1573 41.4359 20.2772 41.505 22.4202 41.505C22.6506 41.505 22.881 41.505 23.0423 41.6893C23.964 42.6571 25.024 43.4175 26.3604 44.2701Z" fill="#5782E3"/>
<path d="M73.0672 47.0351C72.4681 47.0351 71.869 47.0121 71.2699 47.0351C70.809 47.0582 70.6017 46.966 70.6938 46.436C71.2238 43.3253 71.7538 40.2146 72.2377 37.1039C72.3298 36.4817 72.7446 36.6661 73.0672 36.6891C73.4128 36.7122 73.8737 36.4126 73.9889 37.1039C74.4728 40.2146 75.0027 43.3253 75.5327 46.436C75.6249 46.966 75.4406 47.0812 74.9567 47.0351C74.3345 47.0121 73.6893 47.0351 73.0672 47.0351Z" fill="#FEDB32"/>
<path d="M73.0672 29.7995C74.1963 29.7765 75.164 30.6981 75.164 31.8503C75.1871 32.9793 74.2423 33.9241 73.0902 33.9241C71.9842 33.9241 71.0625 33.0254 71.0395 31.9194C70.9934 30.7903 71.9381 29.8225 73.0672 29.7995Z" fill="#F9CC1E"/>
<path d="M61.9378 44.27C63.2742 43.3944 64.3111 42.5879 65.302 41.6662C65.7398 41.2745 66.3619 41.5279 66.8919 41.5049C68.7122 41.4819 68.6661 41.4819 68.4588 43.2561C68.3666 43.9935 68.1592 44.3161 67.3066 44.27C65.6015 44.2239 63.8964 44.27 61.9378 44.27Z" fill="#5782E3"/>
<path d="M33.1118 75.9993C26.9365 75.9993 20.7611 75.9993 14.5858 76.0224C13.9636 76.0224 13.7563 75.9072 13.7793 75.2389C13.8254 73.2573 13.7793 73.2573 15.784 73.2573C27.6969 73.2573 39.6328 73.2573 51.5457 73.2343C52.26 73.2343 52.4673 73.3725 52.4443 74.1099C52.3982 75.9993 52.4213 75.9993 50.5318 75.9993C44.7251 75.9993 38.9185 75.9993 33.1118 75.9993Z" fill="black"/>
</svg>
