<svg width="31" height="30" viewBox="0 0 31 30" fill="none" xmlns="http://www.w3.org/2000/svg">
<path d="M11.8334 16.0135C11.8334 16.986 12.2197 17.9186 12.9073 18.6063C13.5949 19.2939 14.5276 19.6802 15.5 19.6802C16.4725 19.6802 17.4051 19.2939 18.0928 18.6063C18.7804 17.9186 19.1667 16.986 19.1667 16.0135C19.1667 15.0411 18.7804 14.1084 18.0928 13.4208C17.4051 12.7332 16.4725 12.3469 15.5 12.3469C14.5276 12.3469 13.5949 12.7332 12.9073 13.4208C12.2197 14.1084 11.8334 15.0411 11.8334 16.0135Z" stroke="#5C7F87" stroke-width="1.5" stroke-linecap="round" stroke-linejoin="round"/>
<path d="M8.16663 29.1802V27.3469C8.16663 26.3744 8.55294 25.4418 9.24057 24.7541C9.9282 24.0665 10.8608 23.6802 11.8333 23.6802H19.1666C20.1391 23.6802 21.0717 24.0665 21.7594 24.7541C22.447 25.4418 22.8333 26.3744 22.8333 27.3469V29.1802" stroke="#5C7F87" stroke-width="1.5" stroke-linecap="round" stroke-linejoin="round"/>
<path d="M19 5.34687C19 6.31933 19.3863 7.25196 20.0739 7.9396C20.7616 8.62723 21.6942 9.01354 22.6667 9.01354C23.6391 9.01354 24.5718 8.62723 25.2594 7.9396C25.947 7.25196 26.3333 6.31933 26.3333 5.34687C26.3333 4.37441 25.947 3.44178 25.2594 2.75415C24.5718 2.06651 23.6391 1.68021 22.6667 1.68021C21.6942 1.68021 20.7616 2.06651 20.0739 2.75415C19.3863 3.44178 19 4.37441 19 5.34687Z" stroke="#5C7F87" stroke-width="1.5" stroke-linecap="round" stroke-linejoin="round"/>
<path d="M22.6666 14.5135H26.3333C27.3058 14.5135 28.2384 14.8999 28.926 15.5875C29.6137 16.2751 30 17.2078 30 18.1802V20.0135" stroke="#5C7F87" stroke-width="1.5" stroke-linecap="round" stroke-linejoin="round"/>
<path d="M4.66663 5.34687C4.66663 6.31933 5.05293 7.25196 5.74057 7.9396C6.4282 8.62723 7.36083 9.01354 8.33329 9.01354C9.30575 9.01354 10.2384 8.62723 10.926 7.9396C11.6137 7.25196 12 6.31933 12 5.34687C12 4.37441 11.6137 3.44178 10.926 2.75415C10.2384 2.06651 9.30575 1.68021 8.33329 1.68021C7.36083 1.68021 6.4282 2.06651 5.74057 2.75415C5.05293 3.44178 4.66663 4.37441 4.66663 5.34687Z" stroke="#5C7F87" stroke-width="1.5" stroke-linecap="round" stroke-linejoin="round"/>
<path d="M1 20.0135V18.1802C1 17.2078 1.38631 16.2751 2.07394 15.5875C2.76158 14.8999 3.69421 14.5135 4.66667 14.5135H8.33333" stroke="#5C7F87" stroke-width="1.5" stroke-linecap="round" stroke-linejoin="round"/>
</svg>
