<svg width="842" height="166" viewBox="0 0 842 166" fill="none" xmlns="http://www.w3.org/2000/svg">
<path d="M421 0.669873L416.67 5L421 9.33013L425.33 5L421 0.669873ZM417 57C417 59.2091 418.791 61 421 61C423.209 61 425 59.2091 425 57C425 54.7909 423.209 53 421 53C418.791 53 417 54.7909 417 57ZM420.25 5L420.25 57L421.75 57L421.75 5L420.25 5Z" fill="#F0FAFC"/>
<path d="M282 52.6699L277.67 57L282 61.3301L286.33 57L282 52.6699ZM278 162C278 164.209 279.791 166 282 166C284.209 166 286 164.209 286 162C286 159.791 284.209 158 282 158C279.791 158 278 159.791 278 162ZM281.25 57L281.25 162L282.75 162L282.75 57L281.25 57Z" fill="#F0FAFC"/>
<path d="M5 52.6699L0.669873 57L5 61.3301L9.33013 57L5 52.6699ZM0.999995 162C0.999995 164.209 2.79086 166 5 166C7.20913 166 9 164.209 9 162C9 159.791 7.20913 158 5 158C2.79086 158 0.999996 159.791 0.999995 162ZM4.25 57L4.25 162L5.75 162L5.75 57L4.25 57Z" fill="#F0FAFC"/>
<path d="M560 52.6699L555.67 57L560 61.3301L564.33 57L560 52.6699ZM556 162C556 164.209 557.791 166 560 166C562.209 166 564 164.209 564 162C564 159.791 562.209 158 560 158C557.791 158 556 159.791 556 162ZM559.25 57L559.25 162L560.75 162L560.75 57L559.25 57Z" fill="#F0FAFC"/>
<path d="M837 52.6699L832.67 57L837 61.3301L841.33 57L837 52.6699ZM833 162C833 164.209 834.791 166 837 166C839.209 166 841 164.209 841 162C841 159.791 839.209 158 837 158C834.791 158 833 159.791 833 162ZM836.25 57L836.25 162L837.75 162L837.75 57L836.25 57Z" fill="#F0FAFC"/>
<path d="M5 57L837 57.0001" stroke="#FBFEFF" stroke-width="1.5"/>
</svg>
